<svg width="360" height="800" viewBox="0 0 360 800" fill="none" xmlns="http://www.w3.org/2000/svg">
<g clip-path="url(#clip0_24_43)">
<rect width="360" height="800" rx="12" fill="white"/>
<path d="M0 281C0 272.716 6.71573 266 15 266H345C353.284 266 360 272.716 360 281V800H0V281Z" fill="#C8E3FD"/>
<rect x="13" y="292" width="335" height="55" rx="15" fill="white"/>
<path d="M30.6776 324.132C30.0327 324.132 29.4773 323.994 29.0114 323.719C28.5483 323.44 28.1903 323.05 27.9375 322.547C27.6875 322.041 27.5625 321.449 27.5625 320.77C27.5625 320.099 27.6875 319.509 27.9375 318.997C28.1903 318.486 28.5426 318.087 28.9943 317.8C29.4489 317.513 29.9801 317.369 30.5881 317.369C30.9574 317.369 31.3153 317.43 31.6619 317.553C32.0085 317.675 32.3196 317.866 32.5952 318.128C32.8707 318.389 33.0881 318.729 33.2472 319.146C33.4063 319.561 33.4858 320.065 33.4858 320.659V321.111H28.2827V320.156H32.2372C32.2372 319.821 32.169 319.524 32.0327 319.266C31.8963 319.004 31.7045 318.798 31.4574 318.648C31.2131 318.497 30.9261 318.422 30.5966 318.422C30.2386 318.422 29.9261 318.51 29.6591 318.686C29.3949 318.859 29.1903 319.087 29.0455 319.368C28.9034 319.646 28.8324 319.949 28.8324 320.276V321.021C28.8324 321.459 28.9091 321.831 29.0625 322.138C29.2188 322.445 29.4361 322.679 29.7145 322.841C29.9929 323 30.3182 323.08 30.6903 323.08C30.9318 323.08 31.152 323.045 31.3509 322.977C31.5497 322.906 31.7216 322.801 31.8665 322.662C32.0114 322.523 32.1222 322.351 32.1989 322.146L33.4048 322.364C33.3082 322.719 33.1349 323.03 32.8849 323.297C32.6378 323.561 32.3267 323.767 31.9517 323.915C31.5795 324.06 31.1548 324.132 30.6776 324.132ZM35.7528 317.455L37.1974 320.003L38.6548 317.455H40.0483L38.0071 320.727L40.0653 324H38.6719L37.1974 321.554L35.7273 324H34.3295L36.3665 320.727L34.3551 317.455H35.7528ZM42.196 324.081C41.9631 324.081 41.7628 323.999 41.5952 323.834C41.4276 323.666 41.3438 323.464 41.3438 323.229C41.3438 322.996 41.4276 322.797 41.5952 322.632C41.7628 322.464 41.9631 322.381 42.196 322.381C42.429 322.381 42.6293 322.464 42.7969 322.632C42.9645 322.797 43.0483 322.996 43.0483 323.229C43.0483 323.385 43.0085 323.528 42.929 323.659C42.8523 323.787 42.75 323.889 42.6222 323.966C42.4943 324.043 42.3523 324.081 42.196 324.081ZM42.196 319.317C41.9631 319.317 41.7628 319.233 41.5952 319.065C41.4276 318.898 41.3438 318.697 41.3438 318.464C41.3438 318.232 41.4276 318.033 41.5952 317.868C41.7628 317.7 41.9631 317.616 42.196 317.616C42.429 317.616 42.6293 317.7 42.7969 317.868C42.9645 318.033 43.0483 318.232 43.0483 318.464C43.0483 318.621 43.0085 318.764 42.929 318.895C42.8523 319.023 42.75 319.125 42.6222 319.202C42.4943 319.278 42.3523 319.317 42.196 319.317ZM51.0895 324V323.045L54.0426 319.986C54.358 319.653 54.6179 319.362 54.8224 319.112C55.0298 318.859 55.1847 318.619 55.2869 318.392C55.3892 318.165 55.4403 317.923 55.4403 317.668C55.4403 317.378 55.3722 317.128 55.2358 316.918C55.0994 316.705 54.9134 316.541 54.6776 316.428C54.4418 316.311 54.1761 316.253 53.8807 316.253C53.5682 316.253 53.2955 316.317 53.0625 316.445C52.8295 316.572 52.6506 316.753 52.5256 316.986C52.4006 317.219 52.3381 317.491 52.3381 317.804H51.081C51.081 317.273 51.2031 316.808 51.4474 316.411C51.6918 316.013 52.027 315.705 52.4531 315.486C52.8793 315.264 53.3636 315.153 53.9062 315.153C54.4545 315.153 54.9375 315.263 55.3551 315.482C55.7756 315.697 56.1037 315.993 56.3395 316.368C56.5753 316.74 56.6932 317.161 56.6932 317.629C56.6932 317.953 56.6321 318.27 56.5099 318.58C56.3906 318.889 56.1818 319.234 55.8835 319.615C55.5852 319.993 55.1705 320.452 54.6392 320.991L52.9048 322.807V322.871H56.8338V324H51.0895ZM60.277 320.182L60.358 318.384L58.8409 319.359L58.3764 318.55L59.9872 317.727L58.3764 316.905L58.8409 316.095L60.358 317.071L60.277 315.273H61.2017L61.1207 317.071L62.6378 316.095L63.1023 316.905L61.4915 317.727L63.1023 318.55L62.6378 319.359L61.1207 318.384L61.2017 320.182H60.277ZM65.7294 317.455L67.174 320.003L68.6314 317.455H70.0249L67.9837 320.727L70.0419 324H68.6484L67.174 321.554L65.7038 324H64.3061L66.343 320.727L64.3317 317.455H65.7294ZM73.174 316.087H73.4808V316.526H73.174V316.087ZM70.9283 319.227L72.6967 315.52H73.9581L75.7266 319.227H74.5973L73.2805 316.355H73.3743L72.0703 319.227H70.9283ZM77.0231 324V323.045L79.9762 319.986C80.2915 319.653 80.5515 319.362 80.756 319.112C80.9634 318.859 81.1183 318.619 81.2205 318.392C81.3228 318.165 81.3739 317.923 81.3739 317.668C81.3739 317.378 81.3058 317.128 81.1694 316.918C81.033 316.705 80.8469 316.541 80.6112 316.428C80.3754 316.311 80.1097 316.253 79.8143 316.253C79.5018 316.253 79.229 316.317 78.9961 316.445C78.7631 316.572 78.5842 316.753 78.4592 316.986C78.3342 317.219 78.2717 317.491 78.2717 317.804H77.0146C77.0146 317.273 77.1367 316.808 77.381 316.411C77.6254 316.013 77.9606 315.705 78.3867 315.486C78.8129 315.264 79.2972 315.153 79.8398 315.153C80.3881 315.153 80.8711 315.263 81.2887 315.482C81.7092 315.697 82.0373 315.993 82.2731 316.368C82.5089 316.74 82.6268 317.161 82.6268 317.629C82.6268 317.953 82.5657 318.27 82.4435 318.58C82.3242 318.889 82.1154 319.234 81.8171 319.615C81.5188 319.993 81.104 320.452 80.5728 320.991L78.8384 322.807V322.871H82.7674V324H77.0231ZM90.1406 322.534V316.773H91.2869V322.534H90.1406ZM87.8352 320.224V319.082H93.5966V320.224H87.8352ZM101.765 324.119C101.179 324.119 100.657 324.018 100.196 323.817C99.739 323.615 99.3768 323.335 99.1097 322.977C98.8455 322.616 98.7035 322.199 98.6836 321.724H100.022C100.039 321.983 100.125 322.207 100.282 322.398C100.441 322.585 100.648 322.73 100.904 322.832C101.159 322.935 101.444 322.986 101.756 322.986C102.1 322.986 102.404 322.926 102.668 322.807C102.935 322.687 103.144 322.521 103.294 322.308C103.445 322.092 103.52 321.844 103.52 321.562C103.52 321.27 103.445 321.013 103.294 320.791C103.147 320.567 102.929 320.391 102.642 320.263C102.358 320.135 102.015 320.071 101.611 320.071H100.874V318.997H101.611C101.935 318.997 102.219 318.939 102.463 318.822C102.711 318.706 102.904 318.544 103.043 318.337C103.182 318.126 103.252 317.881 103.252 317.599C103.252 317.33 103.191 317.095 103.069 316.896C102.949 316.695 102.779 316.537 102.557 316.423C102.338 316.31 102.08 316.253 101.782 316.253C101.498 316.253 101.232 316.305 100.985 316.411C100.74 316.513 100.542 316.661 100.388 316.854C100.235 317.044 100.152 317.273 100.141 317.54H98.8668C98.881 317.068 99.0202 316.653 99.2844 316.295C99.5515 315.937 99.9038 315.658 100.341 315.456C100.779 315.254 101.265 315.153 101.799 315.153C102.358 315.153 102.841 315.263 103.248 315.482C103.657 315.697 103.972 315.986 104.194 316.347C104.418 316.707 104.529 317.102 104.526 317.531C104.529 318.02 104.392 318.435 104.117 318.776C103.844 319.116 103.48 319.345 103.026 319.462V319.53C103.605 319.618 104.054 319.848 104.373 320.22C104.694 320.592 104.853 321.054 104.85 321.605C104.853 322.085 104.719 322.516 104.449 322.896C104.182 323.277 103.817 323.577 103.354 323.795C102.891 324.011 102.361 324.119 101.765 324.119ZM108.289 320.182L108.37 318.384L106.853 319.359L106.388 318.55L107.999 317.727L106.388 316.905L106.853 316.095L108.37 317.071L108.289 315.273H109.213L109.132 317.071L110.65 316.095L111.114 316.905L109.503 317.727L111.114 318.55L110.65 319.359L109.132 318.384L109.213 320.182H108.289ZM113.741 317.455L115.186 320.003L116.643 317.455H118.037L115.995 320.727L118.054 324H116.66L115.186 321.554L113.716 324H112.318L114.355 320.727L112.343 317.455H113.741ZM126.377 319.082V320.19H122.508V319.082H126.377ZM134.545 315.273V324H133.224V316.594H133.173L131.085 317.957V316.696L133.262 315.273H134.545ZM139.944 324.145C139.271 324.142 138.696 323.964 138.218 323.612C137.741 323.26 137.376 322.747 137.123 322.074C136.87 321.401 136.744 320.589 136.744 319.641C136.744 318.695 136.87 317.886 137.123 317.216C137.379 316.545 137.745 316.034 138.223 315.682C138.703 315.33 139.277 315.153 139.944 315.153C140.612 315.153 141.184 315.331 141.662 315.686C142.139 316.038 142.504 316.55 142.757 317.22C143.012 317.888 143.14 318.695 143.14 319.641C143.14 320.592 143.014 321.405 142.761 322.078C142.508 322.749 142.143 323.261 141.666 323.616C141.189 323.969 140.615 324.145 139.944 324.145ZM139.944 323.007C140.535 323.007 140.997 322.719 141.329 322.142C141.664 321.565 141.832 320.732 141.832 319.641C141.832 318.916 141.755 318.304 141.602 317.804C141.451 317.301 141.234 316.92 140.95 316.662C140.669 316.401 140.333 316.27 139.944 316.27C139.356 316.27 138.895 316.56 138.559 317.139C138.224 317.719 138.055 318.553 138.052 319.641C138.052 320.368 138.127 320.983 138.278 321.486C138.431 321.986 138.649 322.365 138.93 322.624C139.211 322.879 139.549 323.007 139.944 323.007Z" fill="#666666"/>
<path d="M41.9588 295V286.273H47.4304V287.406H43.2756V290.065H47.1449V291.195H43.2756V293.866H47.4815V295H41.9588ZM53.506 297.455V293.982H53.4293C53.3526 294.121 53.2418 294.28 53.0969 294.459C52.9549 294.638 52.7589 294.794 52.5089 294.928C52.2589 295.061 51.935 295.128 51.5373 295.128C51.0089 295.128 50.5373 294.993 50.1225 294.723C49.7106 294.45 49.3867 294.062 49.1509 293.56C48.918 293.054 48.8015 292.447 48.8015 291.74C48.8015 291.033 48.9194 290.428 49.1552 289.925C49.3938 289.422 49.7205 289.037 50.1353 288.77C50.5501 288.503 51.0202 288.369 51.5458 288.369C51.9521 288.369 52.2788 288.438 52.5259 288.574C52.7759 288.707 52.9691 288.864 53.1055 289.043C53.2447 289.222 53.3526 289.379 53.4293 289.516H53.5359V288.455H54.7802V297.455H53.506ZM51.8185 294.041C52.185 294.041 52.4947 293.945 52.7475 293.751C53.0032 293.555 53.1964 293.284 53.3271 292.938C53.4606 292.591 53.5273 292.187 53.5273 291.727C53.5273 291.273 53.462 290.875 53.3313 290.534C53.2006 290.193 53.0089 289.928 52.756 289.737C52.5032 289.547 52.1907 289.452 51.8185 289.452C51.435 289.452 51.1154 289.551 50.8597 289.75C50.604 289.949 50.4109 290.22 50.2802 290.564C50.1523 290.908 50.0884 291.295 50.0884 291.727C50.0884 292.165 50.1538 292.558 50.2844 292.908C50.4151 293.257 50.6083 293.534 50.864 293.739C51.1225 293.94 51.4407 294.041 51.8185 294.041ZM60.6396 292.286V288.455H61.918V295H60.6651V293.866H60.5969C60.4464 294.216 60.2049 294.507 59.8725 294.74C59.543 294.97 59.1325 295.085 58.641 295.085C58.2205 295.085 57.8484 294.993 57.5245 294.808C57.2035 294.621 56.9506 294.344 56.766 293.977C56.5842 293.611 56.4933 293.158 56.4933 292.618V288.455H57.7674V292.464C57.7674 292.911 57.891 293.266 58.1381 293.53C58.3853 293.794 58.7063 293.926 59.1012 293.926C59.3398 293.926 59.5771 293.866 59.8129 293.747C60.0515 293.628 60.2489 293.447 60.4052 293.206C60.5643 292.964 60.6424 292.658 60.6396 292.286ZM65.5348 295.145C65.12 295.145 64.745 295.068 64.4098 294.915C64.0746 294.759 63.8089 294.533 63.6129 294.237C63.4197 293.942 63.3232 293.58 63.3232 293.151C63.3232 292.781 63.3942 292.477 63.5362 292.239C63.6783 292 63.87 291.811 64.1115 291.672C64.353 291.533 64.6229 291.428 64.9212 291.357C65.2195 291.286 65.5234 291.232 65.8331 291.195C66.2251 291.149 66.5433 291.112 66.7876 291.084C67.032 291.053 67.2095 291.003 67.3203 290.935C67.4311 290.866 67.4865 290.756 67.4865 290.602V290.572C67.4865 290.2 67.3814 289.912 67.1712 289.707C66.9638 289.503 66.6541 289.401 66.2422 289.401C65.8132 289.401 65.4751 289.496 65.228 289.686C64.9837 289.874 64.8146 290.082 64.7209 290.312L63.5234 290.04C63.6655 289.642 63.8729 289.321 64.1456 289.077C64.4212 288.83 64.7379 288.651 65.0959 288.54C65.4538 288.426 65.8303 288.369 66.2251 288.369C66.4865 288.369 66.7635 288.401 67.0561 288.463C67.3516 288.523 67.6271 288.634 67.8828 288.795C68.1413 288.957 68.353 289.189 68.5178 289.49C68.6825 289.788 68.7649 290.176 68.7649 290.653V295H67.5206V294.105H67.4695C67.3871 294.27 67.2635 294.432 67.0987 294.591C66.9339 294.75 66.7223 294.882 66.4638 294.987C66.2053 295.092 65.8956 295.145 65.5348 295.145ZM65.8118 294.122C66.1641 294.122 66.4652 294.053 66.7152 293.913C66.968 293.774 67.1598 293.592 67.2905 293.368C67.424 293.141 67.4908 292.898 67.4908 292.639V291.795C67.4453 291.841 67.3572 291.884 67.2266 291.923C67.0987 291.96 66.9524 291.993 66.7876 292.021C66.6229 292.047 66.4624 292.071 66.3061 292.094C66.1499 292.114 66.0192 292.131 65.9141 292.145C65.6669 292.176 65.4411 292.229 65.2365 292.303C65.0348 292.376 64.8729 292.483 64.7507 292.622C64.6314 292.759 64.5717 292.94 64.5717 293.168C64.5717 293.483 64.6882 293.722 64.9212 293.884C65.1541 294.043 65.451 294.122 65.8118 294.122ZM73.2191 295.132C72.5856 295.132 72.0401 294.989 71.5827 294.702C71.1282 294.412 70.7788 294.013 70.5344 293.504C70.2901 292.996 70.168 292.413 70.168 291.757C70.168 291.092 70.293 290.506 70.543 289.997C70.793 289.486 71.1452 289.087 71.5998 288.8C72.0543 288.513 72.5898 288.369 73.2063 288.369C73.7035 288.369 74.1467 288.462 74.5359 288.646C74.9251 288.828 75.239 289.084 75.4776 289.413C75.7191 289.743 75.8626 290.128 75.908 290.568H74.668C74.5998 290.261 74.4435 289.997 74.1992 289.776C73.9577 289.554 73.6339 289.443 73.2276 289.443C72.8725 289.443 72.5614 289.537 72.2944 289.724C72.0302 289.909 71.8242 290.173 71.6765 290.517C71.5288 290.858 71.4549 291.261 71.4549 291.727C71.4549 292.205 71.5273 292.616 71.6722 292.963C71.8171 293.31 72.0217 293.578 72.2859 293.768C72.5529 293.959 72.8668 294.054 73.2276 294.054C73.4691 294.054 73.6879 294.01 73.8839 293.922C74.0827 293.831 74.2489 293.702 74.3825 293.534C74.5188 293.366 74.614 293.165 74.668 292.929H75.908C75.8626 293.352 75.7248 293.73 75.4947 294.062C75.2646 294.395 74.9563 294.656 74.57 294.847C74.1864 295.037 73.7362 295.132 73.2191 295.132ZM72.7589 294.966H73.5941L73.5259 295.315C73.7731 295.355 73.989 295.455 74.1737 295.614C74.3583 295.773 74.4506 296.013 74.4506 296.334C74.4535 296.717 74.2873 297.028 73.9521 297.267C73.6197 297.506 73.1381 297.625 72.5075 297.625L72.4819 296.913C72.7773 296.913 73.016 296.871 73.1978 296.786C73.3825 296.7 73.4762 296.562 73.479 296.372C73.4819 296.182 73.4109 296.048 73.266 295.972C73.1239 295.895 72.8967 295.841 72.5842 295.81L72.7589 294.966ZM79.1754 295.145C78.7607 295.145 78.3857 295.068 78.0504 294.915C77.7152 294.759 77.4496 294.533 77.2536 294.237C77.0604 293.942 76.9638 293.58 76.9638 293.151C76.9638 292.781 77.0348 292.477 77.1768 292.239C77.3189 292 77.5107 291.811 77.7521 291.672C77.9936 291.533 78.2635 291.428 78.5618 291.357C78.8601 291.286 79.1641 291.232 79.4737 291.195C79.8658 291.149 80.1839 291.112 80.4283 291.084C80.6726 291.053 80.8501 291.003 80.9609 290.935C81.0717 290.866 81.1271 290.756 81.1271 290.602V290.572C81.1271 290.2 81.022 289.912 80.8118 289.707C80.6044 289.503 80.2947 289.401 79.8828 289.401C79.4538 289.401 79.1158 289.496 78.8686 289.686C78.6243 289.874 78.4553 290.082 78.3615 290.312L77.1641 290.04C77.3061 289.642 77.5135 289.321 77.7862 289.077C78.0618 288.83 78.3786 288.651 78.7365 288.54C79.0945 288.426 79.4709 288.369 79.8658 288.369C80.1271 288.369 80.4041 288.401 80.6967 288.463C80.9922 288.523 81.2678 288.634 81.5234 288.795C81.782 288.957 81.9936 289.189 82.1584 289.49C82.3232 289.788 82.4055 290.176 82.4055 290.653V295H81.1612V294.105H81.1101C81.0277 294.27 80.9041 294.432 80.7393 294.591C80.5746 294.75 80.3629 294.882 80.1044 294.987C79.8459 295.092 79.5362 295.145 79.1754 295.145ZM79.4524 294.122C79.8047 294.122 80.1058 294.053 80.3558 293.913C80.6087 293.774 80.8004 293.592 80.9311 293.368C81.0646 293.141 81.1314 292.898 81.1314 292.639V291.795C81.0859 291.841 80.9979 291.884 80.8672 291.923C80.7393 291.96 80.593 291.993 80.4283 292.021C80.2635 292.047 80.103 292.071 79.9467 292.094C79.7905 292.114 79.6598 292.131 79.5547 292.145C79.3075 292.176 79.0817 292.229 78.8771 292.303C78.6754 292.376 78.5135 292.483 78.3913 292.622C78.272 292.759 78.2124 292.94 78.2124 293.168C78.2124 293.483 78.3288 293.722 78.5618 293.884C78.7947 294.043 79.0916 294.122 79.4524 294.122ZM78.6513 287.662L77.7947 287.636C77.7947 287.165 77.9212 286.788 78.174 286.507C78.4297 286.226 78.745 286.085 79.12 286.085C79.2933 286.085 79.4453 286.115 79.576 286.175C79.7067 286.232 79.8288 286.298 79.9425 286.375C80.0589 286.449 80.174 286.516 80.2876 286.575C80.4041 286.632 80.5334 286.661 80.6754 286.661C80.8402 286.661 80.9737 286.598 81.076 286.473C81.1811 286.348 81.2337 286.193 81.2337 286.009L82.0732 286.064C82.0732 286.538 81.9453 286.912 81.6896 287.185C81.4339 287.455 81.12 287.591 80.7479 287.594C80.5462 287.594 80.3786 287.565 80.245 287.509C80.1143 287.449 79.9979 287.382 79.8956 287.308C79.7933 287.232 79.6882 287.163 79.5803 287.104C79.4723 287.044 79.343 287.014 79.1925 287.014C79.0334 287.014 78.9027 287.077 78.8004 287.202C78.701 287.324 78.6513 287.477 78.6513 287.662ZM86.8597 295.132C86.2461 295.132 85.7106 294.991 85.2532 294.71C84.7958 294.429 84.4407 294.036 84.1879 293.53C83.935 293.024 83.8086 292.433 83.8086 291.757C83.8086 291.078 83.935 290.484 84.1879 289.976C84.4407 289.467 84.7958 289.072 85.2532 288.791C85.7106 288.51 86.2461 288.369 86.8597 288.369C87.4734 288.369 88.0089 288.51 88.4663 288.791C88.9237 289.072 89.2788 289.467 89.5316 289.976C89.7844 290.484 89.9109 291.078 89.9109 291.757C89.9109 292.433 89.7844 293.024 89.5316 293.53C89.2788 294.036 88.9237 294.429 88.4663 294.71C88.0089 294.991 87.4734 295.132 86.8597 295.132ZM86.864 294.062C87.2617 294.062 87.5913 293.957 87.8526 293.747C88.114 293.537 88.3072 293.257 88.4322 292.908C88.56 292.558 88.6239 292.173 88.6239 291.753C88.6239 291.335 88.56 290.952 88.4322 290.602C88.3072 290.25 88.114 289.967 87.8526 289.754C87.5913 289.541 87.2617 289.435 86.864 289.435C86.4634 289.435 86.131 289.541 85.8668 289.754C85.6055 289.967 85.4109 290.25 85.283 290.602C85.158 290.952 85.0955 291.335 85.0955 291.753C85.0955 292.173 85.158 292.558 85.283 292.908C85.4109 293.257 85.6055 293.537 85.8668 293.747C86.131 293.957 86.4634 294.062 86.864 294.062Z" fill="black"/>
<path d="M119.416 749H116.05V738.091H119.565C120.623 738.091 121.529 738.309 122.282 738.746C123.035 739.179 123.612 739.803 124.013 740.616C124.414 741.425 124.615 742.395 124.615 743.524C124.615 744.661 124.412 745.639 124.008 746.459C123.603 747.276 123.013 747.904 122.239 748.345C121.465 748.782 120.524 749 119.416 749ZM117.371 747.828H119.331C120.233 747.828 120.98 747.654 121.573 747.306C122.166 746.958 122.608 746.463 122.9 745.82C123.191 745.177 123.336 744.412 123.336 743.524C123.336 742.643 123.193 741.885 122.905 741.25C122.617 740.61 122.188 740.12 121.616 739.779C121.044 739.435 120.332 739.263 119.48 739.263H117.371V747.828ZM130.091 749.17C129.302 749.17 128.622 748.996 128.051 748.648C127.482 748.297 127.044 747.807 126.735 747.178C126.43 746.546 126.277 745.811 126.277 744.973C126.277 744.135 126.43 743.396 126.735 742.757C127.044 742.114 127.474 741.614 128.024 741.255C128.578 740.893 129.224 740.712 129.963 740.712C130.389 740.712 130.81 740.783 131.225 740.925C131.641 741.067 132.019 741.298 132.36 741.617C132.701 741.933 132.972 742.352 133.175 742.874C133.377 743.396 133.479 744.039 133.479 744.803V745.335H127.172V744.249H132.2C132.2 743.787 132.108 743.375 131.923 743.013C131.742 742.651 131.483 742.365 131.145 742.155C130.812 741.946 130.417 741.841 129.963 741.841C129.462 741.841 129.029 741.965 128.663 742.214C128.301 742.459 128.022 742.778 127.827 743.173C127.632 743.567 127.534 743.989 127.534 744.44V745.165C127.534 745.783 127.64 746.306 127.854 746.736C128.07 747.162 128.37 747.487 128.754 747.711C129.137 747.931 129.583 748.041 130.091 748.041C130.421 748.041 130.719 747.995 130.986 747.903C131.256 747.807 131.488 747.665 131.683 747.477C131.879 747.285 132.03 747.047 132.136 746.763L133.351 747.104C133.223 747.516 133.008 747.878 132.706 748.19C132.404 748.499 132.031 748.741 131.588 748.915C131.144 749.085 130.645 749.17 130.091 749.17ZM141.186 742.651L140.057 742.97C139.986 742.782 139.881 742.599 139.743 742.422C139.608 742.24 139.423 742.091 139.189 741.974C138.954 741.857 138.654 741.798 138.289 741.798C137.788 741.798 137.371 741.914 137.037 742.145C136.706 742.372 136.541 742.661 136.541 743.013C136.541 743.325 136.655 743.572 136.882 743.753C137.11 743.934 137.465 744.085 137.948 744.206L139.162 744.504C139.894 744.682 140.439 744.953 140.797 745.319C141.156 745.681 141.335 746.148 141.335 746.72C141.335 747.189 141.2 747.608 140.931 747.977C140.664 748.347 140.291 748.638 139.812 748.851C139.333 749.064 138.775 749.17 138.139 749.17C137.305 749.17 136.614 748.989 136.067 748.627C135.52 748.265 135.174 747.736 135.029 747.04L136.222 746.741C136.335 747.182 136.55 747.512 136.866 747.732C137.186 747.952 137.603 748.062 138.118 748.062C138.704 748.062 139.169 747.938 139.514 747.69C139.862 747.437 140.036 747.136 140.036 746.784C140.036 746.5 139.936 746.262 139.737 746.07C139.539 745.875 139.233 745.729 138.821 745.634L137.458 745.314C136.708 745.136 136.158 744.861 135.806 744.488C135.458 744.112 135.284 743.641 135.284 743.077C135.284 742.615 135.414 742.207 135.673 741.852C135.936 741.496 136.293 741.218 136.744 741.015C137.198 740.813 137.713 740.712 138.289 740.712C139.098 740.712 139.734 740.889 140.195 741.244C140.661 741.599 140.991 742.068 141.186 742.651ZM146.658 749.17C145.87 749.17 145.19 748.996 144.618 748.648C144.05 748.297 143.611 747.807 143.302 747.178C142.997 746.546 142.844 745.811 142.844 744.973C142.844 744.135 142.997 743.396 143.302 742.757C143.611 742.114 144.041 741.614 144.591 741.255C145.145 740.893 145.792 740.712 146.53 740.712C146.956 740.712 147.377 740.783 147.793 740.925C148.208 741.067 148.586 741.298 148.927 741.617C149.268 741.933 149.54 742.352 149.742 742.874C149.945 743.396 150.046 744.039 150.046 744.803V745.335H143.739V744.249H148.767C148.767 743.787 148.675 743.375 148.491 743.013C148.309 742.651 148.05 742.365 147.713 742.155C147.379 741.946 146.985 741.841 146.53 741.841C146.03 741.841 145.596 741.965 145.231 742.214C144.868 742.459 144.59 742.778 144.394 743.173C144.199 743.567 144.101 743.989 144.101 744.44V745.165C144.101 745.783 144.208 746.306 144.421 746.736C144.638 747.162 144.938 747.487 145.321 747.711C145.705 747.931 146.15 748.041 146.658 748.041C146.988 748.041 147.287 747.995 147.553 747.903C147.823 747.807 148.055 747.665 148.251 747.477C148.446 747.285 148.597 747.047 148.704 746.763L149.918 747.104C149.79 747.516 149.575 747.878 149.274 748.19C148.972 748.499 148.599 748.741 148.155 748.915C147.711 749.085 147.212 749.17 146.658 749.17ZM153.215 744.078V749H151.958V740.818H153.173V742.097H153.279C153.471 741.681 153.762 741.347 154.153 741.095C154.543 740.839 155.048 740.712 155.666 740.712C156.22 740.712 156.704 740.825 157.12 741.053C157.535 741.276 157.858 741.617 158.089 742.075C158.32 742.53 158.435 743.105 158.435 743.801V749H157.178V743.886C157.178 743.244 157.011 742.743 156.678 742.384C156.344 742.022 155.886 741.841 155.303 741.841C154.902 741.841 154.543 741.928 154.227 742.102C153.915 742.276 153.668 742.53 153.487 742.864C153.306 743.197 153.215 743.602 153.215 744.078ZM167.13 740.818L164.104 749H162.826L159.8 740.818H161.164L163.423 747.338H163.508L165.766 740.818H167.13ZM171.82 749.17C171.081 749.17 170.433 748.995 169.876 748.643C169.322 748.292 168.889 747.8 168.576 747.168C168.267 746.536 168.113 745.797 168.113 744.952C168.113 744.099 168.267 743.355 168.576 742.72C168.889 742.084 169.322 741.591 169.876 741.239C170.433 740.887 171.081 740.712 171.82 740.712C172.559 740.712 173.205 740.887 173.759 741.239C174.317 741.591 174.75 742.084 175.059 742.72C175.371 743.355 175.528 744.099 175.528 744.952C175.528 745.797 175.371 746.536 175.059 747.168C174.75 747.8 174.317 748.292 173.759 748.643C173.205 748.995 172.559 749.17 171.82 749.17ZM171.82 748.041C172.381 748.041 172.843 747.897 173.205 747.61C173.567 747.322 173.835 746.944 174.009 746.475C174.183 746.006 174.27 745.499 174.27 744.952C174.27 744.405 174.183 743.895 174.009 743.423C173.835 742.951 173.567 742.569 173.205 742.278C172.843 741.987 172.381 741.841 171.82 741.841C171.259 741.841 170.797 741.987 170.435 742.278C170.073 742.569 169.805 742.951 169.631 743.423C169.457 743.895 169.37 744.405 169.37 744.952C169.37 745.499 169.457 746.006 169.631 746.475C169.805 746.944 170.073 747.322 170.435 747.61C170.797 747.897 171.259 748.041 171.82 748.041ZM178.704 738.091V749H177.446V738.091H178.704ZM187.696 740.818L184.671 749H183.392L180.367 740.818H181.73L183.989 747.338H184.074L186.333 740.818H187.696ZM189.356 749V740.818H190.613V749H189.356ZM189.995 739.455C189.75 739.455 189.539 739.371 189.361 739.204C189.187 739.037 189.1 738.837 189.1 738.602C189.1 738.368 189.187 738.167 189.361 738C189.539 737.833 189.75 737.75 189.995 737.75C190.24 737.75 190.449 737.833 190.623 738C190.801 738.167 190.89 738.368 190.89 738.602C190.89 738.837 190.801 739.037 190.623 739.204C190.449 739.371 190.24 739.455 189.995 739.455ZM196.005 749.17C195.323 749.17 194.721 748.998 194.199 748.654C193.677 748.306 193.269 747.816 192.974 747.184C192.679 746.548 192.532 745.797 192.532 744.93C192.532 744.071 192.679 743.325 192.974 742.693C193.269 742.061 193.679 741.573 194.204 741.228C194.73 740.884 195.337 740.712 196.026 740.712C196.559 740.712 196.979 740.8 197.288 740.978C197.601 741.152 197.839 741.351 198.002 741.575C198.169 741.795 198.299 741.976 198.391 742.118H198.498V738.091H199.755V749H198.54V747.743H198.391C198.299 747.892 198.167 748.08 197.997 748.308C197.826 748.531 197.583 748.732 197.267 748.909C196.951 749.083 196.53 749.17 196.005 749.17ZM196.175 748.041C196.679 748.041 197.106 747.91 197.454 747.647C197.802 747.381 198.066 747.013 198.247 746.544C198.428 746.072 198.519 745.527 198.519 744.909C198.519 744.298 198.43 743.764 198.253 743.306C198.075 742.844 197.812 742.485 197.464 742.23C197.116 741.971 196.687 741.841 196.175 741.841C195.642 741.841 195.199 741.978 194.843 742.251C194.492 742.521 194.227 742.888 194.05 743.354C193.876 743.815 193.789 744.334 193.789 744.909C193.789 745.491 193.878 746.021 194.055 746.496C194.236 746.969 194.503 747.345 194.854 747.626C195.209 747.903 195.65 748.041 196.175 748.041ZM205.555 749.17C204.817 749.17 204.169 748.995 203.611 748.643C203.057 748.292 202.624 747.8 202.312 747.168C202.003 746.536 201.848 745.797 201.848 744.952C201.848 744.099 202.003 743.355 202.312 742.72C202.624 742.084 203.057 741.591 203.611 741.239C204.169 740.887 204.817 740.712 205.555 740.712C206.294 740.712 206.94 740.887 207.494 741.239C208.052 741.591 208.485 742.084 208.794 742.72C209.107 743.355 209.263 744.099 209.263 744.952C209.263 745.797 209.107 746.536 208.794 747.168C208.485 747.8 208.052 748.292 207.494 748.643C206.94 748.995 206.294 749.17 205.555 749.17ZM205.555 748.041C206.117 748.041 206.578 747.897 206.94 747.61C207.303 747.322 207.571 746.944 207.745 746.475C207.919 746.006 208.006 745.499 208.006 744.952C208.006 744.405 207.919 743.895 207.745 743.423C207.571 742.951 207.303 742.569 206.94 742.278C206.578 741.987 206.117 741.841 205.555 741.841C204.994 741.841 204.533 741.987 204.171 742.278C203.808 742.569 203.54 742.951 203.366 743.423C203.192 743.895 203.105 744.405 203.105 744.952C203.105 745.499 203.192 746.006 203.366 746.475C203.54 746.944 203.808 747.322 204.171 747.61C204.533 747.897 204.994 748.041 205.555 748.041ZM215.401 752.068V740.818H216.615V742.118H216.764C216.857 741.976 216.984 741.795 217.148 741.575C217.315 741.351 217.553 741.152 217.862 740.978C218.174 740.8 218.597 740.712 219.129 740.712C219.818 740.712 220.425 740.884 220.951 741.228C221.477 741.573 221.887 742.061 222.181 742.693C222.476 743.325 222.624 744.071 222.624 744.93C222.624 745.797 222.476 746.548 222.181 747.184C221.887 747.816 221.478 748.306 220.956 748.654C220.434 748.998 219.832 749.17 219.151 749.17C218.625 749.17 218.204 749.083 217.888 748.909C217.572 748.732 217.329 748.531 217.158 748.308C216.988 748.08 216.857 747.892 216.764 747.743H216.658V752.068H215.401ZM216.636 744.909C216.636 745.527 216.727 746.072 216.908 746.544C217.089 747.013 217.354 747.381 217.702 747.647C218.05 747.91 218.476 748.041 218.98 748.041C219.506 748.041 219.944 747.903 220.296 747.626C220.651 747.345 220.917 746.969 221.095 746.496C221.276 746.021 221.366 745.491 221.366 744.909C221.366 744.334 221.278 743.815 221.1 743.354C220.926 742.888 220.662 742.521 220.306 742.251C219.955 741.978 219.513 741.841 218.98 741.841C218.469 741.841 218.039 741.971 217.691 742.23C217.343 742.485 217.08 742.844 216.903 743.306C216.725 743.764 216.636 744.298 216.636 744.909ZM227.865 749.17C227.126 749.17 226.478 748.995 225.921 748.643C225.367 748.292 224.934 747.8 224.621 747.168C224.312 746.536 224.158 745.797 224.158 744.952C224.158 744.099 224.312 743.355 224.621 742.72C224.934 742.084 225.367 741.591 225.921 741.239C226.478 740.887 227.126 740.712 227.865 740.712C228.604 740.712 229.25 740.887 229.804 741.239C230.362 741.591 230.795 742.084 231.104 742.72C231.416 743.355 231.572 744.099 231.572 744.952C231.572 745.797 231.416 746.536 231.104 747.168C230.795 747.8 230.362 748.292 229.804 748.643C229.25 748.995 228.604 749.17 227.865 749.17ZM227.865 748.041C228.426 748.041 228.888 747.897 229.25 747.61C229.612 747.322 229.88 746.944 230.054 746.475C230.228 746.006 230.315 745.499 230.315 744.952C230.315 744.405 230.228 743.895 230.054 743.423C229.88 742.951 229.612 742.569 229.25 742.278C228.888 741.987 228.426 741.841 227.865 741.841C227.304 741.841 226.842 741.987 226.48 742.278C226.118 742.569 225.85 742.951 225.676 743.423C225.502 743.895 225.415 744.405 225.415 744.952C225.415 745.499 225.502 746.006 225.676 746.475C225.85 746.944 226.118 747.322 226.48 747.61C226.842 747.897 227.304 748.041 227.865 748.041ZM233.491 749V740.818H234.706V742.054H234.791C234.94 741.649 235.21 741.321 235.601 741.069C235.991 740.816 236.432 740.69 236.922 740.69C237.014 740.69 237.13 740.692 237.268 740.696C237.407 740.699 237.511 740.705 237.582 740.712V741.99C237.54 741.979 237.442 741.963 237.289 741.942C237.14 741.917 236.982 741.905 236.815 741.905C236.418 741.905 236.062 741.988 235.75 742.155C235.441 742.319 235.196 742.546 235.015 742.837C234.837 743.125 234.748 743.453 234.748 743.822V749H233.491ZM239.989 749.085C239.726 749.085 239.5 748.991 239.312 748.803C239.124 748.615 239.03 748.389 239.03 748.126C239.03 747.864 239.124 747.638 239.312 747.45C239.5 747.262 239.726 747.168 239.989 747.168C240.251 747.168 240.477 747.262 240.665 747.45C240.853 747.638 240.947 747.864 240.947 748.126C240.947 748.3 240.903 748.46 240.814 748.606C240.729 748.751 240.614 748.869 240.468 748.957C240.326 749.043 240.166 749.085 239.989 749.085ZM239.989 743.013C239.726 743.013 239.5 742.919 239.312 742.73C239.124 742.542 239.03 742.317 239.03 742.054C239.03 741.791 239.124 741.566 239.312 741.377C239.5 741.189 239.726 741.095 239.989 741.095C240.251 741.095 240.477 741.189 240.665 741.377C240.853 741.566 240.947 741.791 240.947 742.054C240.947 742.228 240.903 742.388 240.814 742.533C240.729 742.679 240.614 742.796 240.468 742.885C240.326 742.97 240.166 743.013 239.989 743.013ZM109.247 759.5C109.129 759.141 108.975 758.82 108.783 758.536C108.595 758.248 108.37 758.003 108.107 757.801C107.848 757.598 107.553 757.444 107.223 757.337C106.892 757.231 106.53 757.178 106.136 757.178C105.49 757.178 104.902 757.344 104.373 757.678C103.844 758.012 103.423 758.504 103.11 759.154C102.798 759.804 102.642 760.601 102.642 761.545C102.642 762.49 102.8 763.287 103.116 763.937C103.432 764.587 103.86 765.079 104.399 765.413C104.939 765.746 105.546 765.913 106.221 765.913C106.846 765.913 107.397 765.78 107.872 765.514C108.352 765.244 108.725 764.864 108.991 764.374C109.261 763.88 109.396 763.3 109.396 762.632L109.801 762.717H106.519V761.545H110.674V762.717C110.674 763.616 110.482 764.397 110.099 765.061C109.719 765.725 109.193 766.24 108.522 766.606C107.855 766.968 107.088 767.149 106.221 767.149C105.255 767.149 104.406 766.922 103.675 766.467C102.947 766.013 102.379 765.366 101.97 764.528C101.566 763.69 101.363 762.696 101.363 761.545C101.363 760.683 101.479 759.907 101.709 759.218C101.944 758.525 102.274 757.936 102.7 757.449C103.126 756.963 103.631 756.59 104.213 756.331C104.795 756.071 105.436 755.942 106.136 755.942C106.711 755.942 107.247 756.029 107.745 756.203C108.245 756.373 108.691 756.616 109.082 756.933C109.476 757.245 109.804 757.62 110.067 758.056C110.33 758.49 110.511 758.971 110.61 759.5H109.247ZM113.279 767V758.818H114.536V767H113.279ZM113.918 757.455C113.673 757.455 113.462 757.371 113.284 757.204C113.11 757.037 113.023 756.837 113.023 756.602C113.023 756.368 113.11 756.167 113.284 756C113.462 755.833 113.673 755.75 113.918 755.75C114.163 755.75 114.373 755.833 114.547 756C114.724 756.167 114.813 756.368 114.813 756.602C114.813 756.837 114.724 757.037 114.547 757.204C114.373 757.371 114.163 757.455 113.918 757.455ZM119.246 767.192C118.728 767.192 118.257 767.094 117.835 766.899C117.412 766.7 117.076 766.414 116.828 766.041C116.579 765.665 116.455 765.21 116.455 764.678C116.455 764.209 116.547 763.829 116.732 763.538C116.917 763.243 117.163 763.012 117.472 762.845C117.781 762.678 118.122 762.554 118.495 762.472C118.872 762.387 119.25 762.32 119.63 762.27C120.127 762.206 120.53 762.158 120.839 762.126C121.151 762.091 121.379 762.032 121.521 761.95C121.666 761.869 121.739 761.727 121.739 761.524V761.482C121.739 760.956 121.595 760.548 121.308 760.256C121.024 759.965 120.592 759.82 120.013 759.82C119.413 759.82 118.943 759.951 118.602 760.214C118.261 760.477 118.021 760.757 117.883 761.055L116.689 760.629C116.902 760.132 117.187 759.745 117.542 759.468C117.9 759.187 118.291 758.992 118.714 758.882C119.14 758.768 119.559 758.712 119.971 758.712C120.233 758.712 120.535 758.744 120.876 758.808C121.221 758.868 121.553 758.994 121.872 759.186C122.195 759.377 122.464 759.667 122.677 760.054C122.89 760.441 122.996 760.96 122.996 761.609V767H121.739V765.892H121.675C121.59 766.07 121.448 766.26 121.249 766.462C121.05 766.664 120.786 766.837 120.455 766.979C120.125 767.121 119.722 767.192 119.246 767.192ZM119.438 766.062C119.935 766.062 120.354 765.965 120.695 765.77C121.04 765.574 121.299 765.322 121.473 765.013C121.65 764.704 121.739 764.379 121.739 764.038V762.888C121.686 762.952 121.569 763.01 121.388 763.064C121.21 763.113 121.004 763.158 120.77 763.197C120.539 763.232 120.313 763.264 120.093 763.293C119.877 763.317 119.701 763.339 119.566 763.357C119.239 763.399 118.934 763.468 118.65 763.564C118.369 763.657 118.142 763.797 117.968 763.985C117.797 764.17 117.712 764.422 117.712 764.741C117.712 765.178 117.874 765.509 118.197 765.732C118.524 765.952 118.937 766.062 119.438 766.062ZM126.548 762.078V767H125.291V758.818H126.505V760.097H126.612C126.803 759.681 127.095 759.347 127.485 759.095C127.876 758.839 128.38 758.712 128.998 758.712C129.552 758.712 130.037 758.825 130.452 759.053C130.868 759.276 131.191 759.617 131.422 760.075C131.653 760.53 131.768 761.105 131.768 761.801V767H130.511V761.886C130.511 761.244 130.344 760.743 130.01 760.384C129.676 760.022 129.218 759.841 128.636 759.841C128.235 759.841 127.876 759.928 127.56 760.102C127.247 760.276 127.001 760.53 126.819 760.864C126.638 761.197 126.548 761.602 126.548 762.078ZM135.322 756.091V767H134.065V756.091H135.322ZM142.781 763.655V758.818H144.038V767H142.781V765.615H142.696C142.504 766.031 142.206 766.384 141.801 766.675C141.396 766.963 140.885 767.107 140.267 767.107C139.755 767.107 139.301 766.995 138.903 766.771C138.505 766.544 138.193 766.203 137.966 765.748C137.738 765.29 137.625 764.713 137.625 764.017V758.818H138.882V763.932C138.882 764.528 139.049 765.004 139.383 765.359C139.72 765.714 140.15 765.892 140.672 765.892C140.984 765.892 141.302 765.812 141.625 765.652C141.952 765.493 142.225 765.248 142.445 764.917C142.669 764.587 142.781 764.166 142.781 763.655ZM149.664 767.17C148.897 767.17 148.237 766.989 147.683 766.627C147.129 766.265 146.703 765.766 146.404 765.13C146.106 764.495 145.957 763.768 145.957 762.952C145.957 762.121 146.11 761.387 146.415 760.752C146.724 760.113 147.154 759.614 147.704 759.255C148.258 758.893 148.904 758.712 149.643 758.712C150.218 758.712 150.737 758.818 151.198 759.031C151.66 759.244 152.038 759.543 152.333 759.926C152.628 760.31 152.811 760.757 152.882 761.268H151.625C151.529 760.896 151.316 760.565 150.985 760.278C150.659 759.987 150.218 759.841 149.664 759.841C149.174 759.841 148.745 759.969 148.375 760.224C148.01 760.477 147.724 760.833 147.518 761.295C147.315 761.753 147.214 762.291 147.214 762.909C147.214 763.541 147.314 764.092 147.512 764.56C147.715 765.029 147.999 765.393 148.365 765.652C148.734 765.912 149.167 766.041 149.664 766.041C149.991 766.041 150.288 765.984 150.554 765.871C150.82 765.757 151.046 765.594 151.23 765.381C151.415 765.168 151.546 764.912 151.625 764.614H152.882C152.811 765.097 152.635 765.532 152.354 765.919C152.077 766.302 151.71 766.608 151.252 766.835C150.797 767.059 150.268 767.17 149.664 767.17ZM157.127 767.192C156.609 767.192 156.138 767.094 155.716 766.899C155.293 766.7 154.957 766.414 154.709 766.041C154.46 765.665 154.336 765.21 154.336 764.678C154.336 764.209 154.428 763.829 154.613 763.538C154.798 763.243 155.044 763.012 155.353 762.845C155.662 762.678 156.003 762.554 156.376 762.472C156.752 762.387 157.131 762.32 157.511 762.27C158.008 762.206 158.411 762.158 158.72 762.126C159.032 762.091 159.26 762.032 159.402 761.95C159.547 761.869 159.62 761.727 159.62 761.524V761.482C159.62 760.956 159.476 760.548 159.189 760.256C158.904 759.965 158.473 759.82 157.894 759.82C157.294 759.82 156.823 759.951 156.483 760.214C156.142 760.477 155.902 760.757 155.763 761.055L154.57 760.629C154.783 760.132 155.067 759.745 155.423 759.468C155.781 759.187 156.172 758.992 156.594 758.882C157.021 758.768 157.44 758.712 157.852 758.712C158.114 758.712 158.416 758.744 158.757 758.808C159.102 758.868 159.434 758.994 159.753 759.186C160.076 759.377 160.344 759.667 160.557 760.054C160.771 760.441 160.877 760.96 160.877 761.609V767H159.62V765.892H159.556C159.471 766.07 159.329 766.26 159.13 766.462C158.931 766.664 158.667 766.837 158.336 766.979C158.006 767.121 157.603 767.192 157.127 767.192ZM157.319 766.062C157.816 766.062 158.235 765.965 158.576 765.77C158.92 765.574 159.18 765.322 159.354 765.013C159.531 764.704 159.62 764.379 159.62 764.038V762.888C159.567 762.952 159.45 763.01 159.268 763.064C159.091 763.113 158.885 763.158 158.651 763.197C158.42 763.232 158.194 763.264 157.974 763.293C157.757 763.317 157.582 763.339 157.447 763.357C157.12 763.399 156.815 763.468 156.53 763.564C156.25 763.657 156.023 763.797 155.849 763.985C155.678 764.17 155.593 764.422 155.593 764.741C155.593 765.178 155.755 765.509 156.078 765.732C156.404 765.952 156.818 766.062 157.319 766.062ZM170.48 767.149C169.762 767.149 169.145 767.018 168.626 766.755C168.108 766.492 167.708 766.132 167.428 765.674C167.147 765.216 167.007 764.692 167.007 764.102C167.007 763.648 167.103 763.245 167.294 762.893C167.49 762.538 167.758 762.21 168.099 761.908C168.443 761.602 168.839 761.297 169.287 760.991L170.863 759.82C171.172 759.617 171.419 759.401 171.604 759.17C171.792 758.939 171.886 758.637 171.886 758.264C171.886 757.987 171.764 757.719 171.519 757.46C171.277 757.201 170.959 757.071 170.565 757.071C170.288 757.071 170.043 757.142 169.83 757.284C169.62 757.423 169.455 757.6 169.335 757.817C169.217 758.03 169.159 758.25 169.159 758.477C169.159 758.733 169.228 758.992 169.367 759.255C169.509 759.514 169.688 759.781 169.905 760.054C170.125 760.324 170.352 760.601 170.586 760.885L175.593 767H174.081L169.947 762.014C169.564 761.553 169.216 761.134 168.903 760.757C168.591 760.381 168.342 760.01 168.157 759.644C167.973 759.278 167.88 758.882 167.88 758.456C167.88 757.966 167.989 757.536 168.205 757.167C168.425 756.794 168.733 756.505 169.127 756.299C169.525 756.089 169.99 755.984 170.522 755.984C171.069 755.984 171.54 756.091 171.934 756.304C172.328 756.513 172.632 756.792 172.845 757.14C173.058 757.485 173.164 757.859 173.164 758.264C173.164 758.786 173.035 759.239 172.776 759.623C172.516 760.006 172.163 760.363 171.716 760.693L169.542 762.312C169.052 762.675 168.72 763.026 168.546 763.367C168.372 763.708 168.285 763.953 168.285 764.102C168.285 764.443 168.374 764.761 168.552 765.056C168.729 765.35 168.979 765.588 169.303 765.77C169.626 765.951 170.004 766.041 170.437 766.041C170.849 766.041 171.25 765.954 171.641 765.78C172.032 765.603 172.385 765.347 172.701 765.013C173.021 764.679 173.273 764.278 173.457 763.809C173.646 763.341 173.74 762.813 173.74 762.227H174.954C174.954 762.952 174.871 763.543 174.704 764.001C174.537 764.459 174.349 764.818 174.139 765.077C173.93 765.336 173.761 765.53 173.633 765.658C173.591 765.711 173.552 765.764 173.516 765.817C173.481 765.871 173.441 765.924 173.399 765.977C173.047 766.371 172.603 766.666 172.067 766.862C171.531 767.053 171.002 767.149 170.48 767.149ZM185.55 756.091H186.871V763.889C186.871 764.585 186.744 765.176 186.488 765.663C186.232 766.15 185.872 766.519 185.407 766.771C184.941 767.023 184.393 767.149 183.761 767.149C183.164 767.149 182.633 767.041 182.168 766.824C181.703 766.604 181.337 766.292 181.071 765.887C180.804 765.482 180.671 765.001 180.671 764.443H181.971C181.971 764.752 182.047 765.022 182.2 765.253C182.356 765.48 182.569 765.658 182.839 765.786C183.109 765.913 183.416 765.977 183.761 765.977C184.141 765.977 184.464 765.897 184.73 765.738C184.996 765.578 185.199 765.343 185.337 765.034C185.479 764.722 185.55 764.34 185.55 763.889V756.091ZM192.672 767.17C191.934 767.17 191.285 766.995 190.728 766.643C190.174 766.292 189.741 765.8 189.428 765.168C189.119 764.536 188.965 763.797 188.965 762.952C188.965 762.099 189.119 761.355 189.428 760.72C189.741 760.084 190.174 759.591 190.728 759.239C191.285 758.887 191.934 758.712 192.672 758.712C193.411 758.712 194.057 758.887 194.611 759.239C195.169 759.591 195.602 760.084 195.911 760.72C196.223 761.355 196.38 762.099 196.38 762.952C196.38 763.797 196.223 764.536 195.911 765.168C195.602 765.8 195.169 766.292 194.611 766.643C194.057 766.995 193.411 767.17 192.672 767.17ZM192.672 766.041C193.233 766.041 193.695 765.897 194.057 765.61C194.419 765.322 194.687 764.944 194.861 764.475C195.035 764.006 195.122 763.499 195.122 762.952C195.122 762.405 195.035 761.895 194.861 761.423C194.687 760.951 194.419 760.569 194.057 760.278C193.695 759.987 193.233 759.841 192.672 759.841C192.111 759.841 191.649 759.987 191.287 760.278C190.925 760.569 190.657 760.951 190.483 761.423C190.309 761.895 190.222 762.405 190.222 762.952C190.222 763.499 190.309 764.006 190.483 764.475C190.657 764.944 190.925 765.322 191.287 765.61C191.649 765.897 192.111 766.041 192.672 766.041ZM200.706 767.192C200.188 767.192 199.717 767.094 199.295 766.899C198.872 766.7 198.536 766.414 198.288 766.041C198.039 765.665 197.915 765.21 197.915 764.678C197.915 764.209 198.007 763.829 198.192 763.538C198.377 763.243 198.623 763.012 198.932 762.845C199.241 762.678 199.582 762.554 199.955 762.472C200.332 762.387 200.71 762.32 201.09 762.27C201.587 762.206 201.99 762.158 202.299 762.126C202.611 762.091 202.839 762.032 202.981 761.95C203.126 761.869 203.199 761.727 203.199 761.524V761.482C203.199 760.956 203.055 760.548 202.768 760.256C202.484 759.965 202.052 759.82 201.473 759.82C200.873 759.82 200.403 759.951 200.062 760.214C199.721 760.477 199.481 760.757 199.343 761.055L198.149 760.629C198.362 760.132 198.647 759.745 199.002 759.468C199.36 759.187 199.751 758.992 200.174 758.882C200.6 758.768 201.019 758.712 201.431 758.712C201.693 758.712 201.995 758.744 202.336 758.808C202.681 758.868 203.013 758.994 203.332 759.186C203.655 759.377 203.924 759.667 204.137 760.054C204.35 760.441 204.456 760.96 204.456 761.609V767H203.199V765.892H203.135C203.05 766.07 202.908 766.26 202.709 766.462C202.51 766.664 202.246 766.837 201.915 766.979C201.585 767.121 201.182 767.192 200.706 767.192ZM200.898 766.062C201.395 766.062 201.814 765.965 202.155 765.77C202.5 765.574 202.759 765.322 202.933 765.013C203.11 764.704 203.199 764.379 203.199 764.038V762.888C203.146 762.952 203.029 763.01 202.848 763.064C202.67 763.113 202.464 763.158 202.23 763.197C201.999 763.232 201.773 763.264 201.553 763.293C201.337 763.317 201.161 763.339 201.026 763.357C200.699 763.399 200.394 763.468 200.11 763.564C199.829 763.657 199.602 763.797 199.428 763.985C199.257 764.17 199.172 764.422 199.172 764.741C199.172 765.178 199.334 765.509 199.657 765.732C199.984 765.952 200.397 766.062 200.898 766.062ZM199.875 757.838L198.895 757.795C198.895 757.252 199.05 756.808 199.359 756.464C199.671 756.116 200.056 755.942 200.514 755.942C200.717 755.942 200.896 755.977 201.052 756.048C201.209 756.116 201.358 756.194 201.5 756.283C201.642 756.371 201.788 756.451 201.937 756.522C202.089 756.59 202.262 756.624 202.453 756.624C202.656 756.624 202.826 756.545 202.965 756.389C203.107 756.229 203.178 756.038 203.178 755.814L204.137 755.899C204.137 756.453 203.98 756.893 203.668 757.22C203.359 757.547 202.975 757.71 202.517 757.71C202.272 757.71 202.07 757.676 201.91 757.609C201.75 757.538 201.608 757.458 201.484 757.369C201.36 757.281 201.228 757.202 201.09 757.135C200.951 757.064 200.781 757.028 200.578 757.028C200.376 757.028 200.207 757.108 200.072 757.268C199.941 757.424 199.875 757.614 199.875 757.838ZM210.075 767.17C209.336 767.17 208.688 766.995 208.13 766.643C207.576 766.292 207.143 765.8 206.831 765.168C206.522 764.536 206.367 763.797 206.367 762.952C206.367 762.099 206.522 761.355 206.831 760.72C207.143 760.084 207.576 759.591 208.13 759.239C208.688 758.887 209.336 758.712 210.075 758.712C210.813 758.712 211.459 758.887 212.013 759.239C212.571 759.591 213.004 760.084 213.313 760.72C213.626 761.355 213.782 762.099 213.782 762.952C213.782 763.797 213.626 764.536 213.313 765.168C213.004 765.8 212.571 766.292 212.013 766.643C211.459 766.995 210.813 767.17 210.075 767.17ZM210.075 766.041C210.636 766.041 211.097 765.897 211.459 765.61C211.822 765.322 212.09 764.944 212.264 764.475C212.438 764.006 212.525 763.499 212.525 762.952C212.525 762.405 212.438 761.895 212.264 761.423C212.09 760.951 211.822 760.569 211.459 760.278C211.097 759.987 210.636 759.841 210.075 759.841C209.513 759.841 209.052 759.987 208.69 760.278C208.327 760.569 208.059 760.951 207.885 761.423C207.711 761.895 207.624 762.405 207.624 762.952C207.624 763.499 207.711 764.006 207.885 764.475C208.059 764.944 208.327 765.322 208.69 765.61C209.052 765.897 209.513 766.041 210.075 766.041ZM220.09 767V756.091H223.776C224.632 756.091 225.332 756.245 225.875 756.554C226.422 756.86 226.827 757.273 227.089 757.795C227.352 758.317 227.484 758.9 227.484 759.543C227.484 760.185 227.352 760.77 227.089 761.295C226.83 761.821 226.429 762.24 225.886 762.552C225.342 762.861 224.646 763.016 223.797 763.016H221.155V761.844H223.755C224.341 761.844 224.811 761.743 225.166 761.54C225.522 761.338 225.779 761.064 225.939 760.72C226.102 760.372 226.184 759.979 226.184 759.543C226.184 759.106 226.102 758.715 225.939 758.371C225.779 758.026 225.52 757.756 225.161 757.561C224.802 757.362 224.327 757.263 223.734 757.263H221.411V767H220.09ZM232.784 767.17C231.995 767.17 231.315 766.996 230.743 766.648C230.175 766.297 229.737 765.807 229.428 765.178C229.122 764.546 228.97 763.811 228.97 762.973C228.97 762.135 229.122 761.396 229.428 760.757C229.737 760.114 230.166 759.614 230.717 759.255C231.271 758.893 231.917 758.712 232.656 758.712C233.082 758.712 233.503 758.783 233.918 758.925C234.334 759.067 234.712 759.298 235.053 759.617C235.394 759.933 235.665 760.352 235.868 760.874C236.07 761.396 236.171 762.039 236.171 762.803V763.335H229.865V762.249H234.893C234.893 761.787 234.801 761.375 234.616 761.013C234.435 760.651 234.176 760.365 233.838 760.155C233.504 759.946 233.11 759.841 232.656 759.841C232.155 759.841 231.722 759.965 231.356 760.214C230.994 760.459 230.715 760.778 230.52 761.173C230.324 761.567 230.227 761.989 230.227 762.44V763.165C230.227 763.783 230.333 764.306 230.546 764.736C230.763 765.162 231.063 765.487 231.447 765.711C231.83 765.931 232.276 766.041 232.784 766.041C233.114 766.041 233.412 765.995 233.678 765.903C233.948 765.807 234.181 765.665 234.376 765.477C234.572 765.285 234.723 765.047 234.829 764.763L236.044 765.104C235.916 765.516 235.701 765.878 235.399 766.19C235.097 766.499 234.724 766.741 234.28 766.915C233.837 767.085 233.338 767.17 232.784 767.17ZM241.173 767.17C240.491 767.17 239.889 766.998 239.367 766.654C238.845 766.306 238.437 765.816 238.142 765.184C237.848 764.548 237.7 763.797 237.7 762.93C237.7 762.071 237.848 761.325 238.142 760.693C238.437 760.061 238.847 759.573 239.373 759.228C239.898 758.884 240.506 758.712 241.194 758.712C241.727 758.712 242.148 758.8 242.457 758.978C242.769 759.152 243.007 759.351 243.171 759.575C243.338 759.795 243.467 759.976 243.56 760.118H243.666V756.091H244.923V767H243.709V765.743H243.56C243.467 765.892 243.336 766.08 243.165 766.308C242.995 766.531 242.752 766.732 242.436 766.909C242.12 767.083 241.699 767.17 241.173 767.17ZM241.344 766.041C241.848 766.041 242.274 765.91 242.622 765.647C242.97 765.381 243.235 765.013 243.416 764.544C243.597 764.072 243.687 763.527 243.687 762.909C243.687 762.298 243.599 761.764 243.421 761.306C243.243 760.844 242.981 760.485 242.633 760.23C242.285 759.971 241.855 759.841 241.344 759.841C240.811 759.841 240.367 759.978 240.012 760.251C239.66 760.521 239.396 760.888 239.218 761.354C239.044 761.815 238.957 762.334 238.957 762.909C238.957 763.491 239.046 764.021 239.224 764.496C239.405 764.969 239.671 765.345 240.023 765.626C240.378 765.903 240.818 766.041 241.344 766.041ZM247.4 767V758.818H248.615V760.054H248.7C248.849 759.649 249.119 759.321 249.509 759.069C249.9 758.816 250.34 758.69 250.83 758.69C250.923 758.69 251.038 758.692 251.177 758.696C251.315 758.699 251.42 758.705 251.491 758.712V759.99C251.448 759.979 251.351 759.963 251.198 759.942C251.049 759.917 250.891 759.905 250.724 759.905C250.326 759.905 249.971 759.988 249.659 760.155C249.35 760.319 249.105 760.546 248.924 760.837C248.746 761.125 248.657 761.453 248.657 761.822V767H247.4ZM256.056 767.17C255.317 767.17 254.669 766.995 254.112 766.643C253.558 766.292 253.125 765.8 252.812 765.168C252.503 764.536 252.349 763.797 252.349 762.952C252.349 762.099 252.503 761.355 252.812 760.72C253.125 760.084 253.558 759.591 254.112 759.239C254.669 758.887 255.317 758.712 256.056 758.712C256.795 758.712 257.441 758.887 257.995 759.239C258.552 759.591 258.986 760.084 259.295 760.72C259.607 761.355 259.763 762.099 259.763 762.952C259.763 763.797 259.607 764.536 259.295 765.168C258.986 765.8 258.552 766.292 257.995 766.643C257.441 766.995 256.795 767.17 256.056 767.17ZM256.056 766.041C256.617 766.041 257.079 765.897 257.441 765.61C257.803 765.322 258.071 764.944 258.245 764.475C258.419 764.006 258.506 763.499 258.506 762.952C258.506 762.405 258.419 761.895 258.245 761.423C258.071 760.951 257.803 760.569 257.441 760.278C257.079 759.987 256.617 759.841 256.056 759.841C255.495 759.841 255.033 759.987 254.671 760.278C254.309 760.569 254.041 760.951 253.867 761.423C253.693 761.895 253.606 762.405 253.606 762.952C253.606 763.499 253.693 764.006 253.867 764.475C254.041 764.944 254.309 765.322 254.671 765.61C255.033 765.897 255.495 766.041 256.056 766.041Z" fill="black"/>
<rect x="21" y="650" width="146" height="55" rx="15" fill="#285DFC"/>
<path d="M78.0876 676.328H76.2211C76.187 676.087 76.1174 675.872 76.0123 675.685C75.9072 675.494 75.7723 675.332 75.6075 675.199C75.4427 675.065 75.2524 674.963 75.0365 674.892C74.8234 674.821 74.5919 674.786 74.3419 674.786C73.8902 674.786 73.4967 674.898 73.1615 675.122C72.8262 675.344 72.5663 675.668 72.3816 676.094C72.197 676.517 72.1047 677.031 72.1047 677.636C72.1047 678.259 72.197 678.781 72.3816 679.205C72.5691 679.628 72.8305 679.947 73.1657 680.163C73.501 680.379 73.8887 680.487 74.3291 680.487C74.5762 680.487 74.8049 680.455 75.0152 680.389C75.2282 680.324 75.4172 680.229 75.5819 680.104C75.7467 679.976 75.8831 679.821 75.991 679.639C76.1018 679.457 76.1785 679.25 76.2211 679.017L78.0876 679.026C78.0393 679.426 77.9186 679.812 77.7254 680.185C77.5351 680.554 77.278 680.885 76.9541 681.178C76.6331 681.467 76.2495 681.697 75.8035 681.868C75.3603 682.036 74.8589 682.119 74.2993 682.119C73.5208 682.119 72.8248 681.943 72.2112 681.591C71.6004 681.239 71.1174 680.729 70.7623 680.061C70.4101 679.393 70.2339 678.585 70.2339 677.636C70.2339 676.685 70.4129 675.875 70.7708 675.207C71.1288 674.54 71.6146 674.031 72.2282 673.682C72.8419 673.33 73.5322 673.153 74.2993 673.153C74.8049 673.153 75.2737 673.224 75.7055 673.366C76.1402 673.509 76.5251 673.716 76.8603 673.989C77.1956 674.259 77.4683 674.589 77.6785 674.982C77.8916 675.374 78.028 675.822 78.0876 676.328ZM81.2431 682.124C80.8255 682.124 80.4534 682.051 80.1267 681.906C79.8 681.759 79.5414 681.541 79.3511 681.254C79.1636 680.964 79.0699 680.604 79.0699 680.172C79.0699 679.808 79.1366 679.503 79.2701 679.256C79.4037 679.009 79.5855 678.81 79.8156 678.659C80.0457 678.509 80.3071 678.395 80.5997 678.318C80.8951 678.241 81.2048 678.188 81.5287 678.156C81.9093 678.116 82.2162 678.08 82.4491 678.045C82.6821 678.009 82.8511 677.955 82.9562 677.884C83.0613 677.812 83.1139 677.707 83.1139 677.568V677.543C83.1139 677.273 83.0287 677.064 82.8582 676.916C82.6906 676.768 82.452 676.695 82.1423 676.695C81.8156 676.695 81.5556 676.767 81.3625 676.912C81.1693 677.054 81.0414 677.233 80.9789 677.449L79.3 677.312C79.3852 676.915 79.5528 676.571 79.8028 676.281C80.0528 675.989 80.3753 675.764 80.7701 675.608C81.1679 675.449 81.6281 675.369 82.1508 675.369C82.5145 675.369 82.8625 675.412 83.1949 675.497C83.5301 675.582 83.827 675.714 84.0855 675.893C84.3468 676.072 84.5528 676.303 84.7034 676.584C84.8539 676.862 84.9292 677.196 84.9292 677.585V682H83.2076V681.092H83.1565C83.0514 681.297 82.9108 681.477 82.7346 681.634C82.5585 681.787 82.3468 681.908 82.0997 681.996C81.8525 682.081 81.567 682.124 81.2431 682.124ZM81.763 680.871C82.0301 680.871 82.2659 680.818 82.4704 680.713C82.675 680.605 82.8355 680.46 82.952 680.278C83.0684 680.097 83.1267 679.891 83.1267 679.661V678.966C83.0699 679.003 82.9917 679.037 82.8923 679.068C82.7957 679.097 82.6863 679.124 82.5642 679.149C82.442 679.172 82.3199 679.193 82.1977 679.213C82.0755 679.23 81.9647 679.246 81.8653 679.26C81.6522 679.291 81.4662 679.341 81.3071 679.409C81.148 679.477 81.0244 679.57 80.9363 679.686C80.8483 679.8 80.8042 679.942 80.8042 680.112C80.8042 680.359 80.8937 680.548 81.0727 680.679C81.2545 680.807 81.4846 680.871 81.763 680.871ZM88.153 673.273V682H86.3376V673.273H88.153ZM92.5645 682.128C91.8941 682.128 91.3174 681.986 90.8344 681.702C90.3543 681.415 89.985 681.017 89.7265 680.509C89.4708 680 89.3429 679.415 89.3429 678.753C89.3429 678.082 89.4722 677.494 89.7307 676.989C89.9921 676.48 90.3628 676.084 90.8429 675.8C91.3231 675.513 91.8941 675.369 92.556 675.369C93.127 675.369 93.627 675.473 94.056 675.68C94.485 675.888 94.8245 676.179 95.0745 676.554C95.3245 676.929 95.4623 677.369 95.4878 677.875H93.7748C93.7265 677.548 93.5986 677.286 93.3912 677.087C93.1867 676.885 92.9182 676.784 92.5858 676.784C92.3046 676.784 92.0588 676.861 91.8486 677.014C91.6412 677.165 91.4793 677.385 91.3628 677.675C91.2463 677.964 91.1881 678.315 91.1881 678.727C91.1881 679.145 91.2449 679.5 91.3586 679.793C91.475 680.085 91.6384 680.308 91.8486 680.462C92.0588 680.615 92.3046 680.692 92.5858 680.692C92.7932 680.692 92.9793 680.649 93.1441 680.564C93.3117 680.479 93.4495 680.355 93.5574 680.193C93.6682 680.028 93.7407 679.831 93.7748 679.601H95.4878C95.4594 680.101 95.3231 680.541 95.0787 680.922C94.8373 681.3 94.5034 681.595 94.0773 681.808C93.6512 682.021 93.1469 682.128 92.5645 682.128ZM100.848 679.213V675.455H102.663V682H100.92V680.811H100.852C100.704 681.195 100.458 681.503 100.115 681.736C99.7737 681.969 99.3575 682.085 98.866 682.085C98.4285 682.085 98.0436 681.986 97.7112 681.787C97.3788 681.588 97.1189 681.305 96.9314 680.939C96.7467 680.572 96.653 680.134 96.6501 679.622V675.455H98.4655V679.298C98.4683 679.685 98.572 679.99 98.7765 680.214C98.9811 680.439 99.2552 680.551 99.599 680.551C99.8177 680.551 100.022 680.501 100.213 680.402C100.403 680.3 100.556 680.149 100.673 679.95C100.792 679.751 100.85 679.506 100.848 679.213ZM105.93 673.273V682H104.115V673.273H105.93ZM109.251 682.124C108.833 682.124 108.461 682.051 108.134 681.906C107.808 681.759 107.549 681.541 107.359 681.254C107.171 680.964 107.078 680.604 107.078 680.172C107.078 679.808 107.144 679.503 107.278 679.256C107.411 679.009 107.593 678.81 107.823 678.659C108.054 678.509 108.315 678.395 108.607 678.318C108.903 678.241 109.213 678.188 109.536 678.156C109.917 678.116 110.224 678.08 110.457 678.045C110.69 678.009 110.859 677.955 110.964 677.884C111.069 677.812 111.122 677.707 111.122 677.568V677.543C111.122 677.273 111.036 677.064 110.866 676.916C110.698 676.768 110.46 676.695 110.15 676.695C109.823 676.695 109.563 676.767 109.37 676.912C109.177 677.054 109.049 677.233 108.987 677.449L107.308 677.312C107.393 676.915 107.561 676.571 107.811 676.281C108.061 675.989 108.383 675.764 108.778 675.608C109.176 675.449 109.636 675.369 110.159 675.369C110.522 675.369 110.87 675.412 111.203 675.497C111.538 675.582 111.835 675.714 112.093 675.893C112.355 676.072 112.561 676.303 112.711 676.584C112.862 676.862 112.937 677.196 112.937 677.585V682H111.215V681.092H111.164C111.059 681.297 110.919 681.477 110.742 681.634C110.566 681.787 110.355 681.908 110.107 681.996C109.86 682.081 109.575 682.124 109.251 682.124ZM109.771 680.871C110.038 680.871 110.274 680.818 110.478 680.713C110.683 680.605 110.843 680.46 110.96 680.278C111.076 680.097 111.134 679.891 111.134 679.661V678.966C111.078 679.003 111 679.037 110.9 679.068C110.804 679.097 110.694 679.124 110.572 679.149C110.45 679.172 110.328 679.193 110.206 679.213C110.083 679.23 109.973 679.246 109.873 679.26C109.66 679.291 109.474 679.341 109.315 679.409C109.156 679.477 109.032 679.57 108.944 679.686C108.856 679.8 108.812 679.942 108.812 680.112C108.812 680.359 108.902 680.548 109.081 680.679C109.262 680.807 109.492 680.871 109.771 680.871ZM114.345 682V675.455H116.105V676.597H116.174C116.293 676.19 116.493 675.884 116.774 675.676C117.056 675.466 117.38 675.361 117.746 675.361C117.837 675.361 117.935 675.366 118.04 675.378C118.145 675.389 118.237 675.405 118.317 675.425V677.036C118.232 677.01 118.114 676.987 117.963 676.967C117.813 676.947 117.675 676.938 117.55 676.938C117.283 676.938 117.044 676.996 116.834 677.112C116.627 677.226 116.462 677.385 116.34 677.589C116.22 677.794 116.161 678.03 116.161 678.297V682H114.345Z" fill="white"/>
<rect x="179" y="650" width="146" height="55" rx="15" fill="#285DFC"/>
<path d="M221.413 674H219.436L222.449 665.273H224.826L227.835 674H225.858L223.672 667.267H223.603L221.413 674ZM221.289 670.57H225.96V672.01H221.289V670.57ZM228.851 676.455V667.455H230.641V668.554H230.722C230.802 668.378 230.917 668.199 231.067 668.017C231.221 667.832 231.419 667.679 231.664 667.557C231.911 667.432 232.218 667.369 232.584 667.369C233.062 667.369 233.502 667.494 233.905 667.744C234.309 667.991 234.631 668.365 234.873 668.865C235.114 669.362 235.235 669.986 235.235 670.736C235.235 671.466 235.117 672.082 234.881 672.585C234.648 673.085 234.33 673.464 233.927 673.723C233.526 673.979 233.077 674.107 232.58 674.107C232.228 674.107 231.928 674.048 231.681 673.932C231.437 673.815 231.236 673.669 231.08 673.493C230.924 673.314 230.804 673.134 230.722 672.952H230.667V676.455H228.851ZM230.628 670.727C230.628 671.116 230.682 671.456 230.79 671.746C230.898 672.036 231.054 672.261 231.259 672.423C231.463 672.582 231.712 672.662 232.005 672.662C232.3 672.662 232.55 672.581 232.755 672.419C232.959 672.254 233.114 672.027 233.219 671.737C233.327 671.445 233.381 671.108 233.381 670.727C233.381 670.349 233.329 670.017 233.223 669.73C233.118 669.443 232.963 669.219 232.759 669.057C232.554 668.895 232.303 668.814 232.005 668.814C231.709 668.814 231.459 668.892 231.255 669.048C231.053 669.205 230.898 669.426 230.79 669.713C230.682 670 230.628 670.338 230.628 670.727ZM238.26 665.273V674H236.445V665.273H238.26ZM239.715 674V667.455H241.53V674H239.715ZM240.626 666.611C240.357 666.611 240.125 666.521 239.932 666.342C239.742 666.161 239.646 665.943 239.646 665.69C239.646 665.44 239.742 665.226 239.932 665.047C240.125 664.865 240.357 664.774 240.626 664.774C240.896 664.774 241.126 664.865 241.317 665.047C241.51 665.226 241.607 665.44 241.607 665.69C241.607 665.943 241.51 666.161 241.317 666.342C241.126 666.521 240.896 666.611 240.626 666.611ZM245.941 674.128C245.271 674.128 244.694 673.986 244.211 673.702C243.731 673.415 243.362 673.017 243.103 672.509C242.848 672 242.72 671.415 242.72 670.753C242.72 670.082 242.849 669.494 243.108 668.989C243.369 668.48 243.74 668.084 244.22 667.8C244.7 667.513 245.271 667.369 245.933 667.369C246.504 667.369 247.004 667.473 247.433 667.68C247.862 667.888 248.201 668.179 248.451 668.554C248.701 668.929 248.839 669.369 248.865 669.875H247.152C247.103 669.548 246.976 669.286 246.768 669.087C246.564 668.885 246.295 668.784 245.963 668.784C245.682 668.784 245.436 668.861 245.226 669.014C245.018 669.165 244.856 669.385 244.74 669.675C244.623 669.964 244.565 670.315 244.565 670.727C244.565 671.145 244.622 671.5 244.736 671.793C244.852 672.085 245.015 672.308 245.226 672.462C245.436 672.615 245.682 672.692 245.963 672.692C246.17 672.692 246.356 672.649 246.521 672.564C246.689 672.479 246.826 672.355 246.934 672.193C247.045 672.028 247.118 671.831 247.152 671.601H248.865C248.836 672.101 248.7 672.541 248.456 672.922C248.214 673.3 247.88 673.595 247.454 673.808C247.028 674.021 246.524 674.128 245.941 674.128ZM251.894 674.124C251.476 674.124 251.104 674.051 250.777 673.906C250.45 673.759 250.192 673.541 250.001 673.254C249.814 672.964 249.72 672.604 249.72 672.172C249.72 671.808 249.787 671.503 249.921 671.256C250.054 671.009 250.236 670.81 250.466 670.659C250.696 670.509 250.957 670.395 251.25 670.318C251.546 670.241 251.855 670.188 252.179 670.156C252.56 670.116 252.867 670.08 253.1 670.045C253.332 670.009 253.501 669.955 253.607 669.884C253.712 669.812 253.764 669.707 253.764 669.568V669.543C253.764 669.273 253.679 669.064 253.509 668.916C253.341 668.768 253.102 668.695 252.793 668.695C252.466 668.695 252.206 668.767 252.013 668.912C251.82 669.054 251.692 669.233 251.629 669.449L249.95 669.312C250.036 668.915 250.203 668.571 250.453 668.281C250.703 667.989 251.026 667.764 251.421 667.608C251.818 667.449 252.278 667.369 252.801 667.369C253.165 667.369 253.513 667.412 253.845 667.497C254.18 667.582 254.477 667.714 254.736 667.893C254.997 668.072 255.203 668.303 255.354 668.584C255.504 668.862 255.58 669.196 255.58 669.585V674H253.858V673.092H253.807C253.702 673.297 253.561 673.477 253.385 673.634C253.209 673.787 252.997 673.908 252.75 673.996C252.503 674.081 252.217 674.124 251.894 674.124ZM252.413 672.871C252.68 672.871 252.916 672.818 253.121 672.713C253.325 672.605 253.486 672.46 253.602 672.278C253.719 672.097 253.777 671.891 253.777 671.661V670.966C253.72 671.003 253.642 671.037 253.543 671.068C253.446 671.097 253.337 671.124 253.215 671.149C253.092 671.172 252.97 671.193 252.848 671.213C252.726 671.23 252.615 671.246 252.516 671.26C252.303 671.291 252.117 671.341 251.957 671.409C251.798 671.477 251.675 671.57 251.587 671.686C251.499 671.8 251.455 671.942 251.455 672.112C251.455 672.359 251.544 672.548 251.723 672.679C251.905 672.807 252.135 672.871 252.413 672.871ZM256.988 674V667.455H258.748V668.597H258.816C258.935 668.19 259.136 667.884 259.417 667.676C259.698 667.466 260.022 667.361 260.389 667.361C260.479 667.361 260.577 667.366 260.683 667.378C260.788 667.389 260.88 667.405 260.96 667.425V669.036C260.874 669.01 260.756 668.987 260.606 668.967C260.455 668.947 260.318 668.938 260.193 668.938C259.926 668.938 259.687 668.996 259.477 669.112C259.269 669.226 259.104 669.385 258.982 669.589C258.863 669.794 258.803 670.03 258.803 670.297V674H256.988ZM266.542 674.124C266.124 674.124 265.752 674.051 265.426 673.906C265.099 673.759 264.84 673.541 264.65 673.254C264.462 672.964 264.369 672.604 264.369 672.172C264.369 671.808 264.435 671.503 264.569 671.256C264.702 671.009 264.884 670.81 265.114 670.659C265.345 670.509 265.606 670.395 265.899 670.318C266.194 670.241 266.504 670.188 266.827 670.156C267.208 670.116 267.515 670.08 267.748 670.045C267.981 670.009 268.15 669.955 268.255 669.884C268.36 669.812 268.413 669.707 268.413 669.568V669.543C268.413 669.273 268.327 669.064 268.157 668.916C267.989 668.768 267.751 668.695 267.441 668.695C267.114 668.695 266.854 668.767 266.661 668.912C266.468 669.054 266.34 669.233 266.278 669.449L264.599 669.312C264.684 668.915 264.852 668.571 265.102 668.281C265.352 667.989 265.674 667.764 266.069 667.608C266.467 667.449 266.927 667.369 267.45 667.369C267.813 667.369 268.161 667.412 268.494 667.497C268.829 667.582 269.126 667.714 269.384 667.893C269.646 668.072 269.852 668.303 270.002 668.584C270.153 668.862 270.228 669.196 270.228 669.585V674H268.506V673.092H268.455C268.35 673.297 268.21 673.477 268.033 673.634C267.857 673.787 267.646 673.908 267.399 673.996C267.151 674.081 266.866 674.124 266.542 674.124ZM267.062 672.871C267.329 672.871 267.565 672.818 267.769 672.713C267.974 672.605 268.134 672.46 268.251 672.278C268.367 672.097 268.426 671.891 268.426 671.661V670.966C268.369 671.003 268.291 671.037 268.191 671.068C268.095 671.097 267.985 671.124 267.863 671.149C267.741 671.172 267.619 671.193 267.497 671.213C267.374 671.23 267.264 671.246 267.164 671.26C266.951 671.291 266.765 671.341 266.606 671.409C266.447 671.477 266.323 671.57 266.235 671.686C266.147 671.8 266.103 671.942 266.103 672.112C266.103 672.359 266.193 672.548 266.372 672.679C266.553 672.807 266.783 672.871 267.062 672.871ZM274.594 674.128C273.932 674.128 273.359 673.987 272.876 673.706C272.396 673.422 272.026 673.027 271.764 672.521C271.503 672.013 271.372 671.423 271.372 670.753C271.372 670.077 271.503 669.486 271.764 668.98C272.026 668.472 272.396 668.077 272.876 667.795C273.359 667.511 273.932 667.369 274.594 667.369C275.256 667.369 275.827 667.511 276.307 667.795C276.79 668.077 277.162 668.472 277.423 668.98C277.685 669.486 277.815 670.077 277.815 670.753C277.815 671.423 277.685 672.013 277.423 672.521C277.162 673.027 276.79 673.422 276.307 673.706C275.827 673.987 275.256 674.128 274.594 674.128ZM274.602 672.722C274.903 672.722 275.155 672.636 275.357 672.466C275.558 672.293 275.71 672.057 275.813 671.759C275.918 671.46 275.97 671.121 275.97 670.74C275.97 670.359 275.918 670.02 275.813 669.722C275.71 669.423 275.558 669.187 275.357 669.014C275.155 668.841 274.903 668.754 274.602 668.754C274.298 668.754 274.043 668.841 273.835 669.014C273.631 669.187 273.476 669.423 273.371 669.722C273.269 670.02 273.217 670.359 273.217 670.74C273.217 671.121 273.269 671.46 273.371 671.759C273.476 672.057 273.631 672.293 273.835 672.466C274.043 672.636 274.298 672.722 274.602 672.722ZM284.442 669.321L282.78 669.423C282.751 669.281 282.69 669.153 282.597 669.04C282.503 668.923 282.379 668.831 282.226 668.763C282.075 668.692 281.895 668.656 281.685 668.656C281.403 668.656 281.166 668.716 280.973 668.835C280.78 668.952 280.683 669.108 280.683 669.304C280.683 669.46 280.746 669.592 280.871 669.7C280.996 669.808 281.21 669.895 281.514 669.96L282.699 670.199C283.335 670.33 283.81 670.54 284.122 670.83C284.435 671.119 284.591 671.5 284.591 671.972C284.591 672.401 284.465 672.777 284.212 673.101C283.962 673.425 283.618 673.678 283.18 673.859C282.746 674.038 282.244 674.128 281.676 674.128C280.81 674.128 280.119 673.947 279.605 673.587C279.094 673.223 278.794 672.729 278.706 672.104L280.492 672.01C280.546 672.274 280.676 672.476 280.884 672.615C281.091 672.751 281.357 672.82 281.68 672.82C281.999 672.82 282.254 672.759 282.448 672.636C282.644 672.511 282.743 672.351 282.746 672.155C282.743 671.99 282.673 671.855 282.537 671.75C282.401 671.642 282.19 671.56 281.906 671.503L280.773 671.277C280.134 671.149 279.658 670.928 279.345 670.612C279.036 670.297 278.881 669.895 278.881 669.406C278.881 668.986 278.994 668.624 279.222 668.32C279.452 668.016 279.774 667.781 280.189 667.616C280.607 667.452 281.095 667.369 281.655 667.369C282.482 667.369 283.132 667.544 283.607 667.893C284.084 668.243 284.362 668.719 284.442 669.321ZM226.906 689V682.455H228.636V683.609H228.713C228.849 683.226 229.076 682.923 229.395 682.702C229.713 682.48 230.093 682.369 230.537 682.369C230.986 682.369 231.368 682.482 231.683 682.706C231.998 682.928 232.209 683.229 232.314 683.609H232.382C232.515 683.234 232.757 682.935 233.106 682.71C233.459 682.483 233.875 682.369 234.355 682.369C234.966 682.369 235.461 682.564 235.842 682.953C236.226 683.339 236.417 683.888 236.417 684.598V689H234.606V684.956C234.606 684.592 234.51 684.32 234.316 684.138C234.123 683.956 233.882 683.865 233.592 683.865C233.263 683.865 233.005 683.97 232.821 684.18C232.636 684.388 232.544 684.662 232.544 685.003V689H230.784V684.918C230.784 684.597 230.691 684.341 230.507 684.151C230.325 683.96 230.085 683.865 229.787 683.865C229.585 683.865 229.403 683.916 229.241 684.018C229.082 684.118 228.956 684.259 228.862 684.44C228.768 684.619 228.721 684.83 228.721 685.071V689H226.906ZM240.834 689.128C240.161 689.128 239.581 688.991 239.096 688.719C238.613 688.443 238.24 688.054 237.979 687.551C237.718 687.045 237.587 686.447 237.587 685.757C237.587 685.084 237.718 684.493 237.979 683.984C238.24 683.476 238.608 683.08 239.083 682.795C239.56 682.511 240.12 682.369 240.762 682.369C241.194 682.369 241.596 682.439 241.968 682.578C242.343 682.714 242.669 682.92 242.948 683.196C243.229 683.472 243.448 683.818 243.604 684.236C243.76 684.651 243.838 685.136 243.838 685.693V686.192H238.312V685.067H242.13C242.13 684.805 242.073 684.574 241.959 684.372C241.846 684.17 241.688 684.013 241.486 683.899C241.287 683.783 241.056 683.724 240.792 683.724C240.516 683.724 240.272 683.788 240.059 683.916C239.848 684.041 239.684 684.21 239.564 684.423C239.445 684.634 239.384 684.868 239.381 685.126V686.196C239.381 686.52 239.441 686.8 239.56 687.036C239.682 687.271 239.854 687.453 240.076 687.581C240.297 687.709 240.56 687.773 240.864 687.773C241.066 687.773 241.25 687.744 241.418 687.688C241.586 687.631 241.729 687.545 241.848 687.432C241.968 687.318 242.059 687.179 242.121 687.014L243.8 687.125C243.715 687.528 243.54 687.881 243.276 688.182C243.015 688.48 242.677 688.713 242.262 688.881C241.85 689.045 241.374 689.128 240.834 689.128ZM240.067 681.611L240.971 679.672H242.65L241.35 681.611H240.067ZM248.505 682.455V683.818H244.563V682.455H248.505ZM245.458 680.886H247.273V686.989C247.273 687.156 247.299 687.287 247.35 687.381C247.401 687.472 247.472 687.536 247.563 687.572C247.657 687.609 247.765 687.628 247.887 687.628C247.972 687.628 248.057 687.621 248.142 687.607C248.228 687.589 248.293 687.577 248.338 687.568L248.624 688.919C248.533 688.947 248.405 688.98 248.24 689.017C248.076 689.057 247.875 689.081 247.64 689.089C247.202 689.107 246.819 689.048 246.489 688.915C246.162 688.781 245.908 688.574 245.726 688.293C245.544 688.011 245.455 687.656 245.458 687.227V680.886ZM252.574 689.128C251.912 689.128 251.34 688.987 250.857 688.706C250.377 688.422 250.006 688.027 249.745 687.521C249.483 687.013 249.353 686.423 249.353 685.753C249.353 685.077 249.483 684.486 249.745 683.98C250.006 683.472 250.377 683.077 250.857 682.795C251.34 682.511 251.912 682.369 252.574 682.369C253.236 682.369 253.807 682.511 254.287 682.795C254.77 683.077 255.142 683.472 255.404 683.98C255.665 684.486 255.796 685.077 255.796 685.753C255.796 686.423 255.665 687.013 255.404 687.521C255.142 688.027 254.77 688.422 254.287 688.706C253.807 688.987 253.236 689.128 252.574 689.128ZM252.583 687.722C252.884 687.722 253.135 687.636 253.337 687.466C253.539 687.293 253.691 687.057 253.793 686.759C253.898 686.46 253.951 686.121 253.951 685.74C253.951 685.359 253.898 685.02 253.793 684.722C253.691 684.423 253.539 684.187 253.337 684.014C253.135 683.841 252.884 683.754 252.583 683.754C252.279 683.754 252.023 683.841 251.816 684.014C251.611 684.187 251.456 684.423 251.351 684.722C251.249 685.02 251.198 685.359 251.198 685.74C251.198 686.121 251.249 686.46 251.351 686.759C251.456 687.057 251.611 687.293 251.816 687.466C252.023 687.636 252.279 687.722 252.583 687.722ZM259.388 689.107C258.891 689.107 258.441 688.979 258.037 688.723C257.637 688.464 257.319 688.085 257.083 687.585C256.85 687.082 256.733 686.466 256.733 685.736C256.733 684.986 256.854 684.362 257.096 683.865C257.337 683.365 257.658 682.991 258.059 682.744C258.462 682.494 258.904 682.369 259.384 682.369C259.75 682.369 260.056 682.432 260.3 682.557C260.547 682.679 260.746 682.832 260.897 683.017C261.05 683.199 261.167 683.378 261.246 683.554H261.302V680.273H263.113V689H261.323V687.952H261.246C261.161 688.134 261.04 688.314 260.884 688.493C260.731 688.669 260.53 688.815 260.283 688.932C260.039 689.048 259.74 689.107 259.388 689.107ZM259.963 687.662C260.256 687.662 260.503 687.582 260.705 687.423C260.91 687.261 261.066 687.036 261.174 686.746C261.285 686.456 261.34 686.116 261.34 685.727C261.34 685.338 261.286 685 261.178 684.713C261.07 684.426 260.914 684.205 260.709 684.048C260.505 683.892 260.256 683.814 259.963 683.814C259.665 683.814 259.414 683.895 259.209 684.057C259.005 684.219 258.85 684.443 258.745 684.73C258.64 685.017 258.587 685.349 258.587 685.727C258.587 686.108 258.64 686.445 258.745 686.737C258.853 687.027 259.008 687.254 259.209 687.419C259.414 687.581 259.665 687.662 259.963 687.662ZM267.563 689.128C266.901 689.128 266.328 688.987 265.845 688.706C265.365 688.422 264.994 688.027 264.733 687.521C264.472 687.013 264.341 686.423 264.341 685.753C264.341 685.077 264.472 684.486 264.733 683.98C264.994 683.472 265.365 683.077 265.845 682.795C266.328 682.511 266.901 682.369 267.563 682.369C268.225 682.369 268.796 682.511 269.276 682.795C269.759 683.077 270.131 683.472 270.392 683.98C270.653 684.486 270.784 685.077 270.784 685.753C270.784 686.423 270.653 687.013 270.392 687.521C270.131 688.027 269.759 688.422 269.276 688.706C268.796 688.987 268.225 689.128 267.563 689.128ZM267.571 687.722C267.872 687.722 268.124 687.636 268.325 687.466C268.527 687.293 268.679 687.057 268.781 686.759C268.886 686.46 268.939 686.121 268.939 685.74C268.939 685.359 268.886 685.02 268.781 684.722C268.679 684.423 268.527 684.187 268.325 684.014C268.124 683.841 267.872 683.754 267.571 683.754C267.267 683.754 267.011 683.841 266.804 684.014C266.6 684.187 266.445 684.423 266.34 684.722C266.237 685.02 266.186 685.359 266.186 685.74C266.186 686.121 266.237 686.46 266.34 686.759C266.445 687.057 266.6 687.293 266.804 687.466C267.011 687.636 267.267 687.722 267.571 687.722ZM277.411 684.321L275.749 684.423C275.72 684.281 275.659 684.153 275.565 684.04C275.472 683.923 275.348 683.831 275.195 683.763C275.044 683.692 274.864 683.656 274.653 683.656C274.372 683.656 274.135 683.716 273.942 683.835C273.749 683.952 273.652 684.108 273.652 684.304C273.652 684.46 273.715 684.592 273.84 684.7C273.965 684.808 274.179 684.895 274.483 684.96L275.668 685.199C276.304 685.33 276.778 685.54 277.091 685.83C277.403 686.119 277.56 686.5 277.56 686.972C277.56 687.401 277.433 687.777 277.18 688.101C276.93 688.425 276.587 688.678 276.149 688.859C275.715 689.038 275.213 689.128 274.645 689.128C273.778 689.128 273.088 688.947 272.574 688.587C272.063 688.223 271.763 687.729 271.675 687.104L273.46 687.01C273.514 687.274 273.645 687.476 273.852 687.615C274.06 687.751 274.325 687.82 274.649 687.82C274.967 687.82 275.223 687.759 275.416 687.636C275.612 687.511 275.712 687.351 275.715 687.155C275.712 686.99 275.642 686.855 275.506 686.75C275.369 686.642 275.159 686.56 274.875 686.503L273.742 686.277C273.102 686.149 272.626 685.928 272.314 685.612C272.004 685.297 271.85 684.895 271.85 684.406C271.85 683.986 271.963 683.624 272.19 683.32C272.421 683.016 272.743 682.781 273.158 682.616C273.575 682.452 274.064 682.369 274.624 682.369C275.45 682.369 276.101 682.544 276.575 682.893C277.053 683.243 277.331 683.719 277.411 684.321Z" fill="white"/>
<path d="M13.3295 245V242.81L22.0398 230.588H13.3125V227.545H26.6761V229.736L17.9574 241.957H26.6932V245H13.3295ZM35.4226 245.256C34.076 245.256 32.9169 244.983 31.9453 244.438C30.9794 243.886 30.2351 243.108 29.7124 242.102C29.1896 241.091 28.9283 239.895 28.9283 238.514C28.9283 237.168 29.1896 235.986 29.7124 234.969C30.2351 233.952 30.9709 233.159 31.9197 232.591C32.8743 232.023 33.9936 231.739 35.2777 231.739C36.1413 231.739 36.9453 231.878 37.6896 232.156C38.4396 232.429 39.093 232.841 39.6499 233.392C40.2124 233.943 40.6499 234.636 40.9624 235.472C41.2749 236.301 41.4311 237.273 41.4311 238.386V239.384H30.3771V237.134H38.0135C38.0135 236.611 37.8999 236.148 37.6726 235.744C37.4453 235.341 37.13 235.026 36.7266 234.798C36.3288 234.565 35.8658 234.449 35.3374 234.449C34.7862 234.449 34.2976 234.577 33.8714 234.832C33.451 235.082 33.1214 235.42 32.8828 235.847C32.6442 236.267 32.522 236.736 32.5163 237.253V239.392C32.5163 240.04 32.6357 240.599 32.8743 241.071C33.1186 241.543 33.4624 241.906 33.9055 242.162C34.3487 242.418 34.8743 242.545 35.4822 242.545C35.8857 242.545 36.255 242.489 36.5902 242.375C36.9254 242.261 37.2124 242.091 37.451 241.864C37.6896 241.636 37.8714 241.358 37.9964 241.028L41.3544 241.25C41.1839 242.057 40.8345 242.761 40.3061 243.364C39.7834 243.96 39.1072 244.426 38.2777 244.761C37.4538 245.091 36.5021 245.256 35.4226 245.256ZM43.8004 245V231.909H47.3203V234.193H47.4567C47.6953 233.381 48.0959 232.767 48.6584 232.352C49.2209 231.932 49.8686 231.722 50.6016 231.722C50.7834 231.722 50.9794 231.733 51.1896 231.756C51.3999 231.778 51.5845 231.81 51.7436 231.849V235.071C51.5732 235.02 51.3374 234.974 51.0362 234.935C50.7351 234.895 50.4595 234.875 50.2095 234.875C49.6754 234.875 49.1982 234.991 48.7777 235.224C48.3629 235.452 48.0334 235.77 47.7891 236.179C47.5504 236.588 47.4311 237.06 47.4311 237.594V245H43.8004ZM58.9261 245.256C57.6023 245.256 56.4574 244.974 55.4915 244.412C54.5313 243.844 53.7898 243.054 53.267 242.043C52.7443 241.026 52.483 239.847 52.483 238.506C52.483 237.153 52.7443 235.972 53.267 234.96C53.7898 233.943 54.5313 233.153 55.4915 232.591C56.4574 232.023 57.6023 231.739 58.9261 231.739C60.25 231.739 61.392 232.023 62.3523 232.591C63.3182 233.153 64.0625 233.943 64.5852 234.96C65.108 235.972 65.3693 237.153 65.3693 238.506C65.3693 239.847 65.108 241.026 64.5852 242.043C64.0625 243.054 63.3182 243.844 62.3523 244.412C61.392 244.974 60.25 245.256 58.9261 245.256ZM58.9432 242.443C59.5455 242.443 60.0483 242.273 60.4517 241.932C60.8551 241.585 61.1591 241.114 61.3636 240.517C61.5739 239.92 61.679 239.241 61.679 238.48C61.679 237.719 61.5739 237.04 61.3636 236.443C61.1591 235.847 60.8551 235.375 60.4517 235.028C60.0483 234.682 59.5455 234.509 58.9432 234.509C58.3352 234.509 57.8239 234.682 57.4091 235.028C57 235.375 56.6903 235.847 56.4801 236.443C56.2756 237.04 56.1733 237.719 56.1733 238.48C56.1733 239.241 56.2756 239.92 56.4801 240.517C56.6903 241.114 57 241.585 57.4091 241.932C57.8239 242.273 58.3352 242.443 58.9432 242.443ZM78.1087 245.213C77.1143 245.213 76.2138 244.957 75.407 244.446C74.6058 243.929 73.9695 243.17 73.4979 242.17C73.032 241.165 72.799 239.932 72.799 238.472C72.799 236.972 73.0405 235.724 73.5234 234.73C74.0064 233.73 74.6484 232.983 75.4496 232.489C76.2564 231.989 77.1399 231.739 78.1001 231.739C78.8331 231.739 79.4439 231.864 79.9325 232.114C80.4268 232.358 80.8246 232.665 81.1257 233.034C81.4325 233.398 81.6655 233.756 81.8246 234.108H81.9354V227.545H85.5575V245H81.978V242.903H81.8246C81.6541 243.267 81.4126 243.628 81.1001 243.986C80.7933 244.338 80.3928 244.631 79.8984 244.864C79.4098 245.097 78.8132 245.213 78.1087 245.213ZM79.2592 242.324C79.8445 242.324 80.3388 242.165 80.7422 241.847C81.1513 241.523 81.4638 241.071 81.6797 240.491C81.9013 239.912 82.0121 239.233 82.0121 238.455C82.0121 237.676 81.9041 237 81.6882 236.426C81.4723 235.852 81.1598 235.409 80.7507 235.097C80.3416 234.784 79.8445 234.628 79.2592 234.628C78.6626 234.628 78.1598 234.79 77.7507 235.114C77.3416 235.437 77.032 235.886 76.8217 236.46C76.6115 237.034 76.5064 237.699 76.5064 238.455C76.5064 239.216 76.6115 239.889 76.8217 240.474C77.0376 241.054 77.3473 241.509 77.7507 241.838C78.1598 242.162 78.6626 242.324 79.2592 242.324ZM94.5085 245.256C93.1619 245.256 92.0028 244.983 91.0312 244.438C90.0653 243.886 89.321 243.108 88.7983 242.102C88.2756 241.091 88.0142 239.895 88.0142 238.514C88.0142 237.168 88.2756 235.986 88.7983 234.969C89.321 233.952 90.0568 233.159 91.0057 232.591C91.9602 232.023 93.0795 231.739 94.3636 231.739C95.2273 231.739 96.0313 231.878 96.7756 232.156C97.5256 232.429 98.179 232.841 98.7358 233.392C99.2983 233.943 99.7358 234.636 100.048 235.472C100.361 236.301 100.517 237.273 100.517 238.386V239.384H89.4631V237.134H97.0994C97.0994 236.611 96.9858 236.148 96.7585 235.744C96.5313 235.341 96.2159 235.026 95.8125 234.798C95.4148 234.565 94.9517 234.449 94.4233 234.449C93.8722 234.449 93.3835 234.577 92.9574 234.832C92.5369 235.082 92.2074 235.42 91.9688 235.847C91.7301 236.267 91.608 236.736 91.6023 237.253V239.392C91.6023 240.04 91.7216 240.599 91.9602 241.071C92.2045 241.543 92.5483 241.906 92.9915 242.162C93.4347 242.418 93.9602 242.545 94.5682 242.545C94.9716 242.545 95.3409 242.489 95.6761 242.375C96.0114 242.261 96.2983 242.091 96.5369 241.864C96.7756 241.636 96.9574 241.358 97.0824 241.028L100.44 241.25C100.27 242.057 99.9205 242.761 99.392 243.364C98.8693 243.96 98.1932 244.426 97.3636 244.761C96.5398 245.091 95.5881 245.256 94.5085 245.256ZM108.509 245V227.545H120.066V230.588H112.2V234.747H119.299V237.79H112.2V245H108.509ZM130.055 239.426V231.909H133.685V245H130.2V242.622H130.063C129.768 243.389 129.276 244.006 128.589 244.472C127.907 244.937 127.075 245.17 126.092 245.17C125.217 245.17 124.447 244.972 123.782 244.574C123.117 244.176 122.597 243.611 122.222 242.878C121.853 242.145 121.665 241.267 121.66 240.244V231.909H125.29V239.597C125.296 240.369 125.504 240.98 125.913 241.429C126.322 241.878 126.87 242.102 127.558 242.102C127.995 242.102 128.404 242.003 128.785 241.804C129.165 241.599 129.472 241.298 129.705 240.901C129.944 240.503 130.06 240.011 130.055 239.426ZM140.22 237.432V245H136.589V231.909H140.05V234.219H140.203C140.493 233.457 140.979 232.855 141.661 232.412C142.342 231.963 143.169 231.739 144.141 231.739C145.05 231.739 145.842 231.938 146.518 232.335C147.195 232.733 147.72 233.301 148.095 234.04C148.47 234.773 148.658 235.648 148.658 236.665V245H145.027V237.312C145.033 236.511 144.828 235.886 144.413 235.438C143.999 234.983 143.428 234.756 142.7 234.756C142.212 234.756 141.78 234.861 141.405 235.071C141.036 235.281 140.746 235.588 140.536 235.991C140.331 236.389 140.226 236.869 140.22 237.432ZM157.434 245.256C156.093 245.256 154.94 244.972 153.974 244.403C153.013 243.83 152.275 243.034 151.758 242.017C151.246 241 150.991 239.83 150.991 238.506C150.991 237.165 151.249 235.989 151.766 234.977C152.289 233.96 153.031 233.168 153.991 232.599C154.951 232.026 156.093 231.739 157.417 231.739C158.559 231.739 159.559 231.946 160.417 232.361C161.275 232.776 161.954 233.358 162.454 234.108C162.954 234.858 163.229 235.739 163.281 236.75H159.854C159.758 236.097 159.502 235.571 159.087 235.173C158.678 234.77 158.141 234.568 157.477 234.568C156.914 234.568 156.423 234.722 156.002 235.028C155.587 235.33 155.263 235.77 155.031 236.349C154.798 236.929 154.681 237.631 154.681 238.455C154.681 239.29 154.795 240 155.022 240.585C155.255 241.17 155.582 241.616 156.002 241.923C156.423 242.23 156.914 242.384 157.477 242.384C157.891 242.384 158.263 242.298 158.593 242.128C158.928 241.957 159.204 241.71 159.42 241.386C159.641 241.057 159.786 240.662 159.854 240.202H163.281C163.224 241.202 162.951 242.082 162.462 242.844C161.979 243.599 161.312 244.19 160.46 244.616C159.607 245.043 158.599 245.256 157.434 245.256ZM156.582 244.932H158.252L158.116 245.673C158.701 245.764 159.178 245.983 159.548 246.33C159.923 246.676 160.113 247.148 160.119 247.744C160.124 248.591 159.732 249.264 158.942 249.764C158.153 250.27 157.045 250.523 155.619 250.523L155.585 248.903C156.3 248.903 156.86 248.815 157.263 248.639C157.673 248.469 157.886 248.202 157.903 247.838C157.914 247.491 157.781 247.227 157.502 247.045C157.224 246.864 156.789 246.736 156.198 246.662L156.582 244.932ZM171.52 245.256C170.196 245.256 169.051 244.974 168.085 244.412C167.125 243.844 166.384 243.054 165.861 242.043C165.338 241.026 165.077 239.847 165.077 238.506C165.077 237.153 165.338 235.972 165.861 234.96C166.384 233.943 167.125 233.153 168.085 232.591C169.051 232.023 170.196 231.739 171.52 231.739C172.844 231.739 173.986 232.023 174.946 232.591C175.912 233.153 176.656 233.943 177.179 234.96C177.702 235.972 177.963 237.153 177.963 238.506C177.963 239.847 177.702 241.026 177.179 242.043C176.656 243.054 175.912 243.844 174.946 244.412C173.986 244.974 172.844 245.256 171.52 245.256ZM171.537 242.443C172.139 242.443 172.642 242.273 173.045 241.932C173.449 241.585 173.753 241.114 173.957 240.517C174.168 239.92 174.273 239.241 174.273 238.48C174.273 237.719 174.168 237.04 173.957 236.443C173.753 235.847 173.449 235.375 173.045 235.028C172.642 234.682 172.139 234.509 171.537 234.509C170.929 234.509 170.418 234.682 170.003 235.028C169.594 235.375 169.284 235.847 169.074 236.443C168.869 237.04 168.767 237.719 168.767 238.48C168.767 239.241 168.869 239.92 169.074 240.517C169.284 241.114 169.594 241.585 170.003 241.932C170.418 242.273 170.929 242.443 171.537 242.443ZM169.082 230.298L167.062 230.273C167.062 229.188 167.33 228.355 167.864 227.776C168.403 227.196 169.06 226.903 169.832 226.898C170.23 226.898 170.571 226.963 170.855 227.094C171.145 227.219 171.403 227.366 171.631 227.537C171.864 227.707 172.085 227.858 172.295 227.989C172.506 228.114 172.733 228.176 172.977 228.176C173.307 228.17 173.557 228.048 173.727 227.81C173.903 227.565 173.991 227.247 173.991 226.855L175.977 226.915C175.966 227.989 175.693 228.818 175.159 229.403C174.625 229.983 173.974 230.276 173.207 230.281C172.781 230.281 172.423 230.219 172.134 230.094C171.849 229.963 171.599 229.815 171.384 229.651C171.168 229.48 170.957 229.33 170.753 229.199C170.548 229.068 170.318 229.003 170.062 229.003C169.767 229.003 169.528 229.119 169.347 229.352C169.17 229.585 169.082 229.901 169.082 230.298ZM186.29 245.256C184.943 245.256 183.784 244.983 182.812 244.438C181.847 243.886 181.102 243.108 180.58 242.102C180.057 241.091 179.795 239.895 179.795 238.514C179.795 237.168 180.057 235.986 180.58 234.969C181.102 233.952 181.838 233.159 182.787 232.591C183.741 232.023 184.861 231.739 186.145 231.739C187.009 231.739 187.813 231.878 188.557 232.156C189.307 232.429 189.96 232.841 190.517 233.392C191.08 233.943 191.517 234.636 191.83 235.472C192.142 236.301 192.298 237.273 192.298 238.386V239.384H181.244V237.134H188.881C188.881 236.611 188.767 236.148 188.54 235.744C188.313 235.341 187.997 235.026 187.594 234.798C187.196 234.565 186.733 234.449 186.205 234.449C185.653 234.449 185.165 234.577 184.739 234.832C184.318 235.082 183.989 235.42 183.75 235.847C183.511 236.267 183.389 236.736 183.384 237.253V239.392C183.384 240.04 183.503 240.599 183.741 241.071C183.986 241.543 184.33 241.906 184.773 242.162C185.216 242.418 185.741 242.545 186.349 242.545C186.753 242.545 187.122 242.489 187.457 242.375C187.793 242.261 188.08 242.091 188.318 241.864C188.557 241.636 188.739 241.358 188.864 241.028L192.222 241.25C192.051 242.057 191.702 242.761 191.173 243.364C190.651 243.96 189.974 244.426 189.145 244.761C188.321 245.091 187.369 245.256 186.29 245.256ZM205.56 235.642L202.236 235.847C202.179 235.562 202.057 235.307 201.869 235.08C201.682 234.847 201.435 234.662 201.128 234.526C200.827 234.384 200.466 234.312 200.045 234.312C199.483 234.312 199.009 234.432 198.622 234.67C198.236 234.903 198.043 235.216 198.043 235.608C198.043 235.92 198.168 236.185 198.418 236.401C198.668 236.616 199.097 236.79 199.705 236.92L202.074 237.398C203.347 237.659 204.295 238.08 204.92 238.659C205.545 239.239 205.858 240 205.858 240.943C205.858 241.801 205.605 242.554 205.099 243.202C204.599 243.849 203.912 244.355 203.037 244.719C202.168 245.077 201.165 245.256 200.028 245.256C198.295 245.256 196.915 244.895 195.886 244.173C194.864 243.446 194.264 242.457 194.088 241.207L197.659 241.02C197.767 241.548 198.028 241.952 198.443 242.23C198.858 242.503 199.389 242.639 200.037 242.639C200.673 242.639 201.185 242.517 201.571 242.273C201.963 242.023 202.162 241.702 202.168 241.31C202.162 240.98 202.023 240.71 201.75 240.5C201.477 240.284 201.057 240.119 200.489 240.006L198.222 239.554C196.943 239.298 195.991 238.855 195.366 238.224C194.747 237.594 194.438 236.79 194.438 235.812C194.438 234.972 194.665 234.247 195.119 233.639C195.58 233.031 196.224 232.562 197.054 232.233C197.889 231.903 198.866 231.739 199.986 231.739C201.639 231.739 202.94 232.088 203.889 232.787C204.844 233.486 205.401 234.437 205.56 235.642Z" fill="black"/>
<rect x="12" y="363" width="335" height="252" rx="15" fill="white"/>
<rect x="26" y="383" width="306" height="218" fill="#E9E9E9"/>
<path d="M126.307 393.045C126.165 393.045 126.038 393.034 125.927 393.01C125.816 392.989 125.739 392.967 125.696 392.946L125.909 392.207C126.113 392.259 126.293 392.278 126.449 392.264C126.605 392.25 126.744 392.18 126.864 392.055C126.987 391.932 127.1 391.732 127.202 391.455L127.358 391.028L125.341 385.545H126.25L127.756 389.892H127.812L129.318 385.545H130.227L127.912 391.795C127.808 392.077 127.679 392.31 127.525 392.495C127.371 392.682 127.192 392.821 126.989 392.911C126.787 393 126.56 393.045 126.307 393.045Z" fill="#737373"/>
<path d="M310.392 566.545L311.699 568.776L313.006 566.545H313.972L312.21 569.273L313.972 572H313.006L311.699 569.884L310.392 572H309.426L311.159 569.273L309.426 566.545H310.392Z" fill="#737373"/>
<path d="M305.354 570.102C305.549 569.906 305.549 569.59 305.354 569.395L302.172 566.213C301.977 566.017 301.66 566.017 301.465 566.213C301.269 566.408 301.269 566.724 301.465 566.92L304.293 569.748L301.465 572.577C301.269 572.772 301.269 573.088 301.465 573.284C301.66 573.479 301.977 573.479 302.172 573.284L305.354 570.102ZM44.9961 570.248H305V569.248H44.9961V570.248Z" fill="black"/>
<path d="M127.345 396.646C127.149 396.451 126.832 396.452 126.638 396.647L123.464 399.838C123.269 400.033 123.27 400.35 123.466 400.545C123.662 400.74 123.978 400.739 124.173 400.543L126.994 397.707L129.83 400.528C130.026 400.723 130.342 400.722 130.537 400.526C130.732 400.331 130.731 400.014 130.535 399.819L127.345 396.646ZM128 591.499L127.492 396.999L126.492 397.001L127 591.501L128 591.499Z" fill="black"/>
<rect width="360" height="56" fill="white"/>
<path d="M19 29L25 22" stroke="black" stroke-width="3" stroke-linecap="round"/>
<path d="M19 29H44" stroke="black" stroke-width="3" stroke-linecap="round"/>
<path d="M19 29L25 35" stroke="black" stroke-width="3" stroke-linecap="round"/>
<path d="M54.5575 37V35.4659L63.9666 21.4205H54.4553V19.5455H66.4893V21.0795L57.0803 35.125H66.5916V37H54.5575ZM75.353 37.2727C74.0916 37.2727 73.0036 36.9943 72.0888 36.4375C71.1797 35.875 70.478 35.0909 69.9837 34.0852C69.495 33.0739 69.2507 31.8977 69.2507 30.5568C69.2507 29.2159 69.495 28.0341 69.9837 27.0114C70.478 25.983 71.1655 25.1818 72.0462 24.608C72.9325 24.0284 73.9666 23.7386 75.1484 23.7386C75.8303 23.7386 76.5036 23.8523 77.1683 24.0795C77.8331 24.3068 78.4382 24.6761 78.9837 25.1875C79.5291 25.6932 79.9638 26.3636 80.2876 27.1989C80.6115 28.0341 80.7734 29.0625 80.7734 30.2841V31.1364H70.6825V29.3977H78.728C78.728 28.6591 78.5803 28 78.2848 27.4205C77.995 26.8409 77.5803 26.3835 77.0405 26.0483C76.5064 25.7131 75.8757 25.5455 75.1484 25.5455C74.3473 25.5455 73.6541 25.7443 73.0689 26.142C72.4893 26.5341 72.0433 27.0455 71.7308 27.6761C71.4183 28.3068 71.2621 28.983 71.2621 29.7045V30.8636C71.2621 31.8523 71.4325 32.6903 71.7734 33.3778C72.12 34.0597 72.6001 34.5795 73.2138 34.9375C73.8274 35.2898 74.5405 35.4659 75.353 35.4659C75.8814 35.4659 76.3587 35.392 76.7848 35.2443C77.2166 35.0909 77.5888 34.8636 77.9013 34.5625C78.2138 34.2557 78.4553 33.875 78.6257 33.4205L80.5689 33.9659C80.3643 34.625 80.0206 35.2045 79.5376 35.7045C79.0547 36.1989 78.4581 36.5852 77.7479 36.8636C77.0376 37.1364 76.2393 37.2727 75.353 37.2727ZM83.8331 37V23.9091H85.7763V25.8864H85.9126C86.1513 25.2386 86.5831 24.7131 87.2081 24.3097C87.8331 23.9062 88.5376 23.7045 89.3217 23.7045C89.4695 23.7045 89.6541 23.7074 89.8757 23.7131C90.0973 23.7187 90.2649 23.7273 90.3786 23.7386V25.7841C90.3104 25.767 90.1541 25.7415 89.9098 25.7074C89.6712 25.6676 89.4183 25.6477 89.1513 25.6477C88.5149 25.6477 87.9467 25.7812 87.4467 26.0483C86.9524 26.3097 86.5604 26.6733 86.2706 27.1392C85.9865 27.5994 85.8445 28.125 85.8445 28.7159V37H83.8331ZM98.4219 37.2386C97.1378 37.2386 96.044 36.8892 95.1406 36.1903C94.2372 35.4858 93.5469 34.4659 93.0696 33.1307C92.5923 31.7898 92.3537 30.1705 92.3537 28.2727C92.3537 26.3864 92.5923 24.7756 93.0696 23.4403C93.5526 22.0994 94.2457 21.0767 95.1491 20.3722C96.0582 19.6619 97.1491 19.3068 98.4219 19.3068C99.6946 19.3068 100.783 19.6619 101.686 20.3722C102.595 21.0767 103.288 22.0994 103.766 23.4403C104.249 24.7756 104.49 26.3864 104.49 28.2727C104.49 30.1705 104.251 31.7898 103.774 33.1307C103.297 34.4659 102.607 35.4858 101.703 36.1903C100.8 36.8892 99.706 37.2386 98.4219 37.2386ZM98.4219 35.3636C99.6946 35.3636 100.683 34.75 101.388 33.5227C102.092 32.2955 102.445 30.5455 102.445 28.2727C102.445 26.7614 102.283 25.4744 101.959 24.4119C101.641 23.3494 101.18 22.5398 100.578 21.983C99.9815 21.4261 99.2628 21.1477 98.4219 21.1477C97.1605 21.1477 96.1747 21.7699 95.4645 23.0142C94.7543 24.2528 94.3991 26.0057 94.3991 28.2727C94.3991 29.7841 94.5582 31.0682 94.8764 32.125C95.1946 33.1818 95.652 33.9858 96.2486 34.5369C96.8509 35.0881 97.5753 35.3636 98.4219 35.3636ZM108.036 19.5455H110.558L116.49 34.0341H116.695L122.626 19.5455H125.149V37H123.172V23.7386H123.001L117.547 37H115.638L110.183 23.7386H110.013V37H108.036V19.5455ZM132.967 37.3068C132.137 37.3068 131.384 37.1506 130.708 36.8381C130.032 36.5199 129.495 36.0625 129.097 35.4659C128.7 34.8636 128.501 34.1364 128.501 33.2841C128.501 32.5341 128.648 31.9261 128.944 31.4602C129.239 30.9886 129.634 30.6193 130.129 30.3523C130.623 30.0852 131.168 29.8864 131.765 29.7557C132.367 29.6193 132.972 29.5114 133.58 29.4318C134.376 29.3295 135.021 29.2528 135.515 29.2017C136.015 29.1449 136.379 29.0511 136.606 28.9205C136.839 28.7898 136.955 28.5625 136.955 28.2386V28.1705C136.955 27.3295 136.725 26.6761 136.265 26.2102C135.81 25.7443 135.12 25.5114 134.194 25.5114C133.234 25.5114 132.481 25.7216 131.935 26.142C131.39 26.5625 131.006 27.0114 130.785 27.4886L128.876 26.8068C129.217 26.0114 129.671 25.392 130.239 24.9489C130.813 24.5 131.438 24.1875 132.114 24.0114C132.796 23.8295 133.467 23.7386 134.126 23.7386C134.546 23.7386 135.029 23.7898 135.575 23.892C136.126 23.9886 136.657 24.1903 137.168 24.4972C137.685 24.804 138.114 25.267 138.455 25.8864C138.796 26.5057 138.967 27.3352 138.967 28.375V37H136.955V35.2273H136.853C136.717 35.5114 136.489 35.8153 136.171 36.1392C135.853 36.4631 135.43 36.7386 134.901 36.9659C134.373 37.1932 133.728 37.3068 132.967 37.3068ZM133.273 35.5C134.069 35.5 134.739 35.3438 135.285 35.0312C135.836 34.7188 136.251 34.3153 136.529 33.821C136.813 33.3267 136.955 32.8068 136.955 32.2614V30.4205C136.87 30.5227 136.683 30.6165 136.393 30.7017C136.109 30.7812 135.779 30.8523 135.404 30.9148C135.035 30.9716 134.674 31.0227 134.322 31.0682C133.975 31.108 133.694 31.142 133.478 31.1705C132.955 31.2386 132.467 31.3494 132.012 31.5028C131.563 31.6506 131.2 31.875 130.921 32.1761C130.648 32.4716 130.512 32.875 130.512 33.3864C130.512 34.0852 130.771 34.6136 131.288 34.9716C131.81 35.3239 132.472 35.5 133.273 35.5ZM148.331 23.9091V25.6136H141.547V23.9091H148.331ZM143.524 20.7727H145.536V33.25C145.536 33.8182 145.618 34.2443 145.783 34.5284C145.953 34.8068 146.169 34.9943 146.43 35.0909C146.697 35.1818 146.979 35.2273 147.274 35.2273C147.496 35.2273 147.678 35.2159 147.82 35.1932C147.962 35.1648 148.075 35.142 148.161 35.125L148.57 36.9318C148.433 36.983 148.243 37.0341 147.999 37.0852C147.754 37.142 147.445 37.1705 147.07 37.1705C146.501 37.1705 145.945 37.0483 145.399 36.804C144.859 36.5597 144.411 36.1875 144.053 35.6875C143.7 35.1875 143.524 34.5568 143.524 33.7955V20.7727ZM153.649 29.125V37H151.638V19.5455H153.649V25.9545H153.82C154.126 25.2784 154.587 24.7415 155.2 24.3438C155.82 23.9403 156.643 23.7386 157.672 23.7386C158.564 23.7386 159.345 23.9176 160.016 24.2756C160.686 24.6278 161.206 25.1705 161.575 25.9034C161.95 26.6307 162.138 27.5568 162.138 28.6818V37H160.126V28.8182C160.126 27.7784 159.857 26.9744 159.317 26.4062C158.783 25.8324 158.041 25.5455 157.092 25.5455C156.433 25.5455 155.842 25.6847 155.32 25.9631C154.803 26.2415 154.393 26.6477 154.092 27.1818C153.797 27.7159 153.649 28.3636 153.649 29.125Z" fill="black"/>
</g>
<defs>
<clipPath id="clip0_24_43">
<rect width="360" height="800" rx="12" fill="white"/>
</clipPath>
</defs>
</svg>
