<svg width="360" height="800" viewBox="0 0 360 800" fill="none" xmlns="http://www.w3.org/2000/svg">
<g clip-path="url(#clip0_29_23)">
<rect width="360" height="800" rx="12" fill="white"/>
<path d="M0 549C0 540.716 6.71573 534 15 534H345C353.284 534 360 540.716 360 549V800H0V549Z" fill="#C8E3FD"/>
<g clip-path="url(#clip1_29_23)">
<path d="M338.5 500C334.364 500 331 503.365 331 507.5C331 511.636 334.364 515 338.5 515C342.635 515 346 511.636 346 507.5C346 503.365 342.635 500 338.5 500ZM338.5 513.412C335.24 513.412 332.588 510.76 332.588 507.5C332.588 504.24 335.24 501.588 338.5 501.588C341.76 501.588 344.412 504.24 344.412 507.5C344.412 510.76 341.76 513.412 338.5 513.412Z" fill="#555555"/>
<path d="M339.261 506.772H337.738C337.483 506.772 337.276 506.979 337.276 507.234V511.749C337.276 512.004 337.483 512.211 337.738 512.211H339.261C339.517 512.211 339.724 512.004 339.724 511.749V507.234C339.724 506.979 339.517 506.772 339.261 506.772Z" fill="#555555"/>
<path d="M338.5 502.789C337.751 502.789 337.143 503.396 337.143 504.145C337.143 504.894 337.751 505.502 338.5 505.502C339.249 505.502 339.856 504.894 339.856 504.145C339.856 503.396 339.249 502.789 338.5 502.789Z" fill="#555555"/>
</g>
<rect x="13" y="583" width="335" height="55" rx="15" fill="white"/>
<path d="M30.6776 615.132C30.0327 615.132 29.4773 614.994 29.0114 614.719C28.5483 614.44 28.1903 614.05 27.9375 613.547C27.6875 613.041 27.5625 612.449 27.5625 611.77C27.5625 611.099 27.6875 610.509 27.9375 609.997C28.1903 609.486 28.5426 609.087 28.9943 608.8C29.4489 608.513 29.9801 608.369 30.5881 608.369C30.9574 608.369 31.3153 608.43 31.6619 608.553C32.0085 608.675 32.3196 608.866 32.5952 609.128C32.8707 609.389 33.0881 609.729 33.2472 610.146C33.4063 610.561 33.4858 611.065 33.4858 611.659V612.111H28.2827V611.156H32.2372C32.2372 610.821 32.169 610.524 32.0327 610.266C31.8963 610.004 31.7045 609.798 31.4574 609.648C31.2131 609.497 30.9261 609.422 30.5966 609.422C30.2386 609.422 29.9261 609.51 29.6591 609.686C29.3949 609.859 29.1903 610.087 29.0455 610.368C28.9034 610.646 28.8324 610.949 28.8324 611.276V612.021C28.8324 612.459 28.9091 612.831 29.0625 613.138C29.2188 613.445 29.4361 613.679 29.7145 613.841C29.9929 614 30.3182 614.08 30.6903 614.08C30.9318 614.08 31.152 614.045 31.3509 613.977C31.5497 613.906 31.7216 613.801 31.8665 613.662C32.0114 613.523 32.1222 613.351 32.1989 613.146L33.4048 613.364C33.3082 613.719 33.1349 614.03 32.8849 614.297C32.6378 614.561 32.3267 614.767 31.9517 614.915C31.5795 615.06 31.1548 615.132 30.6776 615.132ZM35.7528 608.455L37.1974 611.003L38.6548 608.455H40.0483L38.0071 611.727L40.0653 615H38.6719L37.1974 612.554L35.7273 615H34.3295L36.3665 611.727L34.3551 608.455H35.7528ZM42.196 615.081C41.9631 615.081 41.7628 614.999 41.5952 614.834C41.4276 614.666 41.3438 614.464 41.3438 614.229C41.3438 613.996 41.4276 613.797 41.5952 613.632C41.7628 613.464 41.9631 613.381 42.196 613.381C42.429 613.381 42.6293 613.464 42.7969 613.632C42.9645 613.797 43.0483 613.996 43.0483 614.229C43.0483 614.385 43.0085 614.528 42.929 614.659C42.8523 614.787 42.75 614.889 42.6222 614.966C42.4943 615.043 42.3523 615.081 42.196 615.081ZM42.196 610.317C41.9631 610.317 41.7628 610.233 41.5952 610.065C41.4276 609.898 41.3438 609.697 41.3438 609.464C41.3438 609.232 41.4276 609.033 41.5952 608.868C41.7628 608.7 41.9631 608.616 42.196 608.616C42.429 608.616 42.6293 608.7 42.7969 608.868C42.9645 609.033 43.0483 609.232 43.0483 609.464C43.0483 609.621 43.0085 609.764 42.929 609.895C42.8523 610.023 42.75 610.125 42.6222 610.202C42.4943 610.278 42.3523 610.317 42.196 610.317ZM51.0895 615V614.045L54.0426 610.986C54.358 610.653 54.6179 610.362 54.8224 610.112C55.0298 609.859 55.1847 609.619 55.2869 609.392C55.3892 609.165 55.4403 608.923 55.4403 608.668C55.4403 608.378 55.3722 608.128 55.2358 607.918C55.0994 607.705 54.9134 607.541 54.6776 607.428C54.4418 607.311 54.1761 607.253 53.8807 607.253C53.5682 607.253 53.2955 607.317 53.0625 607.445C52.8295 607.572 52.6506 607.753 52.5256 607.986C52.4006 608.219 52.3381 608.491 52.3381 608.804H51.081C51.081 608.273 51.2031 607.808 51.4474 607.411C51.6918 607.013 52.027 606.705 52.4531 606.486C52.8793 606.264 53.3636 606.153 53.9062 606.153C54.4545 606.153 54.9375 606.263 55.3551 606.482C55.7756 606.697 56.1037 606.993 56.3395 607.368C56.5753 607.74 56.6932 608.161 56.6932 608.629C56.6932 608.953 56.6321 609.27 56.5099 609.58C56.3906 609.889 56.1818 610.234 55.8835 610.615C55.5852 610.993 55.1705 611.452 54.6392 611.991L52.9048 613.807V613.871H56.8338V615H51.0895ZM60.277 611.182L60.358 609.384L58.8409 610.359L58.3764 609.55L59.9872 608.727L58.3764 607.905L58.8409 607.095L60.358 608.071L60.277 606.273H61.2017L61.1207 608.071L62.6378 607.095L63.1023 607.905L61.4915 608.727L63.1023 609.55L62.6378 610.359L61.1207 609.384L61.2017 611.182H60.277ZM65.7294 608.455L67.174 611.003L68.6314 608.455H70.0249L67.9837 611.727L70.0419 615H68.6484L67.174 612.554L65.7038 615H64.3061L66.343 611.727L64.3317 608.455H65.7294ZM73.174 607.087H73.4808V607.526H73.174V607.087ZM70.9283 610.227L72.6967 606.52H73.9581L75.7266 610.227H74.5973L73.2805 607.355H73.3743L72.0703 610.227H70.9283ZM77.0231 615V614.045L79.9762 610.986C80.2915 610.653 80.5515 610.362 80.756 610.112C80.9634 609.859 81.1183 609.619 81.2205 609.392C81.3228 609.165 81.3739 608.923 81.3739 608.668C81.3739 608.378 81.3058 608.128 81.1694 607.918C81.033 607.705 80.8469 607.541 80.6112 607.428C80.3754 607.311 80.1097 607.253 79.8143 607.253C79.5018 607.253 79.229 607.317 78.9961 607.445C78.7631 607.572 78.5842 607.753 78.4592 607.986C78.3342 608.219 78.2717 608.491 78.2717 608.804H77.0146C77.0146 608.273 77.1367 607.808 77.381 607.411C77.6254 607.013 77.9606 606.705 78.3867 606.486C78.8129 606.264 79.2972 606.153 79.8398 606.153C80.3881 606.153 80.8711 606.263 81.2887 606.482C81.7092 606.697 82.0373 606.993 82.2731 607.368C82.5089 607.74 82.6268 608.161 82.6268 608.629C82.6268 608.953 82.5657 609.27 82.4435 609.58C82.3242 609.889 82.1154 610.234 81.8171 610.615C81.5188 610.993 81.104 611.452 80.5728 611.991L78.8384 613.807V613.871H82.7674V615H77.0231ZM90.1406 613.534V607.773H91.2869V613.534H90.1406ZM87.8352 611.224V610.082H93.5966V611.224H87.8352ZM101.765 615.119C101.179 615.119 100.657 615.018 100.196 614.817C99.739 614.615 99.3768 614.335 99.1097 613.977C98.8455 613.616 98.7035 613.199 98.6836 612.724H100.022C100.039 612.983 100.125 613.207 100.282 613.398C100.441 613.585 100.648 613.73 100.904 613.832C101.159 613.935 101.444 613.986 101.756 613.986C102.1 613.986 102.404 613.926 102.668 613.807C102.935 613.687 103.144 613.521 103.294 613.308C103.445 613.092 103.52 612.844 103.52 612.562C103.52 612.27 103.445 612.013 103.294 611.791C103.147 611.567 102.929 611.391 102.642 611.263C102.358 611.135 102.015 611.071 101.611 611.071H100.874V609.997H101.611C101.935 609.997 102.219 609.939 102.463 609.822C102.711 609.706 102.904 609.544 103.043 609.337C103.182 609.126 103.252 608.881 103.252 608.599C103.252 608.33 103.191 608.095 103.069 607.896C102.949 607.695 102.779 607.537 102.557 607.423C102.338 607.31 102.08 607.253 101.782 607.253C101.498 607.253 101.232 607.305 100.985 607.411C100.74 607.513 100.542 607.661 100.388 607.854C100.235 608.044 100.152 608.273 100.141 608.54H98.8668C98.881 608.068 99.0202 607.653 99.2844 607.295C99.5515 606.937 99.9038 606.658 100.341 606.456C100.779 606.254 101.265 606.153 101.799 606.153C102.358 606.153 102.841 606.263 103.248 606.482C103.657 606.697 103.972 606.986 104.194 607.347C104.418 607.707 104.529 608.102 104.526 608.531C104.529 609.02 104.392 609.435 104.117 609.776C103.844 610.116 103.48 610.345 103.026 610.462V610.53C103.605 610.618 104.054 610.848 104.373 611.22C104.694 611.592 104.853 612.054 104.85 612.605C104.853 613.085 104.719 613.516 104.449 613.896C104.182 614.277 103.817 614.577 103.354 614.795C102.891 615.011 102.361 615.119 101.765 615.119ZM108.289 611.182L108.37 609.384L106.853 610.359L106.388 609.55L107.999 608.727L106.388 607.905L106.853 607.095L108.37 608.071L108.289 606.273H109.213L109.132 608.071L110.65 607.095L111.114 607.905L109.503 608.727L111.114 609.55L110.65 610.359L109.132 609.384L109.213 611.182H108.289ZM113.741 608.455L115.186 611.003L116.643 608.455H118.037L115.995 611.727L118.054 615H116.66L115.186 612.554L113.716 615H112.318L114.355 611.727L112.343 608.455H113.741ZM126.377 610.082V611.19H122.508V610.082H126.377ZM134.545 606.273V615H133.224V607.594H133.173L131.085 608.957V607.696L133.262 606.273H134.545ZM139.944 615.145C139.271 615.142 138.696 614.964 138.218 614.612C137.741 614.26 137.376 613.747 137.123 613.074C136.87 612.401 136.744 611.589 136.744 610.641C136.744 609.695 136.87 608.886 137.123 608.216C137.379 607.545 137.745 607.034 138.223 606.682C138.703 606.33 139.277 606.153 139.944 606.153C140.612 606.153 141.184 606.331 141.662 606.686C142.139 607.038 142.504 607.55 142.757 608.22C143.012 608.888 143.14 609.695 143.14 610.641C143.14 611.592 143.014 612.405 142.761 613.078C142.508 613.749 142.143 614.261 141.666 614.616C141.189 614.969 140.615 615.145 139.944 615.145ZM139.944 614.007C140.535 614.007 140.997 613.719 141.329 613.142C141.664 612.565 141.832 611.732 141.832 610.641C141.832 609.916 141.755 609.304 141.602 608.804C141.451 608.301 141.234 607.92 140.95 607.662C140.669 607.401 140.333 607.27 139.944 607.27C139.356 607.27 138.895 607.56 138.559 608.139C138.224 608.719 138.055 609.553 138.052 610.641C138.052 611.368 138.127 611.983 138.278 612.486C138.431 612.986 138.649 613.365 138.93 613.624C139.211 613.879 139.549 614.007 139.944 614.007Z" fill="#666666"/>
<path d="M41.9588 586V577.273H47.4304V578.406H43.2756V581.065H47.1449V582.195H43.2756V584.866H47.4815V586H41.9588ZM53.506 588.455V584.982H53.4293C53.3526 585.121 53.2418 585.28 53.0969 585.459C52.9549 585.638 52.7589 585.794 52.5089 585.928C52.2589 586.061 51.935 586.128 51.5373 586.128C51.0089 586.128 50.5373 585.993 50.1225 585.723C49.7106 585.45 49.3867 585.062 49.1509 584.56C48.918 584.054 48.8015 583.447 48.8015 582.74C48.8015 582.033 48.9194 581.428 49.1552 580.925C49.3938 580.422 49.7205 580.037 50.1353 579.77C50.5501 579.503 51.0202 579.369 51.5458 579.369C51.9521 579.369 52.2788 579.438 52.5259 579.574C52.7759 579.707 52.9691 579.864 53.1055 580.043C53.2447 580.222 53.3526 580.379 53.4293 580.516H53.5359V579.455H54.7802V588.455H53.506ZM51.8185 585.041C52.185 585.041 52.4947 584.945 52.7475 584.751C53.0032 584.555 53.1964 584.284 53.3271 583.938C53.4606 583.591 53.5273 583.187 53.5273 582.727C53.5273 582.273 53.462 581.875 53.3313 581.534C53.2006 581.193 53.0089 580.928 52.756 580.737C52.5032 580.547 52.1907 580.452 51.8185 580.452C51.435 580.452 51.1154 580.551 50.8597 580.75C50.604 580.949 50.4109 581.22 50.2802 581.564C50.1523 581.908 50.0884 582.295 50.0884 582.727C50.0884 583.165 50.1538 583.558 50.2844 583.908C50.4151 584.257 50.6083 584.534 50.864 584.739C51.1225 584.94 51.4407 585.041 51.8185 585.041ZM60.6396 583.286V579.455H61.918V586H60.6651V584.866H60.5969C60.4464 585.216 60.2049 585.507 59.8725 585.74C59.543 585.97 59.1325 586.085 58.641 586.085C58.2205 586.085 57.8484 585.993 57.5245 585.808C57.2035 585.621 56.9506 585.344 56.766 584.977C56.5842 584.611 56.4933 584.158 56.4933 583.618V579.455H57.7674V583.464C57.7674 583.911 57.891 584.266 58.1381 584.53C58.3853 584.794 58.7063 584.926 59.1012 584.926C59.3398 584.926 59.5771 584.866 59.8129 584.747C60.0515 584.628 60.2489 584.447 60.4052 584.206C60.5643 583.964 60.6424 583.658 60.6396 583.286ZM65.5348 586.145C65.12 586.145 64.745 586.068 64.4098 585.915C64.0746 585.759 63.8089 585.533 63.6129 585.237C63.4197 584.942 63.3232 584.58 63.3232 584.151C63.3232 583.781 63.3942 583.477 63.5362 583.239C63.6783 583 63.87 582.811 64.1115 582.672C64.353 582.533 64.6229 582.428 64.9212 582.357C65.2195 582.286 65.5234 582.232 65.8331 582.195C66.2251 582.149 66.5433 582.112 66.7876 582.084C67.032 582.053 67.2095 582.003 67.3203 581.935C67.4311 581.866 67.4865 581.756 67.4865 581.602V581.572C67.4865 581.2 67.3814 580.912 67.1712 580.707C66.9638 580.503 66.6541 580.401 66.2422 580.401C65.8132 580.401 65.4751 580.496 65.228 580.686C64.9837 580.874 64.8146 581.082 64.7209 581.312L63.5234 581.04C63.6655 580.642 63.8729 580.321 64.1456 580.077C64.4212 579.83 64.7379 579.651 65.0959 579.54C65.4538 579.426 65.8303 579.369 66.2251 579.369C66.4865 579.369 66.7635 579.401 67.0561 579.463C67.3516 579.523 67.6271 579.634 67.8828 579.795C68.1413 579.957 68.353 580.189 68.5178 580.49C68.6825 580.788 68.7649 581.176 68.7649 581.653V586H67.5206V585.105H67.4695C67.3871 585.27 67.2635 585.432 67.0987 585.591C66.9339 585.75 66.7223 585.882 66.4638 585.987C66.2053 586.092 65.8956 586.145 65.5348 586.145ZM65.8118 585.122C66.1641 585.122 66.4652 585.053 66.7152 584.913C66.968 584.774 67.1598 584.592 67.2905 584.368C67.424 584.141 67.4908 583.898 67.4908 583.639V582.795C67.4453 582.841 67.3572 582.884 67.2266 582.923C67.0987 582.96 66.9524 582.993 66.7876 583.021C66.6229 583.047 66.4624 583.071 66.3061 583.094C66.1499 583.114 66.0192 583.131 65.9141 583.145C65.6669 583.176 65.4411 583.229 65.2365 583.303C65.0348 583.376 64.8729 583.483 64.7507 583.622C64.6314 583.759 64.5717 583.94 64.5717 584.168C64.5717 584.483 64.6882 584.722 64.9212 584.884C65.1541 585.043 65.451 585.122 65.8118 585.122ZM73.2191 586.132C72.5856 586.132 72.0401 585.989 71.5827 585.702C71.1282 585.412 70.7788 585.013 70.5344 584.504C70.2901 583.996 70.168 583.413 70.168 582.757C70.168 582.092 70.293 581.506 70.543 580.997C70.793 580.486 71.1452 580.087 71.5998 579.8C72.0543 579.513 72.5898 579.369 73.2063 579.369C73.7035 579.369 74.1467 579.462 74.5359 579.646C74.9251 579.828 75.239 580.084 75.4776 580.413C75.7191 580.743 75.8626 581.128 75.908 581.568H74.668C74.5998 581.261 74.4435 580.997 74.1992 580.776C73.9577 580.554 73.6339 580.443 73.2276 580.443C72.8725 580.443 72.5614 580.537 72.2944 580.724C72.0302 580.909 71.8242 581.173 71.6765 581.517C71.5288 581.858 71.4549 582.261 71.4549 582.727C71.4549 583.205 71.5273 583.616 71.6722 583.963C71.8171 584.31 72.0217 584.578 72.2859 584.768C72.5529 584.959 72.8668 585.054 73.2276 585.054C73.4691 585.054 73.6879 585.01 73.8839 584.922C74.0827 584.831 74.2489 584.702 74.3825 584.534C74.5188 584.366 74.614 584.165 74.668 583.929H75.908C75.8626 584.352 75.7248 584.73 75.4947 585.062C75.2646 585.395 74.9563 585.656 74.57 585.847C74.1864 586.037 73.7362 586.132 73.2191 586.132ZM72.7589 585.966H73.5941L73.5259 586.315C73.7731 586.355 73.989 586.455 74.1737 586.614C74.3583 586.773 74.4506 587.013 74.4506 587.334C74.4535 587.717 74.2873 588.028 73.9521 588.267C73.6197 588.506 73.1381 588.625 72.5075 588.625L72.4819 587.913C72.7773 587.913 73.016 587.871 73.1978 587.786C73.3825 587.7 73.4762 587.562 73.479 587.372C73.4819 587.182 73.4109 587.048 73.266 586.972C73.1239 586.895 72.8967 586.841 72.5842 586.81L72.7589 585.966ZM79.1754 586.145C78.7607 586.145 78.3857 586.068 78.0504 585.915C77.7152 585.759 77.4496 585.533 77.2536 585.237C77.0604 584.942 76.9638 584.58 76.9638 584.151C76.9638 583.781 77.0348 583.477 77.1768 583.239C77.3189 583 77.5107 582.811 77.7521 582.672C77.9936 582.533 78.2635 582.428 78.5618 582.357C78.8601 582.286 79.1641 582.232 79.4737 582.195C79.8658 582.149 80.1839 582.112 80.4283 582.084C80.6726 582.053 80.8501 582.003 80.9609 581.935C81.0717 581.866 81.1271 581.756 81.1271 581.602V581.572C81.1271 581.2 81.022 580.912 80.8118 580.707C80.6044 580.503 80.2947 580.401 79.8828 580.401C79.4538 580.401 79.1158 580.496 78.8686 580.686C78.6243 580.874 78.4553 581.082 78.3615 581.312L77.1641 581.04C77.3061 580.642 77.5135 580.321 77.7862 580.077C78.0618 579.83 78.3786 579.651 78.7365 579.54C79.0945 579.426 79.4709 579.369 79.8658 579.369C80.1271 579.369 80.4041 579.401 80.6967 579.463C80.9922 579.523 81.2678 579.634 81.5234 579.795C81.782 579.957 81.9936 580.189 82.1584 580.49C82.3232 580.788 82.4055 581.176 82.4055 581.653V586H81.1612V585.105H81.1101C81.0277 585.27 80.9041 585.432 80.7393 585.591C80.5746 585.75 80.3629 585.882 80.1044 585.987C79.8459 586.092 79.5362 586.145 79.1754 586.145ZM79.4524 585.122C79.8047 585.122 80.1058 585.053 80.3558 584.913C80.6087 584.774 80.8004 584.592 80.9311 584.368C81.0646 584.141 81.1314 583.898 81.1314 583.639V582.795C81.0859 582.841 80.9979 582.884 80.8672 582.923C80.7393 582.96 80.593 582.993 80.4283 583.021C80.2635 583.047 80.103 583.071 79.9467 583.094C79.7905 583.114 79.6598 583.131 79.5547 583.145C79.3075 583.176 79.0817 583.229 78.8771 583.303C78.6754 583.376 78.5135 583.483 78.3913 583.622C78.272 583.759 78.2124 583.94 78.2124 584.168C78.2124 584.483 78.3288 584.722 78.5618 584.884C78.7947 585.043 79.0916 585.122 79.4524 585.122ZM78.6513 578.662L77.7947 578.636C77.7947 578.165 77.9212 577.788 78.174 577.507C78.4297 577.226 78.745 577.085 79.12 577.085C79.2933 577.085 79.4453 577.115 79.576 577.175C79.7067 577.232 79.8288 577.298 79.9425 577.375C80.0589 577.449 80.174 577.516 80.2876 577.575C80.4041 577.632 80.5334 577.661 80.6754 577.661C80.8402 577.661 80.9737 577.598 81.076 577.473C81.1811 577.348 81.2337 577.193 81.2337 577.009L82.0732 577.064C82.0732 577.538 81.9453 577.912 81.6896 578.185C81.4339 578.455 81.12 578.591 80.7479 578.594C80.5462 578.594 80.3786 578.565 80.245 578.509C80.1143 578.449 79.9979 578.382 79.8956 578.308C79.7933 578.232 79.6882 578.163 79.5803 578.104C79.4723 578.044 79.343 578.014 79.1925 578.014C79.0334 578.014 78.9027 578.077 78.8004 578.202C78.701 578.324 78.6513 578.477 78.6513 578.662ZM86.8597 586.132C86.2461 586.132 85.7106 585.991 85.2532 585.71C84.7958 585.429 84.4407 585.036 84.1879 584.53C83.935 584.024 83.8086 583.433 83.8086 582.757C83.8086 582.078 83.935 581.484 84.1879 580.976C84.4407 580.467 84.7958 580.072 85.2532 579.791C85.7106 579.51 86.2461 579.369 86.8597 579.369C87.4734 579.369 88.0089 579.51 88.4663 579.791C88.9237 580.072 89.2788 580.467 89.5316 580.976C89.7844 581.484 89.9109 582.078 89.9109 582.757C89.9109 583.433 89.7844 584.024 89.5316 584.53C89.2788 585.036 88.9237 585.429 88.4663 585.71C88.0089 585.991 87.4734 586.132 86.8597 586.132ZM86.864 585.062C87.2617 585.062 87.5913 584.957 87.8526 584.747C88.114 584.537 88.3072 584.257 88.4322 583.908C88.56 583.558 88.6239 583.173 88.6239 582.753C88.6239 582.335 88.56 581.952 88.4322 581.602C88.3072 581.25 88.114 580.967 87.8526 580.754C87.5913 580.541 87.2617 580.435 86.864 580.435C86.4634 580.435 86.131 580.541 85.8668 580.754C85.6055 580.967 85.4109 581.25 85.283 581.602C85.158 581.952 85.0955 582.335 85.0955 582.753C85.0955 583.173 85.158 583.558 85.283 583.908C85.4109 584.257 85.6055 584.537 85.8668 584.747C86.131 584.957 86.4634 585.062 86.864 585.062Z" fill="black"/>
<path d="M119.416 749H116.05V738.091H119.565C120.623 738.091 121.529 738.309 122.282 738.746C123.035 739.179 123.612 739.803 124.013 740.616C124.414 741.425 124.615 742.395 124.615 743.524C124.615 744.661 124.412 745.639 124.008 746.459C123.603 747.276 123.013 747.904 122.239 748.345C121.465 748.782 120.524 749 119.416 749ZM117.371 747.828H119.331C120.233 747.828 120.98 747.654 121.573 747.306C122.166 746.958 122.608 746.463 122.9 745.82C123.191 745.177 123.336 744.412 123.336 743.524C123.336 742.643 123.193 741.885 122.905 741.25C122.617 740.61 122.188 740.12 121.616 739.779C121.044 739.435 120.332 739.263 119.48 739.263H117.371V747.828ZM130.091 749.17C129.302 749.17 128.622 748.996 128.051 748.648C127.482 748.297 127.044 747.807 126.735 747.178C126.43 746.546 126.277 745.811 126.277 744.973C126.277 744.135 126.43 743.396 126.735 742.757C127.044 742.114 127.474 741.614 128.024 741.255C128.578 740.893 129.224 740.712 129.963 740.712C130.389 740.712 130.81 740.783 131.225 740.925C131.641 741.067 132.019 741.298 132.36 741.617C132.701 741.933 132.972 742.352 133.175 742.874C133.377 743.396 133.479 744.039 133.479 744.803V745.335H127.172V744.249H132.2C132.2 743.787 132.108 743.375 131.923 743.013C131.742 742.651 131.483 742.365 131.145 742.155C130.812 741.946 130.417 741.841 129.963 741.841C129.462 741.841 129.029 741.965 128.663 742.214C128.301 742.459 128.022 742.778 127.827 743.173C127.632 743.567 127.534 743.989 127.534 744.44V745.165C127.534 745.783 127.64 746.306 127.854 746.736C128.07 747.162 128.37 747.487 128.754 747.711C129.137 747.931 129.583 748.041 130.091 748.041C130.421 748.041 130.719 747.995 130.986 747.903C131.256 747.807 131.488 747.665 131.683 747.477C131.879 747.285 132.03 747.047 132.136 746.763L133.351 747.104C133.223 747.516 133.008 747.878 132.706 748.19C132.404 748.499 132.031 748.741 131.588 748.915C131.144 749.085 130.645 749.17 130.091 749.17ZM141.186 742.651L140.057 742.97C139.986 742.782 139.881 742.599 139.743 742.422C139.608 742.24 139.423 742.091 139.189 741.974C138.954 741.857 138.654 741.798 138.289 741.798C137.788 741.798 137.371 741.914 137.037 742.145C136.706 742.372 136.541 742.661 136.541 743.013C136.541 743.325 136.655 743.572 136.882 743.753C137.11 743.934 137.465 744.085 137.948 744.206L139.162 744.504C139.894 744.682 140.439 744.953 140.797 745.319C141.156 745.681 141.335 746.148 141.335 746.72C141.335 747.189 141.2 747.608 140.931 747.977C140.664 748.347 140.291 748.638 139.812 748.851C139.333 749.064 138.775 749.17 138.139 749.17C137.305 749.17 136.614 748.989 136.067 748.627C135.52 748.265 135.174 747.736 135.029 747.04L136.222 746.741C136.335 747.182 136.55 747.512 136.866 747.732C137.186 747.952 137.603 748.062 138.118 748.062C138.704 748.062 139.169 747.938 139.514 747.69C139.862 747.437 140.036 747.136 140.036 746.784C140.036 746.5 139.936 746.262 139.737 746.07C139.539 745.875 139.233 745.729 138.821 745.634L137.458 745.314C136.708 745.136 136.158 744.861 135.806 744.488C135.458 744.112 135.284 743.641 135.284 743.077C135.284 742.615 135.414 742.207 135.673 741.852C135.936 741.496 136.293 741.218 136.744 741.015C137.198 740.813 137.713 740.712 138.289 740.712C139.098 740.712 139.734 740.889 140.195 741.244C140.661 741.599 140.991 742.068 141.186 742.651ZM146.658 749.17C145.87 749.17 145.19 748.996 144.618 748.648C144.05 748.297 143.611 747.807 143.302 747.178C142.997 746.546 142.844 745.811 142.844 744.973C142.844 744.135 142.997 743.396 143.302 742.757C143.611 742.114 144.041 741.614 144.591 741.255C145.145 740.893 145.792 740.712 146.53 740.712C146.956 740.712 147.377 740.783 147.793 740.925C148.208 741.067 148.586 741.298 148.927 741.617C149.268 741.933 149.54 742.352 149.742 742.874C149.945 743.396 150.046 744.039 150.046 744.803V745.335H143.739V744.249H148.767C148.767 743.787 148.675 743.375 148.491 743.013C148.309 742.651 148.05 742.365 147.713 742.155C147.379 741.946 146.985 741.841 146.53 741.841C146.03 741.841 145.596 741.965 145.231 742.214C144.868 742.459 144.59 742.778 144.394 743.173C144.199 743.567 144.101 743.989 144.101 744.44V745.165C144.101 745.783 144.208 746.306 144.421 746.736C144.638 747.162 144.938 747.487 145.321 747.711C145.705 747.931 146.15 748.041 146.658 748.041C146.988 748.041 147.287 747.995 147.553 747.903C147.823 747.807 148.055 747.665 148.251 747.477C148.446 747.285 148.597 747.047 148.704 746.763L149.918 747.104C149.79 747.516 149.575 747.878 149.274 748.19C148.972 748.499 148.599 748.741 148.155 748.915C147.711 749.085 147.212 749.17 146.658 749.17ZM153.215 744.078V749H151.958V740.818H153.173V742.097H153.279C153.471 741.681 153.762 741.347 154.153 741.095C154.543 740.839 155.048 740.712 155.666 740.712C156.22 740.712 156.704 740.825 157.12 741.053C157.535 741.276 157.858 741.617 158.089 742.075C158.32 742.53 158.435 743.105 158.435 743.801V749H157.178V743.886C157.178 743.244 157.011 742.743 156.678 742.384C156.344 742.022 155.886 741.841 155.303 741.841C154.902 741.841 154.543 741.928 154.227 742.102C153.915 742.276 153.668 742.53 153.487 742.864C153.306 743.197 153.215 743.602 153.215 744.078ZM167.13 740.818L164.104 749H162.826L159.8 740.818H161.164L163.423 747.338H163.508L165.766 740.818H167.13ZM171.82 749.17C171.081 749.17 170.433 748.995 169.876 748.643C169.322 748.292 168.889 747.8 168.576 747.168C168.267 746.536 168.113 745.797 168.113 744.952C168.113 744.099 168.267 743.355 168.576 742.72C168.889 742.084 169.322 741.591 169.876 741.239C170.433 740.887 171.081 740.712 171.82 740.712C172.559 740.712 173.205 740.887 173.759 741.239C174.317 741.591 174.75 742.084 175.059 742.72C175.371 743.355 175.528 744.099 175.528 744.952C175.528 745.797 175.371 746.536 175.059 747.168C174.75 747.8 174.317 748.292 173.759 748.643C173.205 748.995 172.559 749.17 171.82 749.17ZM171.82 748.041C172.381 748.041 172.843 747.897 173.205 747.61C173.567 747.322 173.835 746.944 174.009 746.475C174.183 746.006 174.27 745.499 174.27 744.952C174.27 744.405 174.183 743.895 174.009 743.423C173.835 742.951 173.567 742.569 173.205 742.278C172.843 741.987 172.381 741.841 171.82 741.841C171.259 741.841 170.797 741.987 170.435 742.278C170.073 742.569 169.805 742.951 169.631 743.423C169.457 743.895 169.37 744.405 169.37 744.952C169.37 745.499 169.457 746.006 169.631 746.475C169.805 746.944 170.073 747.322 170.435 747.61C170.797 747.897 171.259 748.041 171.82 748.041ZM178.704 738.091V749H177.446V738.091H178.704ZM187.696 740.818L184.671 749H183.392L180.367 740.818H181.73L183.989 747.338H184.074L186.333 740.818H187.696ZM189.356 749V740.818H190.613V749H189.356ZM189.995 739.455C189.75 739.455 189.539 739.371 189.361 739.204C189.187 739.037 189.1 738.837 189.1 738.602C189.1 738.368 189.187 738.167 189.361 738C189.539 737.833 189.75 737.75 189.995 737.75C190.24 737.75 190.449 737.833 190.623 738C190.801 738.167 190.89 738.368 190.89 738.602C190.89 738.837 190.801 739.037 190.623 739.204C190.449 739.371 190.24 739.455 189.995 739.455ZM196.005 749.17C195.323 749.17 194.721 748.998 194.199 748.654C193.677 748.306 193.269 747.816 192.974 747.184C192.679 746.548 192.532 745.797 192.532 744.93C192.532 744.071 192.679 743.325 192.974 742.693C193.269 742.061 193.679 741.573 194.204 741.228C194.73 740.884 195.337 740.712 196.026 740.712C196.559 740.712 196.979 740.8 197.288 740.978C197.601 741.152 197.839 741.351 198.002 741.575C198.169 741.795 198.299 741.976 198.391 742.118H198.498V738.091H199.755V749H198.54V747.743H198.391C198.299 747.892 198.167 748.08 197.997 748.308C197.826 748.531 197.583 748.732 197.267 748.909C196.951 749.083 196.53 749.17 196.005 749.17ZM196.175 748.041C196.679 748.041 197.106 747.91 197.454 747.647C197.802 747.381 198.066 747.013 198.247 746.544C198.428 746.072 198.519 745.527 198.519 744.909C198.519 744.298 198.43 743.764 198.253 743.306C198.075 742.844 197.812 742.485 197.464 742.23C197.116 741.971 196.687 741.841 196.175 741.841C195.642 741.841 195.199 741.978 194.843 742.251C194.492 742.521 194.227 742.888 194.05 743.354C193.876 743.815 193.789 744.334 193.789 744.909C193.789 745.491 193.878 746.021 194.055 746.496C194.236 746.969 194.503 747.345 194.854 747.626C195.209 747.903 195.65 748.041 196.175 748.041ZM205.555 749.17C204.817 749.17 204.169 748.995 203.611 748.643C203.057 748.292 202.624 747.8 202.312 747.168C202.003 746.536 201.848 745.797 201.848 744.952C201.848 744.099 202.003 743.355 202.312 742.72C202.624 742.084 203.057 741.591 203.611 741.239C204.169 740.887 204.817 740.712 205.555 740.712C206.294 740.712 206.94 740.887 207.494 741.239C208.052 741.591 208.485 742.084 208.794 742.72C209.107 743.355 209.263 744.099 209.263 744.952C209.263 745.797 209.107 746.536 208.794 747.168C208.485 747.8 208.052 748.292 207.494 748.643C206.94 748.995 206.294 749.17 205.555 749.17ZM205.555 748.041C206.117 748.041 206.578 747.897 206.94 747.61C207.303 747.322 207.571 746.944 207.745 746.475C207.919 746.006 208.006 745.499 208.006 744.952C208.006 744.405 207.919 743.895 207.745 743.423C207.571 742.951 207.303 742.569 206.94 742.278C206.578 741.987 206.117 741.841 205.555 741.841C204.994 741.841 204.533 741.987 204.171 742.278C203.808 742.569 203.54 742.951 203.366 743.423C203.192 743.895 203.105 744.405 203.105 744.952C203.105 745.499 203.192 746.006 203.366 746.475C203.54 746.944 203.808 747.322 204.171 747.61C204.533 747.897 204.994 748.041 205.555 748.041ZM215.401 752.068V740.818H216.615V742.118H216.764C216.857 741.976 216.984 741.795 217.148 741.575C217.315 741.351 217.553 741.152 217.862 740.978C218.174 740.8 218.597 740.712 219.129 740.712C219.818 740.712 220.425 740.884 220.951 741.228C221.477 741.573 221.887 742.061 222.181 742.693C222.476 743.325 222.624 744.071 222.624 744.93C222.624 745.797 222.476 746.548 222.181 747.184C221.887 747.816 221.478 748.306 220.956 748.654C220.434 748.998 219.832 749.17 219.151 749.17C218.625 749.17 218.204 749.083 217.888 748.909C217.572 748.732 217.329 748.531 217.158 748.308C216.988 748.08 216.857 747.892 216.764 747.743H216.658V752.068H215.401ZM216.636 744.909C216.636 745.527 216.727 746.072 216.908 746.544C217.089 747.013 217.354 747.381 217.702 747.647C218.05 747.91 218.476 748.041 218.98 748.041C219.506 748.041 219.944 747.903 220.296 747.626C220.651 747.345 220.917 746.969 221.095 746.496C221.276 746.021 221.366 745.491 221.366 744.909C221.366 744.334 221.278 743.815 221.1 743.354C220.926 742.888 220.662 742.521 220.306 742.251C219.955 741.978 219.513 741.841 218.98 741.841C218.469 741.841 218.039 741.971 217.691 742.23C217.343 742.485 217.08 742.844 216.903 743.306C216.725 743.764 216.636 744.298 216.636 744.909ZM227.865 749.17C227.126 749.17 226.478 748.995 225.921 748.643C225.367 748.292 224.934 747.8 224.621 747.168C224.312 746.536 224.158 745.797 224.158 744.952C224.158 744.099 224.312 743.355 224.621 742.72C224.934 742.084 225.367 741.591 225.921 741.239C226.478 740.887 227.126 740.712 227.865 740.712C228.604 740.712 229.25 740.887 229.804 741.239C230.362 741.591 230.795 742.084 231.104 742.72C231.416 743.355 231.572 744.099 231.572 744.952C231.572 745.797 231.416 746.536 231.104 747.168C230.795 747.8 230.362 748.292 229.804 748.643C229.25 748.995 228.604 749.17 227.865 749.17ZM227.865 748.041C228.426 748.041 228.888 747.897 229.25 747.61C229.612 747.322 229.88 746.944 230.054 746.475C230.228 746.006 230.315 745.499 230.315 744.952C230.315 744.405 230.228 743.895 230.054 743.423C229.88 742.951 229.612 742.569 229.25 742.278C228.888 741.987 228.426 741.841 227.865 741.841C227.304 741.841 226.842 741.987 226.48 742.278C226.118 742.569 225.85 742.951 225.676 743.423C225.502 743.895 225.415 744.405 225.415 744.952C225.415 745.499 225.502 746.006 225.676 746.475C225.85 746.944 226.118 747.322 226.48 747.61C226.842 747.897 227.304 748.041 227.865 748.041ZM233.491 749V740.818H234.706V742.054H234.791C234.94 741.649 235.21 741.321 235.601 741.069C235.991 740.816 236.432 740.69 236.922 740.69C237.014 740.69 237.13 740.692 237.268 740.696C237.407 740.699 237.511 740.705 237.582 740.712V741.99C237.54 741.979 237.442 741.963 237.289 741.942C237.14 741.917 236.982 741.905 236.815 741.905C236.418 741.905 236.062 741.988 235.75 742.155C235.441 742.319 235.196 742.546 235.015 742.837C234.837 743.125 234.748 743.453 234.748 743.822V749H233.491ZM239.989 749.085C239.726 749.085 239.5 748.991 239.312 748.803C239.124 748.615 239.03 748.389 239.03 748.126C239.03 747.864 239.124 747.638 239.312 747.45C239.5 747.262 239.726 747.168 239.989 747.168C240.251 747.168 240.477 747.262 240.665 747.45C240.853 747.638 240.947 747.864 240.947 748.126C240.947 748.3 240.903 748.46 240.814 748.606C240.729 748.751 240.614 748.869 240.468 748.957C240.326 749.043 240.166 749.085 239.989 749.085ZM239.989 743.013C239.726 743.013 239.5 742.919 239.312 742.73C239.124 742.542 239.03 742.317 239.03 742.054C239.03 741.791 239.124 741.566 239.312 741.377C239.5 741.189 239.726 741.095 239.989 741.095C240.251 741.095 240.477 741.189 240.665 741.377C240.853 741.566 240.947 741.791 240.947 742.054C240.947 742.228 240.903 742.388 240.814 742.533C240.729 742.679 240.614 742.796 240.468 742.885C240.326 742.97 240.166 743.013 239.989 743.013ZM109.247 759.5C109.129 759.141 108.975 758.82 108.783 758.536C108.595 758.248 108.37 758.003 108.107 757.801C107.848 757.598 107.553 757.444 107.223 757.337C106.892 757.231 106.53 757.178 106.136 757.178C105.49 757.178 104.902 757.344 104.373 757.678C103.844 758.012 103.423 758.504 103.11 759.154C102.798 759.804 102.642 760.601 102.642 761.545C102.642 762.49 102.8 763.287 103.116 763.937C103.432 764.587 103.86 765.079 104.399 765.413C104.939 765.746 105.546 765.913 106.221 765.913C106.846 765.913 107.397 765.78 107.872 765.514C108.352 765.244 108.725 764.864 108.991 764.374C109.261 763.88 109.396 763.3 109.396 762.632L109.801 762.717H106.519V761.545H110.674V762.717C110.674 763.616 110.482 764.397 110.099 765.061C109.719 765.725 109.193 766.24 108.522 766.606C107.855 766.968 107.088 767.149 106.221 767.149C105.255 767.149 104.406 766.922 103.675 766.467C102.947 766.013 102.379 765.366 101.97 764.528C101.566 763.69 101.363 762.696 101.363 761.545C101.363 760.683 101.479 759.907 101.709 759.218C101.944 758.525 102.274 757.936 102.7 757.449C103.126 756.963 103.631 756.59 104.213 756.331C104.795 756.071 105.436 755.942 106.136 755.942C106.711 755.942 107.247 756.029 107.745 756.203C108.245 756.373 108.691 756.616 109.082 756.933C109.476 757.245 109.804 757.62 110.067 758.056C110.33 758.49 110.511 758.971 110.61 759.5H109.247ZM113.279 767V758.818H114.536V767H113.279ZM113.918 757.455C113.673 757.455 113.462 757.371 113.284 757.204C113.11 757.037 113.023 756.837 113.023 756.602C113.023 756.368 113.11 756.167 113.284 756C113.462 755.833 113.673 755.75 113.918 755.75C114.163 755.75 114.373 755.833 114.547 756C114.724 756.167 114.813 756.368 114.813 756.602C114.813 756.837 114.724 757.037 114.547 757.204C114.373 757.371 114.163 757.455 113.918 757.455ZM119.246 767.192C118.728 767.192 118.257 767.094 117.835 766.899C117.412 766.7 117.076 766.414 116.828 766.041C116.579 765.665 116.455 765.21 116.455 764.678C116.455 764.209 116.547 763.829 116.732 763.538C116.917 763.243 117.163 763.012 117.472 762.845C117.781 762.678 118.122 762.554 118.495 762.472C118.872 762.387 119.25 762.32 119.63 762.27C120.127 762.206 120.53 762.158 120.839 762.126C121.151 762.091 121.379 762.032 121.521 761.95C121.666 761.869 121.739 761.727 121.739 761.524V761.482C121.739 760.956 121.595 760.548 121.308 760.256C121.024 759.965 120.592 759.82 120.013 759.82C119.413 759.82 118.943 759.951 118.602 760.214C118.261 760.477 118.021 760.757 117.883 761.055L116.689 760.629C116.902 760.132 117.187 759.745 117.542 759.468C117.9 759.187 118.291 758.992 118.714 758.882C119.14 758.768 119.559 758.712 119.971 758.712C120.233 758.712 120.535 758.744 120.876 758.808C121.221 758.868 121.553 758.994 121.872 759.186C122.195 759.377 122.464 759.667 122.677 760.054C122.89 760.441 122.996 760.96 122.996 761.609V767H121.739V765.892H121.675C121.59 766.07 121.448 766.26 121.249 766.462C121.05 766.664 120.786 766.837 120.455 766.979C120.125 767.121 119.722 767.192 119.246 767.192ZM119.438 766.062C119.935 766.062 120.354 765.965 120.695 765.77C121.04 765.574 121.299 765.322 121.473 765.013C121.65 764.704 121.739 764.379 121.739 764.038V762.888C121.686 762.952 121.569 763.01 121.388 763.064C121.21 763.113 121.004 763.158 120.77 763.197C120.539 763.232 120.313 763.264 120.093 763.293C119.877 763.317 119.701 763.339 119.566 763.357C119.239 763.399 118.934 763.468 118.65 763.564C118.369 763.657 118.142 763.797 117.968 763.985C117.797 764.17 117.712 764.422 117.712 764.741C117.712 765.178 117.874 765.509 118.197 765.732C118.524 765.952 118.937 766.062 119.438 766.062ZM126.548 762.078V767H125.291V758.818H126.505V760.097H126.612C126.803 759.681 127.095 759.347 127.485 759.095C127.876 758.839 128.38 758.712 128.998 758.712C129.552 758.712 130.037 758.825 130.452 759.053C130.868 759.276 131.191 759.617 131.422 760.075C131.653 760.53 131.768 761.105 131.768 761.801V767H130.511V761.886C130.511 761.244 130.344 760.743 130.01 760.384C129.676 760.022 129.218 759.841 128.636 759.841C128.235 759.841 127.876 759.928 127.56 760.102C127.247 760.276 127.001 760.53 126.819 760.864C126.638 761.197 126.548 761.602 126.548 762.078ZM135.322 756.091V767H134.065V756.091H135.322ZM142.781 763.655V758.818H144.038V767H142.781V765.615H142.696C142.504 766.031 142.206 766.384 141.801 766.675C141.396 766.963 140.885 767.107 140.267 767.107C139.755 767.107 139.301 766.995 138.903 766.771C138.505 766.544 138.193 766.203 137.966 765.748C137.738 765.29 137.625 764.713 137.625 764.017V758.818H138.882V763.932C138.882 764.528 139.049 765.004 139.383 765.359C139.72 765.714 140.15 765.892 140.672 765.892C140.984 765.892 141.302 765.812 141.625 765.652C141.952 765.493 142.225 765.248 142.445 764.917C142.669 764.587 142.781 764.166 142.781 763.655ZM149.664 767.17C148.897 767.17 148.237 766.989 147.683 766.627C147.129 766.265 146.703 765.766 146.404 765.13C146.106 764.495 145.957 763.768 145.957 762.952C145.957 762.121 146.11 761.387 146.415 760.752C146.724 760.113 147.154 759.614 147.704 759.255C148.258 758.893 148.904 758.712 149.643 758.712C150.218 758.712 150.737 758.818 151.198 759.031C151.66 759.244 152.038 759.543 152.333 759.926C152.628 760.31 152.811 760.757 152.882 761.268H151.625C151.529 760.896 151.316 760.565 150.985 760.278C150.659 759.987 150.218 759.841 149.664 759.841C149.174 759.841 148.745 759.969 148.375 760.224C148.01 760.477 147.724 760.833 147.518 761.295C147.315 761.753 147.214 762.291 147.214 762.909C147.214 763.541 147.314 764.092 147.512 764.56C147.715 765.029 147.999 765.393 148.365 765.652C148.734 765.912 149.167 766.041 149.664 766.041C149.991 766.041 150.288 765.984 150.554 765.871C150.82 765.757 151.046 765.594 151.23 765.381C151.415 765.168 151.546 764.912 151.625 764.614H152.882C152.811 765.097 152.635 765.532 152.354 765.919C152.077 766.302 151.71 766.608 151.252 766.835C150.797 767.059 150.268 767.17 149.664 767.17ZM157.127 767.192C156.609 767.192 156.138 767.094 155.716 766.899C155.293 766.7 154.957 766.414 154.709 766.041C154.46 765.665 154.336 765.21 154.336 764.678C154.336 764.209 154.428 763.829 154.613 763.538C154.798 763.243 155.044 763.012 155.353 762.845C155.662 762.678 156.003 762.554 156.376 762.472C156.752 762.387 157.131 762.32 157.511 762.27C158.008 762.206 158.411 762.158 158.72 762.126C159.032 762.091 159.26 762.032 159.402 761.95C159.547 761.869 159.62 761.727 159.62 761.524V761.482C159.62 760.956 159.476 760.548 159.189 760.256C158.904 759.965 158.473 759.82 157.894 759.82C157.294 759.82 156.823 759.951 156.483 760.214C156.142 760.477 155.902 760.757 155.763 761.055L154.57 760.629C154.783 760.132 155.067 759.745 155.423 759.468C155.781 759.187 156.172 758.992 156.594 758.882C157.021 758.768 157.44 758.712 157.852 758.712C158.114 758.712 158.416 758.744 158.757 758.808C159.102 758.868 159.434 758.994 159.753 759.186C160.076 759.377 160.344 759.667 160.557 760.054C160.771 760.441 160.877 760.96 160.877 761.609V767H159.62V765.892H159.556C159.471 766.07 159.329 766.26 159.13 766.462C158.931 766.664 158.667 766.837 158.336 766.979C158.006 767.121 157.603 767.192 157.127 767.192ZM157.319 766.062C157.816 766.062 158.235 765.965 158.576 765.77C158.92 765.574 159.18 765.322 159.354 765.013C159.531 764.704 159.62 764.379 159.62 764.038V762.888C159.567 762.952 159.45 763.01 159.268 763.064C159.091 763.113 158.885 763.158 158.651 763.197C158.42 763.232 158.194 763.264 157.974 763.293C157.757 763.317 157.582 763.339 157.447 763.357C157.12 763.399 156.815 763.468 156.53 763.564C156.25 763.657 156.023 763.797 155.849 763.985C155.678 764.17 155.593 764.422 155.593 764.741C155.593 765.178 155.755 765.509 156.078 765.732C156.404 765.952 156.818 766.062 157.319 766.062ZM170.48 767.149C169.762 767.149 169.145 767.018 168.626 766.755C168.108 766.492 167.708 766.132 167.428 765.674C167.147 765.216 167.007 764.692 167.007 764.102C167.007 763.648 167.103 763.245 167.294 762.893C167.49 762.538 167.758 762.21 168.099 761.908C168.443 761.602 168.839 761.297 169.287 760.991L170.863 759.82C171.172 759.617 171.419 759.401 171.604 759.17C171.792 758.939 171.886 758.637 171.886 758.264C171.886 757.987 171.764 757.719 171.519 757.46C171.277 757.201 170.959 757.071 170.565 757.071C170.288 757.071 170.043 757.142 169.83 757.284C169.62 757.423 169.455 757.6 169.335 757.817C169.217 758.03 169.159 758.25 169.159 758.477C169.159 758.733 169.228 758.992 169.367 759.255C169.509 759.514 169.688 759.781 169.905 760.054C170.125 760.324 170.352 760.601 170.586 760.885L175.593 767H174.081L169.947 762.014C169.564 761.553 169.216 761.134 168.903 760.757C168.591 760.381 168.342 760.01 168.157 759.644C167.973 759.278 167.88 758.882 167.88 758.456C167.88 757.966 167.989 757.536 168.205 757.167C168.425 756.794 168.733 756.505 169.127 756.299C169.525 756.089 169.99 755.984 170.522 755.984C171.069 755.984 171.54 756.091 171.934 756.304C172.328 756.513 172.632 756.792 172.845 757.14C173.058 757.485 173.164 757.859 173.164 758.264C173.164 758.786 173.035 759.239 172.776 759.623C172.516 760.006 172.163 760.363 171.716 760.693L169.542 762.312C169.052 762.675 168.72 763.026 168.546 763.367C168.372 763.708 168.285 763.953 168.285 764.102C168.285 764.443 168.374 764.761 168.552 765.056C168.729 765.35 168.979 765.588 169.303 765.77C169.626 765.951 170.004 766.041 170.437 766.041C170.849 766.041 171.25 765.954 171.641 765.78C172.032 765.603 172.385 765.347 172.701 765.013C173.021 764.679 173.273 764.278 173.457 763.809C173.646 763.341 173.74 762.813 173.74 762.227H174.954C174.954 762.952 174.871 763.543 174.704 764.001C174.537 764.459 174.349 764.818 174.139 765.077C173.93 765.336 173.761 765.53 173.633 765.658C173.591 765.711 173.552 765.764 173.516 765.817C173.481 765.871 173.441 765.924 173.399 765.977C173.047 766.371 172.603 766.666 172.067 766.862C171.531 767.053 171.002 767.149 170.48 767.149ZM185.55 756.091H186.871V763.889C186.871 764.585 186.744 765.176 186.488 765.663C186.232 766.15 185.872 766.519 185.407 766.771C184.941 767.023 184.393 767.149 183.761 767.149C183.164 767.149 182.633 767.041 182.168 766.824C181.703 766.604 181.337 766.292 181.071 765.887C180.804 765.482 180.671 765.001 180.671 764.443H181.971C181.971 764.752 182.047 765.022 182.2 765.253C182.356 765.48 182.569 765.658 182.839 765.786C183.109 765.913 183.416 765.977 183.761 765.977C184.141 765.977 184.464 765.897 184.73 765.738C184.996 765.578 185.199 765.343 185.337 765.034C185.479 764.722 185.55 764.34 185.55 763.889V756.091ZM192.672 767.17C191.934 767.17 191.285 766.995 190.728 766.643C190.174 766.292 189.741 765.8 189.428 765.168C189.119 764.536 188.965 763.797 188.965 762.952C188.965 762.099 189.119 761.355 189.428 760.72C189.741 760.084 190.174 759.591 190.728 759.239C191.285 758.887 191.934 758.712 192.672 758.712C193.411 758.712 194.057 758.887 194.611 759.239C195.169 759.591 195.602 760.084 195.911 760.72C196.223 761.355 196.38 762.099 196.38 762.952C196.38 763.797 196.223 764.536 195.911 765.168C195.602 765.8 195.169 766.292 194.611 766.643C194.057 766.995 193.411 767.17 192.672 767.17ZM192.672 766.041C193.233 766.041 193.695 765.897 194.057 765.61C194.419 765.322 194.687 764.944 194.861 764.475C195.035 764.006 195.122 763.499 195.122 762.952C195.122 762.405 195.035 761.895 194.861 761.423C194.687 760.951 194.419 760.569 194.057 760.278C193.695 759.987 193.233 759.841 192.672 759.841C192.111 759.841 191.649 759.987 191.287 760.278C190.925 760.569 190.657 760.951 190.483 761.423C190.309 761.895 190.222 762.405 190.222 762.952C190.222 763.499 190.309 764.006 190.483 764.475C190.657 764.944 190.925 765.322 191.287 765.61C191.649 765.897 192.111 766.041 192.672 766.041ZM200.706 767.192C200.188 767.192 199.717 767.094 199.295 766.899C198.872 766.7 198.536 766.414 198.288 766.041C198.039 765.665 197.915 765.21 197.915 764.678C197.915 764.209 198.007 763.829 198.192 763.538C198.377 763.243 198.623 763.012 198.932 762.845C199.241 762.678 199.582 762.554 199.955 762.472C200.332 762.387 200.71 762.32 201.09 762.27C201.587 762.206 201.99 762.158 202.299 762.126C202.611 762.091 202.839 762.032 202.981 761.95C203.126 761.869 203.199 761.727 203.199 761.524V761.482C203.199 760.956 203.055 760.548 202.768 760.256C202.484 759.965 202.052 759.82 201.473 759.82C200.873 759.82 200.403 759.951 200.062 760.214C199.721 760.477 199.481 760.757 199.343 761.055L198.149 760.629C198.362 760.132 198.647 759.745 199.002 759.468C199.36 759.187 199.751 758.992 200.174 758.882C200.6 758.768 201.019 758.712 201.431 758.712C201.693 758.712 201.995 758.744 202.336 758.808C202.681 758.868 203.013 758.994 203.332 759.186C203.655 759.377 203.924 759.667 204.137 760.054C204.35 760.441 204.456 760.96 204.456 761.609V767H203.199V765.892H203.135C203.05 766.07 202.908 766.26 202.709 766.462C202.51 766.664 202.246 766.837 201.915 766.979C201.585 767.121 201.182 767.192 200.706 767.192ZM200.898 766.062C201.395 766.062 201.814 765.965 202.155 765.77C202.5 765.574 202.759 765.322 202.933 765.013C203.11 764.704 203.199 764.379 203.199 764.038V762.888C203.146 762.952 203.029 763.01 202.848 763.064C202.67 763.113 202.464 763.158 202.23 763.197C201.999 763.232 201.773 763.264 201.553 763.293C201.337 763.317 201.161 763.339 201.026 763.357C200.699 763.399 200.394 763.468 200.11 763.564C199.829 763.657 199.602 763.797 199.428 763.985C199.257 764.17 199.172 764.422 199.172 764.741C199.172 765.178 199.334 765.509 199.657 765.732C199.984 765.952 200.397 766.062 200.898 766.062ZM199.875 757.838L198.895 757.795C198.895 757.252 199.05 756.808 199.359 756.464C199.671 756.116 200.056 755.942 200.514 755.942C200.717 755.942 200.896 755.977 201.052 756.048C201.209 756.116 201.358 756.194 201.5 756.283C201.642 756.371 201.788 756.451 201.937 756.522C202.089 756.59 202.262 756.624 202.453 756.624C202.656 756.624 202.826 756.545 202.965 756.389C203.107 756.229 203.178 756.038 203.178 755.814L204.137 755.899C204.137 756.453 203.98 756.893 203.668 757.22C203.359 757.547 202.975 757.71 202.517 757.71C202.272 757.71 202.07 757.676 201.91 757.609C201.75 757.538 201.608 757.458 201.484 757.369C201.36 757.281 201.228 757.202 201.09 757.135C200.951 757.064 200.781 757.028 200.578 757.028C200.376 757.028 200.207 757.108 200.072 757.268C199.941 757.424 199.875 757.614 199.875 757.838ZM210.075 767.17C209.336 767.17 208.688 766.995 208.13 766.643C207.576 766.292 207.143 765.8 206.831 765.168C206.522 764.536 206.367 763.797 206.367 762.952C206.367 762.099 206.522 761.355 206.831 760.72C207.143 760.084 207.576 759.591 208.13 759.239C208.688 758.887 209.336 758.712 210.075 758.712C210.813 758.712 211.459 758.887 212.013 759.239C212.571 759.591 213.004 760.084 213.313 760.72C213.626 761.355 213.782 762.099 213.782 762.952C213.782 763.797 213.626 764.536 213.313 765.168C213.004 765.8 212.571 766.292 212.013 766.643C211.459 766.995 210.813 767.17 210.075 767.17ZM210.075 766.041C210.636 766.041 211.097 765.897 211.459 765.61C211.822 765.322 212.09 764.944 212.264 764.475C212.438 764.006 212.525 763.499 212.525 762.952C212.525 762.405 212.438 761.895 212.264 761.423C212.09 760.951 211.822 760.569 211.459 760.278C211.097 759.987 210.636 759.841 210.075 759.841C209.513 759.841 209.052 759.987 208.69 760.278C208.327 760.569 208.059 760.951 207.885 761.423C207.711 761.895 207.624 762.405 207.624 762.952C207.624 763.499 207.711 764.006 207.885 764.475C208.059 764.944 208.327 765.322 208.69 765.61C209.052 765.897 209.513 766.041 210.075 766.041ZM220.09 767V756.091H223.776C224.632 756.091 225.332 756.245 225.875 756.554C226.422 756.86 226.827 757.273 227.089 757.795C227.352 758.317 227.484 758.9 227.484 759.543C227.484 760.185 227.352 760.77 227.089 761.295C226.83 761.821 226.429 762.24 225.886 762.552C225.342 762.861 224.646 763.016 223.797 763.016H221.155V761.844H223.755C224.341 761.844 224.811 761.743 225.166 761.54C225.522 761.338 225.779 761.064 225.939 760.72C226.102 760.372 226.184 759.979 226.184 759.543C226.184 759.106 226.102 758.715 225.939 758.371C225.779 758.026 225.52 757.756 225.161 757.561C224.802 757.362 224.327 757.263 223.734 757.263H221.411V767H220.09ZM232.784 767.17C231.995 767.17 231.315 766.996 230.743 766.648C230.175 766.297 229.737 765.807 229.428 765.178C229.122 764.546 228.97 763.811 228.97 762.973C228.97 762.135 229.122 761.396 229.428 760.757C229.737 760.114 230.166 759.614 230.717 759.255C231.271 758.893 231.917 758.712 232.656 758.712C233.082 758.712 233.503 758.783 233.918 758.925C234.334 759.067 234.712 759.298 235.053 759.617C235.394 759.933 235.665 760.352 235.868 760.874C236.07 761.396 236.171 762.039 236.171 762.803V763.335H229.865V762.249H234.893C234.893 761.787 234.801 761.375 234.616 761.013C234.435 760.651 234.176 760.365 233.838 760.155C233.504 759.946 233.11 759.841 232.656 759.841C232.155 759.841 231.722 759.965 231.356 760.214C230.994 760.459 230.715 760.778 230.52 761.173C230.324 761.567 230.227 761.989 230.227 762.44V763.165C230.227 763.783 230.333 764.306 230.546 764.736C230.763 765.162 231.063 765.487 231.447 765.711C231.83 765.931 232.276 766.041 232.784 766.041C233.114 766.041 233.412 765.995 233.678 765.903C233.948 765.807 234.181 765.665 234.376 765.477C234.572 765.285 234.723 765.047 234.829 764.763L236.044 765.104C235.916 765.516 235.701 765.878 235.399 766.19C235.097 766.499 234.724 766.741 234.28 766.915C233.837 767.085 233.338 767.17 232.784 767.17ZM241.173 767.17C240.491 767.17 239.889 766.998 239.367 766.654C238.845 766.306 238.437 765.816 238.142 765.184C237.848 764.548 237.7 763.797 237.7 762.93C237.7 762.071 237.848 761.325 238.142 760.693C238.437 760.061 238.847 759.573 239.373 759.228C239.898 758.884 240.506 758.712 241.194 758.712C241.727 758.712 242.148 758.8 242.457 758.978C242.769 759.152 243.007 759.351 243.171 759.575C243.338 759.795 243.467 759.976 243.56 760.118H243.666V756.091H244.923V767H243.709V765.743H243.56C243.467 765.892 243.336 766.08 243.165 766.308C242.995 766.531 242.752 766.732 242.436 766.909C242.12 767.083 241.699 767.17 241.173 767.17ZM241.344 766.041C241.848 766.041 242.274 765.91 242.622 765.647C242.97 765.381 243.235 765.013 243.416 764.544C243.597 764.072 243.687 763.527 243.687 762.909C243.687 762.298 243.599 761.764 243.421 761.306C243.243 760.844 242.981 760.485 242.633 760.23C242.285 759.971 241.855 759.841 241.344 759.841C240.811 759.841 240.367 759.978 240.012 760.251C239.66 760.521 239.396 760.888 239.218 761.354C239.044 761.815 238.957 762.334 238.957 762.909C238.957 763.491 239.046 764.021 239.224 764.496C239.405 764.969 239.671 765.345 240.023 765.626C240.378 765.903 240.818 766.041 241.344 766.041ZM247.4 767V758.818H248.615V760.054H248.7C248.849 759.649 249.119 759.321 249.509 759.069C249.9 758.816 250.34 758.69 250.83 758.69C250.923 758.69 251.038 758.692 251.177 758.696C251.315 758.699 251.42 758.705 251.491 758.712V759.99C251.448 759.979 251.351 759.963 251.198 759.942C251.049 759.917 250.891 759.905 250.724 759.905C250.326 759.905 249.971 759.988 249.659 760.155C249.35 760.319 249.105 760.546 248.924 760.837C248.746 761.125 248.657 761.453 248.657 761.822V767H247.4ZM256.056 767.17C255.317 767.17 254.669 766.995 254.112 766.643C253.558 766.292 253.125 765.8 252.812 765.168C252.503 764.536 252.349 763.797 252.349 762.952C252.349 762.099 252.503 761.355 252.812 760.72C253.125 760.084 253.558 759.591 254.112 759.239C254.669 758.887 255.317 758.712 256.056 758.712C256.795 758.712 257.441 758.887 257.995 759.239C258.552 759.591 258.986 760.084 259.295 760.72C259.607 761.355 259.763 762.099 259.763 762.952C259.763 763.797 259.607 764.536 259.295 765.168C258.986 765.8 258.552 766.292 257.995 766.643C257.441 766.995 256.795 767.17 256.056 767.17ZM256.056 766.041C256.617 766.041 257.079 765.897 257.441 765.61C257.803 765.322 258.071 764.944 258.245 764.475C258.419 764.006 258.506 763.499 258.506 762.952C258.506 762.405 258.419 761.895 258.245 761.423C258.071 760.951 257.803 760.569 257.441 760.278C257.079 759.987 256.617 759.841 256.056 759.841C255.495 759.841 255.033 759.987 254.671 760.278C254.309 760.569 254.041 760.951 253.867 761.423C253.693 761.895 253.606 762.405 253.606 762.952C253.606 763.499 253.693 764.006 253.867 764.475C254.041 764.944 254.309 765.322 254.671 765.61C255.033 765.897 255.495 766.041 256.056 766.041Z" fill="black"/>
<rect x="74" y="652" width="212" height="55" rx="15" fill="#285DFC"/>
<path d="M141.606 684V675.273H147.487V676.794H143.451V678.874H147.184V680.395H143.451V682.479H147.504V684H141.606ZM150.437 677.455L151.638 679.743L152.87 677.455H154.732L152.836 680.727L154.783 684H152.93L151.638 681.737L150.369 684H148.494L150.437 680.727L148.562 677.455H150.437ZM155.81 684V677.455H157.626V684H155.81ZM156.722 676.611C156.452 676.611 156.221 676.521 156.028 676.342C155.837 676.161 155.742 675.943 155.742 675.69C155.742 675.44 155.837 675.226 156.028 675.047C156.221 674.865 156.452 674.774 156.722 674.774C156.992 674.774 157.222 674.865 157.413 675.047C157.606 675.226 157.702 675.44 157.702 675.69C157.702 675.943 157.606 676.161 157.413 676.342C157.222 676.521 156.992 676.611 156.722 676.611ZM159.114 684V675.273H160.929V678.554H160.985C161.064 678.378 161.179 678.199 161.33 678.017C161.483 677.832 161.682 677.679 161.926 677.557C162.174 677.432 162.48 677.369 162.847 677.369C163.324 677.369 163.765 677.494 164.168 677.744C164.571 677.991 164.894 678.365 165.135 678.865C165.377 679.362 165.498 679.986 165.498 680.736C165.498 681.466 165.38 682.082 165.144 682.585C164.911 683.085 164.593 683.464 164.189 683.723C163.789 683.979 163.34 684.107 162.843 684.107C162.49 684.107 162.191 684.048 161.944 683.932C161.699 683.815 161.499 683.669 161.343 683.493C161.186 683.314 161.067 683.134 160.985 682.952H160.904V684H159.114ZM160.891 680.727C160.891 681.116 160.945 681.456 161.053 681.746C161.161 682.036 161.317 682.261 161.522 682.423C161.726 682.582 161.975 682.662 162.267 682.662C162.563 682.662 162.813 682.581 163.017 682.419C163.222 682.254 163.377 682.027 163.482 681.737C163.59 681.445 163.644 681.108 163.644 680.727C163.644 680.349 163.591 680.017 163.486 679.73C163.381 679.443 163.226 679.219 163.022 679.057C162.817 678.895 162.566 678.814 162.267 678.814C161.972 678.814 161.722 678.892 161.517 679.048C161.316 679.205 161.161 679.426 161.053 679.713C160.945 680 160.891 680.338 160.891 680.727ZM166.709 684V677.455H168.524V684H166.709ZM167.621 676.611C167.351 676.611 167.119 676.521 166.926 676.342C166.736 676.161 166.641 675.943 166.641 675.69C166.641 675.44 166.736 675.226 166.926 675.047C167.119 674.865 167.351 674.774 167.621 674.774C167.891 674.774 168.121 674.865 168.311 675.047C168.504 675.226 168.601 675.44 168.601 675.69C168.601 675.943 168.504 676.161 168.311 676.342C168.121 676.521 167.891 676.611 167.621 676.611ZM169.978 684V677.455H171.738V678.597H171.806C171.926 678.19 172.126 677.884 172.407 677.676C172.689 677.466 173.012 677.361 173.379 677.361C173.47 677.361 173.568 677.366 173.673 677.378C173.778 677.389 173.87 677.405 173.95 677.425V679.036C173.865 679.01 173.747 678.987 173.596 678.967C173.446 678.947 173.308 678.938 173.183 678.938C172.916 678.938 172.677 678.996 172.467 679.112C172.26 679.226 172.095 679.385 171.973 679.589C171.853 679.794 171.794 680.03 171.794 680.297V684H169.978ZM180.615 686.591C180.027 686.591 179.522 686.51 179.102 686.348C178.684 686.189 178.352 685.972 178.105 685.696C177.858 685.42 177.697 685.111 177.623 684.767L179.302 684.541C179.353 684.672 179.434 684.794 179.545 684.908C179.656 685.021 179.802 685.112 179.984 685.18C180.169 685.251 180.393 685.287 180.657 685.287C181.052 685.287 181.377 685.19 181.633 684.997C181.892 684.807 182.021 684.487 182.021 684.038V682.841H181.944C181.865 683.023 181.745 683.195 181.586 683.357C181.427 683.518 181.223 683.651 180.973 683.753C180.723 683.855 180.424 683.906 180.078 683.906C179.586 683.906 179.139 683.793 178.735 683.565C178.335 683.335 178.015 682.984 177.777 682.513C177.541 682.038 177.423 681.439 177.423 680.714C177.423 679.973 177.544 679.354 177.785 678.857C178.027 678.359 178.348 677.987 178.748 677.74C179.152 677.493 179.593 677.369 180.074 677.369C180.44 677.369 180.747 677.432 180.994 677.557C181.241 677.679 181.44 677.832 181.591 678.017C181.744 678.199 181.862 678.378 181.944 678.554H182.012V677.455H183.815V684.064C183.815 684.621 183.679 685.087 183.406 685.462C183.133 685.837 182.755 686.118 182.272 686.305C181.792 686.496 181.24 686.591 180.615 686.591ZM180.653 682.543C180.946 682.543 181.193 682.47 181.395 682.325C181.599 682.178 181.755 681.967 181.863 681.695C181.974 681.419 182.029 681.089 182.029 680.706C182.029 680.322 181.975 679.99 181.868 679.709C181.76 679.425 181.603 679.205 181.399 679.048C181.194 678.892 180.946 678.814 180.653 678.814C180.355 678.814 180.103 678.895 179.899 679.057C179.694 679.216 179.539 679.437 179.434 679.722C179.329 680.006 179.277 680.334 179.277 680.706C179.277 681.084 179.329 681.411 179.434 681.686C179.542 681.959 179.697 682.17 179.899 682.321C180.103 682.469 180.355 682.543 180.653 682.543ZM185.26 684V677.455H187.02V678.597H187.088C187.207 678.19 187.407 677.884 187.689 677.676C187.97 677.466 188.294 677.361 188.66 677.361C188.751 677.361 188.849 677.366 188.954 677.378C189.059 677.389 189.152 677.405 189.231 677.425V679.036C189.146 679.01 189.028 678.987 188.877 678.967C188.727 678.947 188.589 678.938 188.464 678.938C188.197 678.938 187.958 678.996 187.748 679.112C187.541 679.226 187.376 679.385 187.254 679.589C187.135 679.794 187.075 680.03 187.075 680.297V684H185.26ZM191.849 684.124C191.431 684.124 191.059 684.051 190.732 683.906C190.406 683.759 190.147 683.541 189.957 683.254C189.769 682.964 189.675 682.604 189.675 682.172C189.675 681.808 189.742 681.503 189.876 681.256C190.009 681.009 190.191 680.81 190.421 680.659C190.651 680.509 190.913 680.395 191.205 680.318C191.501 680.241 191.81 680.188 192.134 680.156C192.515 680.116 192.822 680.08 193.055 680.045C193.288 680.009 193.457 679.955 193.562 679.884C193.667 679.812 193.719 679.707 193.719 679.568V679.543C193.719 679.273 193.634 679.064 193.464 678.916C193.296 678.768 193.058 678.695 192.748 678.695C192.421 678.695 192.161 678.767 191.968 678.912C191.775 679.054 191.647 679.233 191.585 679.449L189.906 679.312C189.991 678.915 190.158 678.571 190.408 678.281C190.658 677.989 190.981 677.764 191.376 677.608C191.773 677.449 192.234 677.369 192.756 677.369C193.12 677.369 193.468 677.412 193.8 677.497C194.136 677.582 194.433 677.714 194.691 677.893C194.952 678.072 195.158 678.303 195.309 678.584C195.46 678.862 195.535 679.196 195.535 679.585V684H193.813V683.092H193.762C193.657 683.297 193.516 683.477 193.34 683.634C193.164 683.787 192.952 683.908 192.705 683.996C192.458 684.081 192.173 684.124 191.849 684.124ZM192.369 682.871C192.636 682.871 192.871 682.818 193.076 682.713C193.281 682.605 193.441 682.46 193.558 682.278C193.674 682.097 193.732 681.891 193.732 681.661V680.966C193.675 681.003 193.597 681.037 193.498 681.068C193.401 681.097 193.292 681.124 193.17 681.149C193.048 681.172 192.925 681.193 192.803 681.213C192.681 681.23 192.57 681.246 192.471 681.26C192.258 681.291 192.072 681.341 191.913 681.409C191.754 681.477 191.63 681.57 191.542 681.686C191.454 681.8 191.41 681.942 191.41 682.112C191.41 682.359 191.499 682.548 191.678 682.679C191.86 682.807 192.09 682.871 192.369 682.871ZM192.173 676.611L193.076 674.672H194.755L193.455 676.611H192.173ZM200.463 677.455V678.818H196.423V677.455H200.463ZM197.348 684V676.982C197.348 676.507 197.44 676.114 197.625 675.801C197.812 675.489 198.068 675.254 198.392 675.098C198.716 674.942 199.084 674.864 199.496 674.864C199.774 674.864 200.028 674.885 200.259 674.928C200.491 674.97 200.665 675.009 200.778 675.043L200.455 676.406C200.384 676.384 200.295 676.362 200.19 676.342C200.088 676.322 199.983 676.312 199.875 676.312C199.608 676.312 199.422 676.375 199.317 676.5C199.212 676.622 199.159 676.794 199.159 677.016V684H197.348ZM201.572 684V677.455H203.387V684H201.572ZM202.484 676.611C202.214 676.611 201.983 676.521 201.789 676.342C201.599 676.161 201.504 675.943 201.504 675.69C201.504 675.44 201.599 675.226 201.789 675.047C201.983 674.865 202.214 674.774 202.484 674.774C202.754 674.774 202.984 674.865 203.174 675.047C203.368 675.226 203.464 675.44 203.464 675.69C203.464 675.943 203.368 676.161 203.174 676.342C202.984 676.521 202.754 676.611 202.484 676.611ZM207.799 684.128C207.129 684.128 206.552 683.986 206.069 683.702C205.589 683.415 205.219 683.017 204.961 682.509C204.705 682 204.577 681.415 204.577 680.753C204.577 680.082 204.707 679.494 204.965 678.989C205.227 678.48 205.597 678.084 206.077 677.8C206.558 677.513 207.129 677.369 207.79 677.369C208.362 677.369 208.862 677.473 209.29 677.68C209.719 677.888 210.059 678.179 210.309 678.554C210.559 678.929 210.697 679.369 210.722 679.875H209.009C208.961 679.548 208.833 679.286 208.626 679.087C208.421 678.885 208.153 678.784 207.82 678.784C207.539 678.784 207.293 678.861 207.083 679.014C206.876 679.165 206.714 679.385 206.597 679.675C206.481 679.964 206.423 680.315 206.423 680.727C206.423 681.145 206.479 681.5 206.593 681.793C206.71 682.085 206.873 682.308 207.083 682.462C207.293 682.615 207.539 682.692 207.82 682.692C208.028 682.692 208.214 682.649 208.379 682.564C208.546 682.479 208.684 682.355 208.792 682.193C208.903 682.028 208.975 681.831 209.009 681.601H210.722C210.694 682.101 210.558 682.541 210.313 682.922C210.072 683.3 209.738 683.595 209.312 683.808C208.886 684.021 208.381 684.128 207.799 684.128ZM214.842 684.128C214.18 684.128 213.608 683.987 213.125 683.706C212.645 683.422 212.274 683.027 212.012 682.521C211.751 682.013 211.62 681.423 211.62 680.753C211.62 680.077 211.751 679.486 212.012 678.98C212.274 678.472 212.645 678.077 213.125 677.795C213.608 677.511 214.18 677.369 214.842 677.369C215.504 677.369 216.075 677.511 216.555 677.795C217.038 678.077 217.41 678.472 217.672 678.98C217.933 679.486 218.064 680.077 218.064 680.753C218.064 681.423 217.933 682.013 217.672 682.521C217.41 683.027 217.038 683.422 216.555 683.706C216.075 683.987 215.504 684.128 214.842 684.128ZM214.851 682.722C215.152 682.722 215.403 682.636 215.605 682.466C215.806 682.293 215.958 682.057 216.061 681.759C216.166 681.46 216.218 681.121 216.218 680.74C216.218 680.359 216.166 680.02 216.061 679.722C215.958 679.423 215.806 679.187 215.605 679.014C215.403 678.841 215.152 678.754 214.851 678.754C214.547 678.754 214.291 678.841 214.083 679.014C213.879 679.187 213.724 679.423 213.619 679.722C213.517 680.02 213.466 680.359 213.466 680.74C213.466 681.121 213.517 681.46 213.619 681.759C213.724 682.057 213.879 682.293 214.083 682.466C214.291 682.636 214.547 682.722 214.851 682.722Z" fill="white"/>
<path d="M13.3295 515V512.81L22.0398 500.588H13.3125V497.545H26.6761V499.736L17.9574 511.957H26.6932V515H13.3295ZM35.4226 515.256C34.076 515.256 32.9169 514.983 31.9453 514.438C30.9794 513.886 30.2351 513.108 29.7124 512.102C29.1896 511.091 28.9283 509.895 28.9283 508.514C28.9283 507.168 29.1896 505.986 29.7124 504.969C30.2351 503.952 30.9709 503.159 31.9197 502.591C32.8743 502.023 33.9936 501.739 35.2777 501.739C36.1413 501.739 36.9453 501.878 37.6896 502.156C38.4396 502.429 39.093 502.841 39.6499 503.392C40.2124 503.943 40.6499 504.636 40.9624 505.472C41.2749 506.301 41.4311 507.273 41.4311 508.386V509.384H30.3771V507.134H38.0135C38.0135 506.611 37.8999 506.148 37.6726 505.744C37.4453 505.341 37.13 505.026 36.7266 504.798C36.3288 504.565 35.8658 504.449 35.3374 504.449C34.7862 504.449 34.2976 504.577 33.8714 504.832C33.451 505.082 33.1214 505.42 32.8828 505.847C32.6442 506.267 32.522 506.736 32.5163 507.253V509.392C32.5163 510.04 32.6357 510.599 32.8743 511.071C33.1186 511.543 33.4624 511.906 33.9055 512.162C34.3487 512.418 34.8743 512.545 35.4822 512.545C35.8857 512.545 36.255 512.489 36.5902 512.375C36.9254 512.261 37.2124 512.091 37.451 511.864C37.6896 511.636 37.8714 511.358 37.9964 511.028L41.3544 511.25C41.1839 512.057 40.8345 512.761 40.3061 513.364C39.7834 513.96 39.1072 514.426 38.2777 514.761C37.4538 515.091 36.5021 515.256 35.4226 515.256ZM43.8004 515V501.909H47.3203V504.193H47.4567C47.6953 503.381 48.0959 502.767 48.6584 502.352C49.2209 501.932 49.8686 501.722 50.6016 501.722C50.7834 501.722 50.9794 501.733 51.1896 501.756C51.3999 501.778 51.5845 501.81 51.7436 501.849V505.071C51.5732 505.02 51.3374 504.974 51.0362 504.935C50.7351 504.895 50.4595 504.875 50.2095 504.875C49.6754 504.875 49.1982 504.991 48.7777 505.224C48.3629 505.452 48.0334 505.77 47.7891 506.179C47.5504 506.588 47.4311 507.06 47.4311 507.594V515H43.8004ZM58.9261 515.256C57.6023 515.256 56.4574 514.974 55.4915 514.412C54.5313 513.844 53.7898 513.054 53.267 512.043C52.7443 511.026 52.483 509.847 52.483 508.506C52.483 507.153 52.7443 505.972 53.267 504.96C53.7898 503.943 54.5313 503.153 55.4915 502.591C56.4574 502.023 57.6023 501.739 58.9261 501.739C60.25 501.739 61.392 502.023 62.3523 502.591C63.3182 503.153 64.0625 503.943 64.5852 504.96C65.108 505.972 65.3693 507.153 65.3693 508.506C65.3693 509.847 65.108 511.026 64.5852 512.043C64.0625 513.054 63.3182 513.844 62.3523 514.412C61.392 514.974 60.25 515.256 58.9261 515.256ZM58.9432 512.443C59.5455 512.443 60.0483 512.273 60.4517 511.932C60.8551 511.585 61.1591 511.114 61.3636 510.517C61.5739 509.92 61.679 509.241 61.679 508.48C61.679 507.719 61.5739 507.04 61.3636 506.443C61.1591 505.847 60.8551 505.375 60.4517 505.028C60.0483 504.682 59.5455 504.509 58.9432 504.509C58.3352 504.509 57.8239 504.682 57.4091 505.028C57 505.375 56.6903 505.847 56.4801 506.443C56.2756 507.04 56.1733 507.719 56.1733 508.48C56.1733 509.241 56.2756 509.92 56.4801 510.517C56.6903 511.114 57 511.585 57.4091 511.932C57.8239 512.273 58.3352 512.443 58.9432 512.443ZM78.1087 515.213C77.1143 515.213 76.2138 514.957 75.407 514.446C74.6058 513.929 73.9695 513.17 73.4979 512.17C73.032 511.165 72.799 509.932 72.799 508.472C72.799 506.972 73.0405 505.724 73.5234 504.73C74.0064 503.73 74.6484 502.983 75.4496 502.489C76.2564 501.989 77.1399 501.739 78.1001 501.739C78.8331 501.739 79.4439 501.864 79.9325 502.114C80.4268 502.358 80.8246 502.665 81.1257 503.034C81.4325 503.398 81.6655 503.756 81.8246 504.108H81.9354V497.545H85.5575V515H81.978V512.903H81.8246C81.6541 513.267 81.4126 513.628 81.1001 513.986C80.7933 514.338 80.3928 514.631 79.8984 514.864C79.4098 515.097 78.8132 515.213 78.1087 515.213ZM79.2592 512.324C79.8445 512.324 80.3388 512.165 80.7422 511.847C81.1513 511.523 81.4638 511.071 81.6797 510.491C81.9013 509.912 82.0121 509.233 82.0121 508.455C82.0121 507.676 81.9041 507 81.6882 506.426C81.4723 505.852 81.1598 505.409 80.7507 505.097C80.3416 504.784 79.8445 504.628 79.2592 504.628C78.6626 504.628 78.1598 504.79 77.7507 505.114C77.3416 505.437 77.032 505.886 76.8217 506.46C76.6115 507.034 76.5064 507.699 76.5064 508.455C76.5064 509.216 76.6115 509.889 76.8217 510.474C77.0376 511.054 77.3473 511.509 77.7507 511.838C78.1598 512.162 78.6626 512.324 79.2592 512.324ZM94.5085 515.256C93.1619 515.256 92.0028 514.983 91.0312 514.438C90.0653 513.886 89.321 513.108 88.7983 512.102C88.2756 511.091 88.0142 509.895 88.0142 508.514C88.0142 507.168 88.2756 505.986 88.7983 504.969C89.321 503.952 90.0568 503.159 91.0057 502.591C91.9602 502.023 93.0795 501.739 94.3636 501.739C95.2273 501.739 96.0313 501.878 96.7756 502.156C97.5256 502.429 98.179 502.841 98.7358 503.392C99.2983 503.943 99.7358 504.636 100.048 505.472C100.361 506.301 100.517 507.273 100.517 508.386V509.384H89.4631V507.134H97.0994C97.0994 506.611 96.9858 506.148 96.7585 505.744C96.5313 505.341 96.2159 505.026 95.8125 504.798C95.4148 504.565 94.9517 504.449 94.4233 504.449C93.8722 504.449 93.3835 504.577 92.9574 504.832C92.5369 505.082 92.2074 505.42 91.9688 505.847C91.7301 506.267 91.608 506.736 91.6023 507.253V509.392C91.6023 510.04 91.7216 510.599 91.9602 511.071C92.2045 511.543 92.5483 511.906 92.9915 512.162C93.4347 512.418 93.9602 512.545 94.5682 512.545C94.9716 512.545 95.3409 512.489 95.6761 512.375C96.0114 512.261 96.2983 512.091 96.5369 511.864C96.7756 511.636 96.9574 511.358 97.0824 511.028L100.44 511.25C100.27 512.057 99.9205 512.761 99.392 513.364C98.8693 513.96 98.1932 514.426 97.3636 514.761C96.5398 515.091 95.5881 515.256 94.5085 515.256ZM108.509 515V497.545H120.066V500.588H112.2V504.747H119.299V507.79H112.2V515H108.509ZM130.055 509.426V501.909H133.685V515H130.2V512.622H130.063C129.768 513.389 129.276 514.006 128.589 514.472C127.907 514.937 127.075 515.17 126.092 515.17C125.217 515.17 124.447 514.972 123.782 514.574C123.117 514.176 122.597 513.611 122.222 512.878C121.853 512.145 121.665 511.267 121.66 510.244V501.909H125.29V509.597C125.296 510.369 125.504 510.98 125.913 511.429C126.322 511.878 126.87 512.102 127.558 512.102C127.995 512.102 128.404 512.003 128.785 511.804C129.165 511.599 129.472 511.298 129.705 510.901C129.944 510.503 130.06 510.011 130.055 509.426ZM140.22 507.432V515H136.589V501.909H140.05V504.219H140.203C140.493 503.457 140.979 502.855 141.661 502.412C142.342 501.963 143.169 501.739 144.141 501.739C145.05 501.739 145.842 501.938 146.518 502.335C147.195 502.733 147.72 503.301 148.095 504.04C148.47 504.773 148.658 505.648 148.658 506.665V515H145.027V507.312C145.033 506.511 144.828 505.886 144.413 505.438C143.999 504.983 143.428 504.756 142.7 504.756C142.212 504.756 141.78 504.861 141.405 505.071C141.036 505.281 140.746 505.588 140.536 505.991C140.331 506.389 140.226 506.869 140.22 507.432ZM157.434 515.256C156.093 515.256 154.94 514.972 153.974 514.403C153.013 513.83 152.275 513.034 151.758 512.017C151.246 511 150.991 509.83 150.991 508.506C150.991 507.165 151.249 505.989 151.766 504.977C152.289 503.96 153.031 503.168 153.991 502.599C154.951 502.026 156.093 501.739 157.417 501.739C158.559 501.739 159.559 501.946 160.417 502.361C161.275 502.776 161.954 503.358 162.454 504.108C162.954 504.858 163.229 505.739 163.281 506.75H159.854C159.758 506.097 159.502 505.571 159.087 505.173C158.678 504.77 158.141 504.568 157.477 504.568C156.914 504.568 156.423 504.722 156.002 505.028C155.587 505.33 155.263 505.77 155.031 506.349C154.798 506.929 154.681 507.631 154.681 508.455C154.681 509.29 154.795 510 155.022 510.585C155.255 511.17 155.582 511.616 156.002 511.923C156.423 512.23 156.914 512.384 157.477 512.384C157.891 512.384 158.263 512.298 158.593 512.128C158.928 511.957 159.204 511.71 159.42 511.386C159.641 511.057 159.786 510.662 159.854 510.202H163.281C163.224 511.202 162.951 512.082 162.462 512.844C161.979 513.599 161.312 514.19 160.46 514.616C159.607 515.043 158.599 515.256 157.434 515.256ZM156.582 514.932H158.252L158.116 515.673C158.701 515.764 159.178 515.983 159.548 516.33C159.923 516.676 160.113 517.148 160.119 517.744C160.124 518.591 159.732 519.264 158.942 519.764C158.153 520.27 157.045 520.523 155.619 520.523L155.585 518.903C156.3 518.903 156.86 518.815 157.263 518.639C157.673 518.469 157.886 518.202 157.903 517.838C157.914 517.491 157.781 517.227 157.502 517.045C157.224 516.864 156.789 516.736 156.198 516.662L156.582 514.932ZM171.52 515.256C170.196 515.256 169.051 514.974 168.085 514.412C167.125 513.844 166.384 513.054 165.861 512.043C165.338 511.026 165.077 509.847 165.077 508.506C165.077 507.153 165.338 505.972 165.861 504.96C166.384 503.943 167.125 503.153 168.085 502.591C169.051 502.023 170.196 501.739 171.52 501.739C172.844 501.739 173.986 502.023 174.946 502.591C175.912 503.153 176.656 503.943 177.179 504.96C177.702 505.972 177.963 507.153 177.963 508.506C177.963 509.847 177.702 511.026 177.179 512.043C176.656 513.054 175.912 513.844 174.946 514.412C173.986 514.974 172.844 515.256 171.52 515.256ZM171.537 512.443C172.139 512.443 172.642 512.273 173.045 511.932C173.449 511.585 173.753 511.114 173.957 510.517C174.168 509.92 174.273 509.241 174.273 508.48C174.273 507.719 174.168 507.04 173.957 506.443C173.753 505.847 173.449 505.375 173.045 505.028C172.642 504.682 172.139 504.509 171.537 504.509C170.929 504.509 170.418 504.682 170.003 505.028C169.594 505.375 169.284 505.847 169.074 506.443C168.869 507.04 168.767 507.719 168.767 508.48C168.767 509.241 168.869 509.92 169.074 510.517C169.284 511.114 169.594 511.585 170.003 511.932C170.418 512.273 170.929 512.443 171.537 512.443ZM169.082 500.298L167.062 500.273C167.062 499.188 167.33 498.355 167.864 497.776C168.403 497.196 169.06 496.903 169.832 496.898C170.23 496.898 170.571 496.963 170.855 497.094C171.145 497.219 171.403 497.366 171.631 497.537C171.864 497.707 172.085 497.858 172.295 497.989C172.506 498.114 172.733 498.176 172.977 498.176C173.307 498.17 173.557 498.048 173.727 497.81C173.903 497.565 173.991 497.247 173.991 496.855L175.977 496.915C175.966 497.989 175.693 498.818 175.159 499.403C174.625 499.983 173.974 500.276 173.207 500.281C172.781 500.281 172.423 500.219 172.134 500.094C171.849 499.963 171.599 499.815 171.384 499.651C171.168 499.48 170.957 499.33 170.753 499.199C170.548 499.068 170.318 499.003 170.062 499.003C169.767 499.003 169.528 499.119 169.347 499.352C169.17 499.585 169.082 499.901 169.082 500.298ZM186.29 515.256C184.943 515.256 183.784 514.983 182.812 514.438C181.847 513.886 181.102 513.108 180.58 512.102C180.057 511.091 179.795 509.895 179.795 508.514C179.795 507.168 180.057 505.986 180.58 504.969C181.102 503.952 181.838 503.159 182.787 502.591C183.741 502.023 184.861 501.739 186.145 501.739C187.009 501.739 187.813 501.878 188.557 502.156C189.307 502.429 189.96 502.841 190.517 503.392C191.08 503.943 191.517 504.636 191.83 505.472C192.142 506.301 192.298 507.273 192.298 508.386V509.384H181.244V507.134H188.881C188.881 506.611 188.767 506.148 188.54 505.744C188.313 505.341 187.997 505.026 187.594 504.798C187.196 504.565 186.733 504.449 186.205 504.449C185.653 504.449 185.165 504.577 184.739 504.832C184.318 505.082 183.989 505.42 183.75 505.847C183.511 506.267 183.389 506.736 183.384 507.253V509.392C183.384 510.04 183.503 510.599 183.741 511.071C183.986 511.543 184.33 511.906 184.773 512.162C185.216 512.418 185.741 512.545 186.349 512.545C186.753 512.545 187.122 512.489 187.457 512.375C187.793 512.261 188.08 512.091 188.318 511.864C188.557 511.636 188.739 511.358 188.864 511.028L192.222 511.25C192.051 512.057 191.702 512.761 191.173 513.364C190.651 513.96 189.974 514.426 189.145 514.761C188.321 515.091 187.369 515.256 186.29 515.256ZM205.56 505.642L202.236 505.847C202.179 505.562 202.057 505.307 201.869 505.08C201.682 504.847 201.435 504.662 201.128 504.526C200.827 504.384 200.466 504.312 200.045 504.312C199.483 504.312 199.009 504.432 198.622 504.67C198.236 504.903 198.043 505.216 198.043 505.608C198.043 505.92 198.168 506.185 198.418 506.401C198.668 506.616 199.097 506.79 199.705 506.92L202.074 507.398C203.347 507.659 204.295 508.08 204.92 508.659C205.545 509.239 205.858 510 205.858 510.943C205.858 511.801 205.605 512.554 205.099 513.202C204.599 513.849 203.912 514.355 203.037 514.719C202.168 515.077 201.165 515.256 200.028 515.256C198.295 515.256 196.915 514.895 195.886 514.173C194.864 513.446 194.264 512.457 194.088 511.207L197.659 511.02C197.767 511.548 198.028 511.952 198.443 512.23C198.858 512.503 199.389 512.639 200.037 512.639C200.673 512.639 201.185 512.517 201.571 512.273C201.963 512.023 202.162 511.702 202.168 511.31C202.162 510.98 202.023 510.71 201.75 510.5C201.477 510.284 201.057 510.119 200.489 510.006L198.222 509.554C196.943 509.298 195.991 508.855 195.366 508.224C194.747 507.594 194.438 506.79 194.438 505.812C194.438 504.972 194.665 504.247 195.119 503.639C195.58 503.031 196.224 502.562 197.054 502.233C197.889 501.903 198.866 501.739 199.986 501.739C201.639 501.739 202.94 502.088 203.889 502.787C204.844 503.486 205.401 504.437 205.56 505.642Z" fill="black"/>
<rect width="360" height="56" fill="white"/>
<path d="M27.5575 37V35.4659L36.9666 21.4205H27.4553V19.5455H39.4893V21.0795L30.0803 35.125H39.5916V37H27.5575ZM48.353 37.2727C47.0916 37.2727 46.0036 36.9943 45.0888 36.4375C44.1797 35.875 43.478 35.0909 42.9837 34.0852C42.495 33.0739 42.2507 31.8977 42.2507 30.5568C42.2507 29.2159 42.495 28.0341 42.9837 27.0114C43.478 25.983 44.1655 25.1818 45.0462 24.608C45.9325 24.0284 46.9666 23.7386 48.1484 23.7386C48.8303 23.7386 49.5036 23.8523 50.1683 24.0795C50.8331 24.3068 51.4382 24.6761 51.9837 25.1875C52.5291 25.6932 52.9638 26.3636 53.2876 27.1989C53.6115 28.0341 53.7734 29.0625 53.7734 30.2841V31.1364H43.6825V29.3977H51.728C51.728 28.6591 51.5803 28 51.2848 27.4205C50.995 26.8409 50.5803 26.3835 50.0405 26.0483C49.5064 25.7131 48.8757 25.5455 48.1484 25.5455C47.3473 25.5455 46.6541 25.7443 46.0689 26.142C45.4893 26.5341 45.0433 27.0455 44.7308 27.6761C44.4183 28.3068 44.2621 28.983 44.2621 29.7045V30.8636C44.2621 31.8523 44.4325 32.6903 44.7734 33.3778C45.12 34.0597 45.6001 34.5795 46.2138 34.9375C46.8274 35.2898 47.5405 35.4659 48.353 35.4659C48.8814 35.4659 49.3587 35.392 49.7848 35.2443C50.2166 35.0909 50.5888 34.8636 50.9013 34.5625C51.2138 34.2557 51.4553 33.875 51.6257 33.4205L53.5689 33.9659C53.3643 34.625 53.0206 35.2045 52.5376 35.7045C52.0547 36.1989 51.4581 36.5852 50.7479 36.8636C50.0376 37.1364 49.2393 37.2727 48.353 37.2727ZM56.8331 37V23.9091H58.7763V25.8864H58.9126C59.1513 25.2386 59.5831 24.7131 60.2081 24.3097C60.8331 23.9062 61.5376 23.7045 62.3217 23.7045C62.4695 23.7045 62.6541 23.7074 62.8757 23.7131C63.0973 23.7187 63.2649 23.7273 63.3786 23.7386V25.7841C63.3104 25.767 63.1541 25.7415 62.9098 25.7074C62.6712 25.6676 62.4183 25.6477 62.1513 25.6477C61.5149 25.6477 60.9467 25.7812 60.4467 26.0483C59.9524 26.3097 59.5604 26.6733 59.2706 27.1392C58.9865 27.5994 58.8445 28.125 58.8445 28.7159V37H56.8331ZM71.4219 37.2386C70.1378 37.2386 69.044 36.8892 68.1406 36.1903C67.2372 35.4858 66.5469 34.4659 66.0696 33.1307C65.5923 31.7898 65.3537 30.1705 65.3537 28.2727C65.3537 26.3864 65.5923 24.7756 66.0696 23.4403C66.5526 22.0994 67.2457 21.0767 68.1491 20.3722C69.0582 19.6619 70.1491 19.3068 71.4219 19.3068C72.6946 19.3068 73.7827 19.6619 74.6861 20.3722C75.5952 21.0767 76.2884 22.0994 76.7656 23.4403C77.2486 24.7756 77.4901 26.3864 77.4901 28.2727C77.4901 30.1705 77.2514 31.7898 76.7741 33.1307C76.2969 34.4659 75.6065 35.4858 74.7031 36.1903C73.7997 36.8892 72.706 37.2386 71.4219 37.2386ZM71.4219 35.3636C72.6946 35.3636 73.6832 34.75 74.3878 33.5227C75.0923 32.2955 75.4446 30.5455 75.4446 28.2727C75.4446 26.7614 75.2827 25.4744 74.9588 24.4119C74.6406 23.3494 74.1804 22.5398 73.5781 21.983C72.9815 21.4261 72.2628 21.1477 71.4219 21.1477C70.1605 21.1477 69.1747 21.7699 68.4645 23.0142C67.7543 24.2528 67.3991 26.0057 67.3991 28.2727C67.3991 29.7841 67.5582 31.0682 67.8764 32.125C68.1946 33.1818 68.652 33.9858 69.2486 34.5369C69.8509 35.0881 70.5753 35.3636 71.4219 35.3636ZM81.0355 19.5455H83.5582L89.4901 34.0341H89.6946L95.6264 19.5455H98.1491V37H96.1719V23.7386H96.0014L90.5469 37H88.6378L83.1832 23.7386H83.0128V37H81.0355V19.5455ZM105.967 37.3068C105.137 37.3068 104.384 37.1506 103.708 36.8381C103.032 36.5199 102.495 36.0625 102.097 35.4659C101.7 34.8636 101.501 34.1364 101.501 33.2841C101.501 32.5341 101.648 31.9261 101.944 31.4602C102.239 30.9886 102.634 30.6193 103.129 30.3523C103.623 30.0852 104.168 29.8864 104.765 29.7557C105.367 29.6193 105.972 29.5114 106.58 29.4318C107.376 29.3295 108.021 29.2528 108.515 29.2017C109.015 29.1449 109.379 29.0511 109.606 28.9205C109.839 28.7898 109.955 28.5625 109.955 28.2386V28.1705C109.955 27.3295 109.725 26.6761 109.265 26.2102C108.81 25.7443 108.12 25.5114 107.194 25.5114C106.234 25.5114 105.481 25.7216 104.935 26.142C104.39 26.5625 104.006 27.0114 103.785 27.4886L101.876 26.8068C102.217 26.0114 102.671 25.392 103.239 24.9489C103.813 24.5 104.438 24.1875 105.114 24.0114C105.796 23.8295 106.467 23.7386 107.126 23.7386C107.546 23.7386 108.029 23.7898 108.575 23.892C109.126 23.9886 109.657 24.1903 110.168 24.4972C110.685 24.804 111.114 25.267 111.455 25.8864C111.796 26.5057 111.967 27.3352 111.967 28.375V37H109.955V35.2273H109.853C109.717 35.5114 109.489 35.8153 109.171 36.1392C108.853 36.4631 108.43 36.7386 107.901 36.9659C107.373 37.1932 106.728 37.3068 105.967 37.3068ZM106.273 35.5C107.069 35.5 107.739 35.3438 108.285 35.0312C108.836 34.7188 109.251 34.3153 109.529 33.821C109.813 33.3267 109.955 32.8068 109.955 32.2614V30.4205C109.87 30.5227 109.683 30.6165 109.393 30.7017C109.109 30.7812 108.779 30.8523 108.404 30.9148C108.035 30.9716 107.674 31.0227 107.322 31.0682C106.975 31.108 106.694 31.142 106.478 31.1705C105.955 31.2386 105.467 31.3494 105.012 31.5028C104.563 31.6506 104.2 31.875 103.921 32.1761C103.648 32.4716 103.512 32.875 103.512 33.3864C103.512 34.0852 103.771 34.6136 104.288 34.9716C104.81 35.3239 105.472 35.5 106.273 35.5ZM121.331 23.9091V25.6136H114.547V23.9091H121.331ZM116.524 20.7727H118.536V33.25C118.536 33.8182 118.618 34.2443 118.783 34.5284C118.953 34.8068 119.169 34.9943 119.43 35.0909C119.697 35.1818 119.979 35.2273 120.274 35.2273C120.496 35.2273 120.678 35.2159 120.82 35.1932C120.962 35.1648 121.075 35.142 121.161 35.125L121.57 36.9318C121.433 36.983 121.243 37.0341 120.999 37.0852C120.754 37.142 120.445 37.1705 120.07 37.1705C119.501 37.1705 118.945 37.0483 118.399 36.804C117.859 36.5597 117.411 36.1875 117.053 35.6875C116.7 35.1875 116.524 34.5568 116.524 33.7955V20.7727ZM126.649 29.125V37H124.638V19.5455H126.649V25.9545H126.82C127.126 25.2784 127.587 24.7415 128.2 24.3438C128.82 23.9403 129.643 23.7386 130.672 23.7386C131.564 23.7386 132.345 23.9176 133.016 24.2756C133.686 24.6278 134.206 25.1705 134.575 25.9034C134.95 26.6307 135.138 27.5568 135.138 28.6818V37H133.126V28.8182C133.126 27.7784 132.857 26.9744 132.317 26.4062C131.783 25.8324 131.041 25.5455 130.092 25.5455C129.433 25.5455 128.842 25.6847 128.32 25.9631C127.803 26.2415 127.393 26.6477 127.092 27.1818C126.797 27.7159 126.649 28.3636 126.649 29.125Z" fill="black"/>
</g>
<defs>
<clipPath id="clip0_29_23">
<rect width="360" height="800" rx="12" fill="white"/>
</clipPath>
<clipPath id="clip1_29_23">
<rect width="15" height="15" fill="white" transform="translate(331 500)"/>
</clipPath>
</defs>
</svg>
